{
copyright = "Copyright (c) 2015, Cadson Demak (info@cadsondemak.com)";
customParameters = (
{
name = vendorID;
value = CDK;
},
{
name = description;
value = "Copyright (c) 2015, Cadson Demak (info@cadsondemak.com)";
},
{
name = license;

glyphs = (
{
glyphname = A;
lastChange = "2015-11-30 00:46:20 +0000";
layers = (
{
layerId = "8C3E11F2-14C8-42F3-9A0B-AF341C1B554F";
name = Regular;
paths = (
{
closed = 1;
nodes = (
"170 0 LINE",
"233 161 LINE",
"529 161 LINE",
"593 0 LINE",
"722 0 LINE",
"443 699 LINE",
"320 699 LINE",
"40 0 LINE"
);
},
{
closed = 1;
nodes = (
"381 563 LINE",
"494 266 LINE",
"268 266 LINE"
);
}
);
width = 762;
}
);
leftKerningGroup = A;
note = A;
rightKerningGroup = A;
unicode = 0041;
},
{
glyphname = Aacute;
lastChange = "2015-11-30 00:46:19 +0000";
layers = (
{
layerId = "8C3E11F2-14C8-42F3-9A0B-AF341C1B554F";
name = Regular;
paths = (
{
closed = 1;
nodes = (
"170 0 LINE",
"233 161 LINE",
"529 161 LINE",
"593 0 LINE",
"722 0 LINE",
"443 699 LINE",
"320 699 LINE",
"40 0 LINE"
);
},
{
closed = 1;
nodes = (
"381 563 LINE",
"494 266 LINE",
"268 266 LINE"
);
},
{
closed = 1;
nodes = (
"445 742 LINE",
"531 916 LINE",
"398 916 LINE",
"329 742 LINE"
);
}
);
width = 762;
}
);
leftKerningGroup = A;
note = Aacute;
rightKerningGroup = A;
unicode = 00C1;
},
{
glyphname = Abreve;
lastChange = "2015-11-30 00:46:19 +0000";
layers = (
{
layerId = "8C3E11F2-14C8-42F3-9A0B-AF341C1B554F";
name = Regular;
paths = (
{
closed = 1;
nodes = (
"170 0 LINE",
"233 161 LINE",
"529 161 LINE",
"593 0 LINE",
"722 0 LINE",
"443 699 LINE",
"320 699 LINE",
"40 0 LINE"
);
},
{
closed = 1;
nodes = (
"381 563 LINE",
"494 266 LINE",
"268 266 LINE"
);
},
{
closed = 1;
nodes = (
"482 742 OFFCURVE",
"542 803 OFFCURVE",
"542 893 CURVE",
"447 893 LINE",
"447 849 OFFCURVE",
"423 826 OFFCURVE",
"381 826 CURVE SMOOTH",
"339 826 OFFCURVE",
"315 849 OFFCURVE",
"315 893 CURVE",
"220 893 LINE",
"220 803 OFFCURVE",
"280 742 OFFCURVE",
"381 742 CURVE SMOOTH"
);
}
);
width = 762;
}
);
leftKerningGroup = A;
note = Abreve;
rightKerningGroup = A;
unicode = 0102;
},
{
glyphname = Abreveacute;
lastChange = "2015-11-30 00:46:20 +0000";
layers = (
{
layerId = "8C3E11F2-14C8-42F3-9A0B-AF341C1B554F";
name = Regular;
paths = (
{
closed = 1;
nodes = (
"170 0 LINE",
"233 161 LINE",
"529 161 LINE",
"593 0 LINE",
"722 0 LINE",
"443 699 LINE",
"320 699 LINE",
"40 0 LINE"
);
},
{
closed = 1;
nodes = (
"381 563 LINE",
"494 266 LINE",
"268 266 LINE"
);
},
{
closed = 1;
nodes = (
"479 742 OFFCURVE",
"537 801 OFFCURVE",
"537 889 CURVE",
"445 889 LINE",
"445 846 OFFCURVE",
"422 824 OFFCURVE",
"381 824 CURVE SMOOTH",
"340 824 OFFCURVE",
"317 846 OFFCURVE",
"317 889 CURVE",
"225 889 LINE",
"225 801 OFFCURVE",
"283 742 OFFCURVE",
"381 742 CURVE SMOOTH"
);
},
{
closed = 1;
nodes = (
"423 893 LINE",
"490 1019 LINE",
"389 1019 LINE",
"337 893 LINE"
);
}
);
width = 762;
}
);
leftKerningGroup = A;
note = Abreveacute;
rightKerningGroup = A;
unicode = 1EAE;
},
{
glyphname = Abrevedotbelow;
lastChange = "2015-11-30 00:46:20 +0000";
layers = (
{
layerId = "8C3E11F2-14C8-42F3-9A0B-AF341C1B554F";
name = Regular;
paths = (
{
closed = 1;
nodes = (
"170 0 LINE",
"233 161 LINE",
"529 161 LINE",
"593 0 LINE",
"722 0 LINE",
"443 699 LINE",
"320 699 LINE",
"40 0 LINE"
);
},
{
closed = 1;
nodes = (
"418 -179 OFFCURVE",
"448 -150 OFFCURVE",
"448 -113 CURVE SMOOTH",
"448 -76 OFFCURVE",
"418 -46 OFFCURVE",
"382 -46 CURVE SMOOTH",
"346 -46 OFFCURVE",
"315 -76 OFFCURVE",
"315 -113 CURVE SMOOTH",
"315 -150 OFFCURVE",
"346 -179 OFFCURVE",
"382 -179 CURVE SMOOTH"
);
},
{
closed = 1;
nodes = (
"381 563 LINE",
"494 266 LINE",
"268 266 LINE"
);
},
{
closed = 1;
nodes = (
"482 742 OFFCURVE",
"542 803 OFFCURVE",
"542 893 CURVE",
"447 893 LINE",
"447 849 OFFCURVE",
"423 826 OFFCURVE",
"381 826 CURVE SMOOTH",
"339 826 OFFCURVE",
"315 849 OFFCURVE",
"315 893 CURVE",
"220 893 LINE",
"220 803 OFFCURVE",
"280 742 OFFCURVE",
"381 742 CURVE SMOOTH"
);
}
);
width = 762;
}
);
leftKerningGroup = A;
note = Abrevedotbelow;
rightKerningGroup = A;
unicode = 1EB6;
},
{
glyphname = Abrevegrave;
lastChange = "2015-11-30 00:46:20 +0000";
layers = (
{
layerId = "8C3E11F2-14C8-42F3-9A0B-AF341C1B554F";
name = Regular;
paths = (
{
closed = 1;
nodes = (
"170 0 LINE",
"233 161 LINE",
"529 161 LINE",
"593 0 LINE",
"722 0 LINE",
"443 699 LINE",
"320 699 LINE",
"40 0 LINE"
);
},
{
closed = 1;
nodes = (
"381 563 LINE",
"494 266 LINE",
"268 266 LINE"
);
},
{
closed = 1;
nodes = (
"479 742 OFFCURVE",
"537 801 OFFCURVE",
"537 889 CURVE",
"445 889 LINE",
"445 846 OFFCURVE",
"422 824 OFFCURVE",
"381 824 CURVE SMOOTH",
"340 824 OFFCURVE",
"317 846 OFFCURVE",
"317 889 CURVE",
"225 889 LINE",
"225 801 OFFCURVE",
"283 742 OFFCURVE",
"381 742 CURVE SMOOTH"
);
},
{
closed = 1;
nodes = (
"425 893 LINE",
"373 1019 LINE",
"272 1019 LINE",
"339 893 LINE"
);
}
);
width = 762;
}
);
leftKerningGroup = A;
note = Abrevegrave;
rightKerningGroup = A;
unicode = 1EB0;
},
{
glyphname = Abrevehookabove;
lastChange = "2015-11-30 00:46:19 +0000";
layers = (
{
layerId = "8C3E11F2-14C8-42F3-9A0B-AF341C1B554F";
name = Regular;
paths = (
{
closed = 1;
nodes = (
"170 0 LINE",
"233 161 LINE",
"529 161 LINE",
"593 0 LINE",
"722 0 LINE",
"443 699 LINE",
"320 699 LINE",
"40 0 LINE"
);
},
{
closed = 1;
nodes = (
"381 563 LINE",
"494 266 LINE",
"268 266 LINE"
);
},
{
closed = 1;
nodes = (
"479 742 OFFCURVE",
"537 801 OFFCURVE",
"537 889 CURVE",
"447 889 LINE",
"447 846 OFFCURVE",
"422 822 OFFCURVE",
"381 822 CURVE SMOOTH",
"340 822 OFFCURVE",
"315 846 OFFCURVE",
"315 889 CURVE",
"225 889 LINE",
"225 801 OFFCURVE",
"283 742 OFFCURVE",
"381 742 CURVE SMOOTH"
);
},
{
closed = 1;
nodes = (
"422 882 LINE",
"422 906 LINE",
"462 913 OFFCURVE",
"486 937 OFFCURVE",
"486 971 CURVE SMOOTH",
"486 1013 OFFCURVE",
"449 1041 OFFCURVE",
"389 1041 CURVE SMOOTH",
"365 1041 OFFCURVE",
"335 1036 OFFCURVE",
"317 1030 CURVE",
"317 981 LINE",
"327 986 OFFCURVE",
"344 989 OFFCURVE",
"358 989 CURVE SMOOTH",
"386 989 OFFCURVE",
"400 984 OFFCURVE",
"400 963 CURVE SMOOTH",
"400 939 OFFCURVE",
"381 932 OFFCURVE",
"343 932 CURVE",
"343 882 LINE"
);
}
);
width = 762;
}
);
leftKerningGroup = A;
note = Abrevehookabove;
rightKerningGroup = A;
unicode = 1EB2;
},
{
glyphname = Abrevetilde;
lastChange = "2015-11-30 00:46:20 +0000";
layers = (
{
layerId = "8C3E11F2-14C8-42F3-9A0B-AF341C1B554F";
name = Regular;
paths = (
{
closed = 1;
nodes = (
"170 0 LINE",
"233 161 LINE",
"529 161 LINE",
"593 0 LINE",
"722 0 LINE",
"443 699 LINE",
"320 699 LINE",
"40 0 LINE"
);
},
{
closed = 1;
nodes = (
"381 563 LINE",
"494 266 LINE",
"268 266 LINE"
);
},
{
closed = 1;
nodes = (
"479 742 OFFCURVE",
"537 801 OFFCURVE",
"537 889 CURVE",
"445 889 LINE",
"445 846 OFFCURVE",
"422 824 OFFCURVE",
"381 824 CURVE SMOOTH",
"340 824 OFFCURVE",
"317 846 OFFCURVE",
"317 889 CURVE",
"225 889 LINE",
"225 801 OFFCURVE",
"283 742 OFFCURVE",
"381 742 CURVE SMOOTH"
);
},
{
closed = 1;
nodes = (
"494 925 OFFCURVE",
"520 935 OFFCURVE",
"537 959 CURVE",
"537 1049 LINE",
"515 1018 OFFCURVE",
"490 1007 OFFCURVE",
"459 1007 CURVE SMOOTH",
"411 1007 OFFCURVE",
"355 1050 OFFCURVE",
"305 1050 CURVE SMOOTH",
"270 1050 OFFCURVE",
"244 1040 OFFCURVE",
"227 1015 CURVE",
"227 926 LINE",
"250 957 OFFCURVE",
"274 968 OFFCURVE",
"305 968 CURVE SMOOTH",
"352 968 OFFCURVE",
"405 925 OFFCURVE",
"459 925 CURVE SMOOTH"
);
}
);
width = 762;
}
);
leftKerningGroup = A;
note = Abrevetilde;
rightKerningGroup = A;
unicode = 1EB4;
},
{
glyphname = Acaron;
lastChange = "2015-11-30 00:46:21 +0000";
layers = (
{
layerId = "8C3E11F2-14C8-42F3-9A0B-AF341C1B554F";
name = Regular;
paths = (
{
closed = 1;
nodes = (
"170 0 LINE",
"233 161 LINE",
"529 161 LINE",
"593 0 LINE",
"722 0 LINE",
"443 699 LINE",
"320 699 LINE",
"40 0 LINE"
);
},
{
closed = 1;
nodes = (
"381 563 LINE",
"494 266 LINE",
"268 266 LINE"
);
},
{
closed = 1;
nodes = (
"438 742 LINE",
"584 913 LINE",
"458 913 LINE",
"382 813 LINE",
"306 913 LINE",
"179 913 LINE",
"326 742 LINE"
);
}
);
width = 762;
}
);
leftKerningGroup = A;
note = Acaron;
rightKerningGroup = A;
unicode = 01CD;
},
{
glyphname = Acircumflex;
lastChange = "2015-11-30 00:46:19 +0000";
layers = (
{
layerId = "8C3E11F2-14C8-42F3-9A0B-AF341C1B554F";
name = Regular;
paths = (
{
closed = 1;
nodes = (
"170 0 LINE",
"233 161 LINE",
"529 161 LINE",
"593 0 LINE",
"722 0 LINE",
"443 699 LINE",
"320 699 LINE",
"40 0 LINE"
);
},
{
closed = 1;
nodes = (
"381 563 LINE",
"494 266 LINE",
"268 266 LINE"
);
},
{
closed = 1;
nodes = (
"306 742 LINE",
"382 841 LINE",
"458 742 LINE",
"584 742 LINE",
"438 913 LINE",
"326 913 LINE",
"179 742 LINE"
);
}
);
width = 762;
}
);
leftKerningGroup = A;
note = Acircumflex;
rightKerningGroup = A;
unicode = 00C2;
},
{
glyphname = Acircumflexacute;
lastChange = "2015-11-30 00:46:20 +0000";
layers = (
{
layerId = "8C3E11F2-14C8-42F3-9A0B-AF341C1B554F";
name = Regular;
paths = (
{
closed = 1;
nodes = (
"170 0 LINE",
"233 161 LINE",
"529 161 LINE",
"593 0 LINE",
"722 0 LINE",
"443 699 LINE",
"320 699 LINE",
"40 0 LINE"
);
},
{
closed = 1;
nodes = (
"381 563 LINE",
"494 266 LINE",
"268 266 LINE"
);
},
{
closed = 1;
nodes = (
"309 743 LINE",
"381 827 LINE",
"453 743 LINE",
"572 743 LINE",
"434 895 LINE",
"328 895 LINE",
"189 743 LINE"
);
},
{
closed = 1;
nodes = (
"618 842 LINE",
"695 970 LINE",
"578 970 LINE",
"517 842 LINE"
);
}
);
width = 762;
}
);
leftKerningGroup = A;
note = Acircumflexacute;
rightKerningGroup = A;
unicode = 1EA4;
},
{
glyphname = Acircumflexdotbelow;
lastChange = "2015-11-30 00:46:21 +0000";
layers = (
{
layerId = "8C3E11F2-14C8-42F3-9A0B-AF341C1B554F";
name = Regular;
paths = (
{
closed = 1;
nodes = (
"170 0 LINE",
"233 161 LINE",
"529 161 LINE",
"593 0 LINE",
"722 0 LINE",
"443 699 LINE",
"320 699 LINE",
"40 0 LINE"
);
},
{
closed = 1;
nodes = (
"418 -179 OFFCURVE",
"448 -150 OFFCURVE",
"448 -113 CURVE SMOOTH",
"448 -76 OFFCURVE",
"418 -46 OFFCURVE",
"382 -46 CURVE SMOOTH",
"346 -46 OFFCURVE",
"315 -76 OFFCURVE",
"315 -113 CURVE SMOOTH",
"315 -150 OFFCURVE",
"346 -179 OFFCURVE",
"382 -179 CURVE SMOOTH"
);
},
{
closed = 1;
nodes = (
"381 563 LINE",
"494 266 LINE",
"268 266 LINE"
);
},
{
closed = 1;
nodes = (
"306 742 LINE",
"382 841 LINE",
"458 742 LINE",
"584 742 LINE",
"438 913 LINE",
"326 913 LINE",
"179 742 LINE"
);
}
);
width = 762;
}
);
leftKerningGroup = A;
note = Acircumflexdotbelow;
rightKerningGroup = A;
unicode = 1EAC;
},
{
glyphname = Acircumflexgrave;
lastChange = "2015-11-30 00:46:19 +0000";
layers = (
{
layerId = "8C3E11F2-14C8-42F3-9A0B-AF341C1B554F";
name = Regular;
paths = (
{
closed = 1;
nodes = (
"170 0 LINE",
"233 161 LINE",
"529 161 LINE",
"593 0 LINE",
"722 0 LINE",
"443 699 LINE",
"320 699 LINE",
"40 0 LINE"
);
},
{
closed = 1;
nodes = (
"381 563 LINE",
"494 266 LINE",
"268 266 LINE"
);
},
{
closed = 1;
nodes = (
"245 841 LINE",
"184 969 LINE",
"67 969 LINE",
"144 841 LINE"
);
},
{
closed = 1;
nodes = (
"309 742 LINE",
"381 826 LINE",
"453 742 LINE",
"573 742 LINE",
"434 894 LINE",
"328 894 LINE",
"190 742 LINE"
);
}
);
width = 762;
}
);
leftKerningGroup = A;
note = Acircumflexgrave;
rightKerningGroup = A;
unicode = 1EA6;
},
{
glyphname = Acircumflexhookabove;
lastChange = "2015-11-30 00:46:21 +0000";
layers = (
{
layerId = "8C3E11F2-14C8-42F3-9A0B-AF341C1B554F";
name = Regular;
paths = (
{
closed = 1;
nodes = (
"170 0 LINE",
"233 161 LINE",
"529 161 LINE",
"593 0 LINE",
"722 0 LINE",
"443 699 LINE",
"320 699 LINE",
"40 0 LINE"
);
},
{
closed = 1;
nodes = (
"381 563 LINE",
"494 266 LINE",
"268 266 LINE"
);
},
{
closed = 1;
nodes = (
"309 743 LINE",
"381 827 LINE",
"453 743 LINE",
"572 743 LINE",
"434 895 LINE",
"328 895 LINE",
"189 743 LINE"
);
},
{
closed = 1;
nodes = (
"596 831 LINE",
"596 855 LINE",
"636 862 OFFCURVE",
"660 886 OFFCURVE",
"660 920 CURVE SMOOTH",
"660 962 OFFCURVE",
"623 990 OFFCURVE",
"563 990 CURVE SMOOTH",
"539 990 OFFCURVE",
"509 985 OFFCURVE",
"491 979 CURVE",
"491 930 LINE",
"501 935 OFFCURVE",
"518 938 OFFCURVE",
"532 938 CURVE SMOOTH",
"560 938 OFFCURVE",
"574 933 OFFCURVE",
"574 912 CURVE SMOOTH",
"574 888 OFFCURVE",
"555 881 OFFCURVE",
"517 881 CURVE",
"517 831 LINE"
);
}
);
width = 762;
}
);
leftKerningGroup = A;
note = Acircumflexhookabove;
rightKerningGroup = A;
unicode = 1EA8;
},
{
glyphname = Acircumflextilde;
lastChange = "2015-11-30 00:46:21 +0000";
layers = (
{
layerId = "8C3E11F2-14C8-42F3-9A0B-AF341C1B554F";
name = Regular;
paths = (
{
closed = 1;
nodes = (
"170 0 LINE",
"233 161 LINE",
"529 161 LINE",
"593 0 LINE",
"722 0 LINE",
"443 699 LINE",
"320 699 LINE",
"40 0 LINE"
);
},
{
closed = 1;
nodes = (
"381 563 LINE",
"494 266 LINE",
"268 266 LINE"
);
},
{
closed = 1;
nodes = (
"310 742 LINE",
"382 826 LINE",
"454 742 LINE",
"573 742 LINE",
"435 894 LINE",
"329 894 LINE",
"190 742 LINE"
);
},
{
closed = 1;
nodes = (
"497 906 OFFCURVE",
"523 916 OFFCURVE",
"540 940 CURVE",
"540 1030 LINE",
"518 999 OFFCURVE",
"493 988 OFFCURVE",
"462 988 CURVE SMOOTH",
"414 988 OFFCURVE",
"358 1031 OFFCURVE",
"308 1031 CURVE SMOOTH",
"273 1031 OFFCURVE",
"247 1021 OFFCURVE",
"230 996 CURVE",
"230 907 LINE",
"253 938 OFFCURVE",
"277 949 OFFCURVE",
"308 949 CURVE SMOOTH",
"355 949 OFFCURVE",
"408 906 OFFCURVE",
"462 906 CURVE SMOOTH"
);
}
);
width = 762;
}
);
leftKerningGroup = A;
note = Acircumflextilde;
rightKerningGroup = A;
unicode = 1EAA;
},
{
glyphname = Adieresis;
lastChange = "2015-11-30 00:46:21 +0000";
layers = (
{
layerId = "8C3E11F2-14C8-42F3-9A0B-AF341C1B554F";
name = Regular;
paths = (
{
closed = 1;
nodes = (
"170 0 LINE",
"233 161 LINE",
"529 161 LINE",
"593 0 LINE",
"722 0 LINE",
"443 699 LINE",
"320 699 LINE",
"40 0 LINE"
);
},
{
closed = 1;
nodes = (
"381 563 LINE",
"494 266 LINE",
"268 266 LINE"
);
},
{
closed = 1;
nodes = (
"299 752 OFFCURVE",
"329 781 OFFCURVE",
"329 818 CURVE SMOOTH",
"329 855 OFFCURVE",
"299 885 OFFCURVE",
"263 885 CURVE SMOOTH",
"227 885 OFFCURVE",
"196 855 OFFCURVE",
"196 818 CURVE SMOOTH",
"196 781 OFFCURVE",
"227 752 OFFCURVE",
"263 752 CURVE SMOOTH"
);
},
{
closed = 1;
nodes = (
"536 752 OFFCURVE",
"566 781 OFFCURVE",
"566 818 CURVE SMOOTH",
"566 855 OFFCURVE",
"536 885 OFFCURVE",
"500 885 CURVE SMOOTH",
"464 885 OFFCURVE",
"433 855 OFFCURVE",
"433 818 CURVE SMOOTH",
"433 781 OFFCURVE",
"464 752 OFFCURVE",
"500 752 CURVE SMOOTH"
);
}
);
width = 762;
}
);
leftKerningGroup = A;
note = Adieresis;
rightKerningGroup = A;
unicode = 00C4;
},
{
glyphname = Adotbelow;
lastChange = "2015-11-30 00:46:20 +0000";
layers = (
{
layerId = "8C3E11F2-14C8-42F3-9A0B-AF341C1B554F";
name = Regular;
paths = (
{
closed = 1;
nodes = (
"170 0 LINE",
"233 161 LINE",
"529 161 LINE",
"593 0 LINE",
"722 0 LINE",
"443 699 LINE",
"320 699 LINE",
"40 0 LINE"
);
},
{
closed = 1;
nodes = (
"417 -179 OFFCURVE",
"447 -150 OFFCURVE",
"447 -113 CURVE SMOOTH",
"447 -76 OFFCURVE",
"417 -46 OFFCURVE",
"381 -46 CURVE SMOOTH",
"345 -46 OFFCURVE",
"314 -76 OFFCURVE",
"314 -113 CURVE SMOOTH",
"314 -150 OFFCURVE",
"345 -179 OFFCURVE",
"381 -179 CURVE SMOOTH"
);
},
{
closed = 1;
nodes = (
"381 563 LINE",
"494 266 LINE",
"268 266 LINE"
);
}
);
width = 762;
}
);
leftKerningGroup = A;
note = Adotbelow;
rightKerningGroup = A;
unicode = 1EA0;
},
{
glyphname = Agrave;
lastChange = "2015-11-30 00:46:21 +0000";
layers = (
{
layerId = "8C3E11F2-14C8-42F3-9A0B-AF341C1B554F";
name = Regular;
paths = (
{
closed = 1;
nodes = (
"170 0 LINE",
"233 161 LINE",
"529 161 LINE",
"593 0 LINE",
"722 0 LINE",
"443 699 LINE",
"320 699 LINE",
"40 0 LINE"
);
},
{
closed = 1;
nodes = (
"381 563 LINE",
"494 266 LINE",
"268 266 LINE"
);
},
{
closed = 1;
nodes = (
"436 742 LINE",
"367 916 LINE",
"234 916 LINE",
"320 742 LINE"
);
}
);
width = 762;
}
);
leftKerningGroup = A;
note = Agrave;
rightKerningGroup = A;
unicode = 00C0;
},
{
glyphname = Ahookabove;
lastChange = "2015-11-30 00:46:20 +0000";
layers = (
{
layerId = "8C3E11F2-14C8-42F3-9A0B-AF341C1B554F";
name = Regular;
paths = (
{
closed = 1;
nodes = (
"170 0 LINE",
"233 161 LINE",
"529 161 LINE",
"593 0 LINE",
"722 0 LINE",
"443 699 LINE",
"320 699 LINE",
"40 0 LINE"
);
},
{
closed = 1;
nodes = (
"381 563 LINE",
"494 266 LINE",
"268 266 LINE"
);
},
{
closed = 1;
nodes = (
"436 742 LINE",
"436 776 LINE",
"495 785 OFFCURVE",
"527 822 OFFCURVE",
"527 870 CURVE SMOOTH",
"527 929 OFFCURVE",
"481 970 OFFCURVE",
"387 970 CURVE SMOOTH",
"351 970 OFFCURVE",
"312 963 OFFCURVE",
"289 956 CURVE",
"289 890 LINE",
"302 896 OFFCURVE",
"339 902 OFFCURVE",
"355 902 CURVE SMOOTH",
"400 902 OFFCURVE",
"417 891 OFFCURVE",
"417 865 CURVE SMOOTH",
"417 827 OFFCURVE",
"382 816 OFFCURVE",
"326 816 CURVE",
"326 742 LINE"
);
}
);
width = 762;
}
);
leftKerningGroup = A;
note = Ahookabove;
rightKerningGroup = A;
unicode = 1EA2;
},
{
glyphname = Amacron;
lastChange = "2015-11-30 00:46:19 +0000";
layers = (
{
layerId = "8C3E11F2-14C8-42F3-9A0B-AF341C1B554F";
name = Regular;
paths = (
{
closed = 1;
nodes = (
"170 0 LINE",
"233 161 LINE",
"529 161 LINE",
"593 0 LINE",
"722 0 LINE",
"443 699 LINE",
"320 699 LINE",
"40 0 LINE"
);
},
{
closed = 1;
nodes = (
"381 563 LINE",
"494 266 LINE",
"268 266 LINE"
);
},
{
closed = 1;
nodes = (
"543 752 LINE",
"543 836 LINE",
"220 836 LINE",
"220 752 LINE"
);
}
);
width = 762;
}
);
leftKerningGroup = A;
note = Amacron;
rightKerningGroup = A;
unicode = 0100;
},
{
glyphname = Aogonek;
lastChange = "2015-11-30 00:46:18 +0000";
layers = (
{
layerId = "8C3E11F2-14C8-42F3-9A0B-AF341C1B554F";
name = Regular;
paths = (
{
closed = 1;
nodes = (
"170 0 LINE",
"233 161 LINE",
"529 161 LINE",
"593 0 LINE",
"722 0 LINE",
"443 699 LINE",
"320 699 LINE",
"40 0 LINE"
);
},
{
closed = 1;
nodes = (
"659 -213 OFFCURVE",
"692 -208 OFFCURVE",
"713 -200 CURVE",
"713 -128 LINE",
"699 -135 OFFCURVE",
"682 -139 OFFCURVE",
"665 -139 CURVE SMOOTH",
"641 -139 OFFCURVE",
"624 -125 OFFCURVE",
"624 -99 CURVE SMOOTH",
"624 -61 OFFCURVE",
"651 -31 OFFCURVE",
"703 0 CURVE",
"587 0 LINE",
"545 -26 OFFCURVE",
"514 -68 OFFCURVE",
"514 -121 CURVE SMOOTH",
"514 -184 OFFCURVE",
"563 -213 OFFCURVE",
"626 -213 CURVE SMOOTH"
);
},
{
closed = 1;
nodes = (
"381 563 LINE",
"494 266 LINE",
"268 266 LINE"
);
}
);
width = 762;
}
);
leftKerningGroup = A;
note = Aogonek;
rightKerningGroup = A;
unicode = 0104;
},
{
glyphname = Aring;
lastChange = "2015-11-30 00:46:20 +0000";
layers = (
{
layerId = "8C3E11F2-14C8-42F3-9A0B-AF341C1B554F";
name = Regular;
paths = (
{
closed = 1;
nodes = (
"170 0 LINE",
"233 161 LINE",
"529 161 LINE",
"593 0 LINE",
"722 0 LINE",
"443 699 LINE",
"320 699 LINE",
"40 0 LINE"
);
},
{
closed = 1;
nodes = (
"381 563 LINE",
"494 266 LINE",
"268 266 LINE"
);
},
{
closed = 1;
nodes = (
"450 654 OFFCURVE",
"506 709 OFFCURVE",
"506 778 CURVE SMOOTH",
"506 847 OFFCURVE",
"450 903 OFFCURVE",
"381 903 CURVE SMOOTH",
"312 903 OFFCURVE",
"257 847 OFFCURVE",
"257 778 CURVE SMOOTH",
"257 709 OFFCURVE",
"312 654 OFFCURVE",
"381 654 CURVE SMOOTH"
);
},
{
closed = 1;
nodes = (
"353 727 OFFCURVE",
"330 750 OFFCURVE",
"330 778 CURVE SMOOTH",
"330 806 OFFCURVE",
"353 829 OFFCURVE",
"381 829 CURVE SMOOTH",
"409 829 OFFCURVE",
"432 806 OFFCURVE",
"432 778 CURVE SMOOTH",
"432 750 OFFCURVE",
"409 727 OFFCURVE",
"381 727 CURVE SMOOTH"
);
}
);
width = 762;
}
);
leftKerningGroup = A;
note = Aring;
rightKerningGroup = A;
unicode = 00C5;
},
{
glyphname = Aringacute;
lastChange = "2015-11-30 00:46:21 +0000";
layers = (
{
layerId = "8C3E11F2-14C8-42F3-9A0B-AF341C1B554F";
name = Regular;
paths = (
{
closed = 1;
nodes = (
"170 0 LINE",
"233 161 LINE",
"529 161 LINE",
"593 0 LINE",
"722 0 LINE",
"443 699 LINE",
"320 699 LINE",
"40 0 LINE"
);
},
{
closed = 1;
nodes = (
"381 563 LINE",
"494 266 LINE",
"268 266 LINE"
);
},
{
closed = 1;
nodes = (
"450 654 OFFCURVE",
"506 709 OFFCURVE",
"506 778 CURVE SMOOTH",
"506 847 OFFCURVE",
"450 903 OFFCURVE",
"381 903 CURVE SMOOTH",
"312 903 OFFCURVE",
"257 847 OFFCURVE",
"257 778 CURVE SMOOTH",
"257 709 OFFCURVE",
"312 654 OFFCURVE",
"381 654 CURVE SMOOTH"
);
},
{
closed = 1;
nodes = (
"353 727 OFFCURVE",
"330 750 OFFCURVE",
"330 778 CURVE SMOOTH",
"330 806 OFFCURVE",
"353 829 OFFCURVE",
"381 829 CURVE SMOOTH",
"409 829 OFFCURVE",
"432 806 OFFCURVE",
"432 778 CURVE SMOOTH",
"432 750 OFFCURVE",
"409 727 OFFCURVE",
"381 727 CURVE SMOOTH"
);
},
{
closed = 1;
nodes = (
"439 919 LINE",
"525 1058 LINE",
"392 1058 LINE",
"323 919 LINE"
);
}
);
width = 762;
}
);
leftKerningGroup = A;
note = Aringacute;
rightKerningGroup = A;
unicode = 01FA;
},
{
glyphname = Atilde;
lastChange = "2015-11-30 00:46:21 +0000";
layers = (
{
layerId = "8C3E11F2-14C8-42F3-9A0B-AF341C1B554F";
name = Regular;
paths = (
{
closed = 1;
nodes = (
"170 0 LINE",
"233 161 LINE",
"529 161 LINE",
"593 0 LINE",
"722 0 LINE",
"443 699 LINE",
"320 699 LINE",
"40 0 LINE"
);
},
{
closed = 1;
nodes = (
"381 563 LINE",
"494 266 LINE",
"268 266 LINE"
);
},
{
closed = 1;
nodes = (
"217 781 OFFCURVE",
"250 794 OFFCURVE",
"287 794 CURVE SMOOTH",
"351 794 OFFCURVE",
"403 744 OFFCURVE",
"476 744 CURVE SMOOTH",
"518 744 OFFCURVE",
"553 755 OFFCURVE",
"576 786 CURVE",
"576 889 LINE",
"548 851 OFFCURVE",
"514 838 OFFCURVE",
"476 838 CURVE SMOOTH",
"411 838 OFFCURVE",
"355 888 OFFCURVE",
"287 888 CURVE SMOOTH",
"246 888 OFFCURVE",
"210 876 OFFCURVE",
"187 845 CURVE",
"187 742 LINE"
);
}
);
width = 762;
}
);
leftKerningGroup = A;
note = Atilde;
rightKerningGroup = A;
unicode = 00C3;
},
{
glyphname = AE;
lastChange = "2015-11-30 00:46:19 +0000";
layers = (
{
layerId = "8C3E11F2-14C8-42F3-9A0B-AF341C1B554F";
name = Regular;
paths = (
{
closed = 1;
nodes = (
"176 0 LINE",
"255 171 LINE",
"446 171 LINE",
"446 0 LINE",
"884 0 LINE",
"884 105 LINE",
"573 105 LINE",
"573 297 LINE",
"795 297 LINE",
"795 402 LINE",
"573 402 LINE",
"573 594 LINE",
"884 594 LINE",
"884 699 LINE",
"371 699 LINE",
"40 0 LINE"
);
},
{
closed = 1;
nodes = (
"443 582 LINE",
"446 582 LINE",
"446 266 LINE",
"303 266 LINE"
);
}
);
width = 924;
}
);
leftKerningGroup = A;
note = AE;
rightKerningGroup = E;
unicode = 00C6;
},
{
glyphname = AEacute;
lastChange = "2015-11-30 00:46:20 +0000";
layers = (
{
layerId = "8C3E11F2-14C8-42F3-9A0B-AF341C1B554F";
name = Regular;
paths = (
{
closed = 1;
nodes = (
"176 0 LINE",
"255 171 LINE",
"446 171 LINE",
"446 0 LINE",
"884 0 LINE",
"884 105 LINE",
"573 105 LINE",
"573 297 LINE",
"795 297 LINE",
"795 402 LINE",
"573 402 LINE",
"573 594 LINE",
"884 594 LINE",
"884 699 LINE",
"371 699 LINE",
"40 0 LINE"
);
},
{
closed = 1;
nodes = (
"443 582 LINE",
"446 582 LINE",
"446 266 LINE",
"303 266 LINE"
);
},
{
closed = 1;
nodes = (
"608 742 LINE",
"694 916 LINE",
"561 916 LINE",
"492 742 LINE"
);
}
);
width = 924;
}
);
leftKerningGroup = A;
note = AEacute;
rightKerningGroup = E;
unicode = 01FC;
},
{
glyphname = B;
lastChange = "2015-11-30 00:46:20 +0000";
layers = (
{
layerId = "8C3E11F2-14C8-42F3-9A0B-AF341C1B554F";
name = Regular;
paths = (
{
closed = 1;
nodes = (
"409 0 LINE SMOOTH",
"524 0 OFFCURVE",
"618 74 OFFCURVE",
"618 201 CURVE SMOOTH",
"618 288 OFFCURVE",
"579 339 OFFCURVE",
"509 362 CURVE",
"560 389 OFFCURVE",
"595 444 OFFCURVE",
"595 511 CURVE SMOOTH",
"595 636 OFFCURVE",
"518 699 OFFCURVE",
"392 699 CURVE SMOOTH",
"60 699 LINE",
"60 0 LINE"
);
},
{
closed = 1;
nodes = (
"186 306 LINE",
"373 306 LINE SMOOTH",
"446 306 OFFCURVE",
"490 277 OFFCURVE",
"490 200 CURVE SMOOTH",
"490 121 OFFCURVE",
"445 100 OFFCURVE",
"380 100 CURVE SMOOTH",
"186 100 LINE"
);
},
{
closed = 1;
nodes = (
"186 599 LINE",
"366 599 LINE SMOOTH",
"427 599 OFFCURVE",
"467 582 OFFCURVE",
"467 503 CURVE SMOOTH",
"467 435 OFFCURVE",
"425 408 OFFCURVE",
"372 408 CURVE SMOOTH",
"186 408 LINE"
);
}
);
width = 658;
}
);
note = B;
unicode = 0042;
},
{
glyphname = C;
lastChange = "2015-11-30 00:46:14 +0000";
layers = (
{
layerId = "8C3E11F2-14C8-42F3-9A0B-AF341C1B554F";
name = Regular;
paths = (
{
closed = 1;
nodes = (
"514 -15 OFFCURVE",
"599 6 OFFCURVE",
"664 57 CURVE",
"664 178 LINE",
"597 122 OFFCURVE",
"521 100 OFFCURVE",
"425 100 CURVE SMOOTH",
"273 100 OFFCURVE",
"168 195 OFFCURVE",
"168 349 CURVE SMOOTH",
"168 502 OFFCURVE",
"271 598 OFFCURVE",
"425 598 CURVE SMOOTH",
"517 598 OFFCURVE",
"595 576 OFFCURVE",
"656 524 CURVE",
"656 645 LINE",
"590 692 OFFCURVE",
"512 714 OFFCURVE",
"414 714 CURVE SMOOTH",
"193 714 OFFCURVE",
"40 572 OFFCURVE",
"40 349 CURVE SMOOTH",
"40 126 OFFCURVE",
"193 -15 OFFCURVE",
"414 -15 CURVE SMOOTH"
);
}
);
width = 704;
}
);
leftKerningGroup = C;
note = C;
rightKerningGroup = C;
unicode = 0043;
},
{
glyphname = Cacute;
lastChange = "2015-11-30 00:46:18 +0000";
layers = (
{
layerId = "8C3E11F2-14C8-42F3-9A0B-AF341C1B554F";
name = Regular;
paths = (
{
closed = 1;
nodes = (
"514 -15 OFFCURVE",
"599 6 OFFCURVE",
"664 57 CURVE",
"664 178 LINE",
"597 122 OFFCURVE",
"521 100 OFFCURVE",
"425 100 CURVE SMOOTH",
"273 100 OFFCURVE",
"168 195 OFFCURVE",
"168 349 CURVE SMOOTH",
"168 502 OFFCURVE",
"271 598 OFFCURVE",
"425 598 CURVE SMOOTH",
"517 598 OFFCURVE",
"595 576 OFFCURVE",
"656 524 CURVE",
"656 645 LINE",
"590 692 OFFCURVE",
"512 714 OFFCURVE",
"414 714 CURVE SMOOTH",
"193 714 OFFCURVE",
"40 572 OFFCURVE",
"40 349 CURVE SMOOTH",
"40 126 OFFCURVE",
"193 -15 OFFCURVE",
"414 -15 CURVE SMOOTH"
);
},
{
closed = 1;
nodes = (
"463 742 LINE",
"549 916 LINE",
"416 916 LINE",
"347 742 LINE"
);
}
);
width = 704;
}
);
leftKerningGroup = C;
note = Cacute;
rightKerningGroup = C;
unicode = 0106;
},
{
glyphname = Ccaron;
lastChange = "2015-11-30 00:46:21 +0000";
layers = (
{
layerId = "8C3E11F2-14C8-42F3-9A0B-AF341C1B554F";
name = Regular;
paths = (
{
closed = 1;
nodes = (
"514 -15 OFFCURVE",
"599 6 OFFCURVE",
"664 57 CURVE",
"664 178 LINE",
"597 122 OFFCURVE",
"521 100 OFFCURVE",
"425 100 CURVE SMOOTH",
"273 100 OFFCURVE",
"168 195 OFFCURVE",
"168 349 CURVE SMOOTH",
"168 502 OFFCURVE",
"271 598 OFFCURVE",
"425 598 CURVE SMOOTH",
"517 598 OFFCURVE",
"595 576 OFFCURVE",
"656 524 CURVE",
"656 645 LINE",
"590 692 OFFCURVE",
"512 714 OFFCURVE",
"414 714 CURVE SMOOTH",
"193 714 OFFCURVE",
"40 572 OFFCURVE",
"40 349 CURVE SMOOTH",
"40 126 OFFCURVE",
"193 -15 OFFCURVE",
"414 -15 CURVE SMOOTH"
);
},
{
closed = 1;
nodes = (
"462 742 LINE",
"608 913 LINE",
"482 913 LINE",
"406 813 LINE",
"330 913 LINE",
"203 913 LINE",
"350 742 LINE"
);
}
);
width = 704;
}
);
leftKerningGroup = C;
note = Ccaron;
rightKerningGroup = C;
unicode = 010C;
},
{
glyphname = Ccedilla;
lastChange = "2015-11-30 00:46:20 +0000";
layers = (
{
layerId = "8C3E11F2-14C8-42F3-9A0B-AF341C1B554F";
name = Regular;
paths = (
{
closed = 1;
nodes = (
"514 -15 OFFCURVE",
"599 6 OFFCURVE",
"664 57 CURVE",
"664 178 LINE",
"597 122 OFFCURVE",
"521 100 OFFCURVE",
"425 100 CURVE SMOOTH",
"273 100 OFFCURVE",
"168 195 OFFCURVE",
"168 349 CURVE SMOOTH",
"168 502 OFFCURVE",
"271 598 OFFCURVE",
"425 598 CURVE SMOOTH",
"517 598 OFFCURVE",
"595 576 OFFCURVE",
"656 524 CURVE",
"656 645 LINE",
"590 692 OFFCURVE",
"512 714 OFFCURVE",
"414 714 CURVE SMOOTH",
"193 714 OFFCURVE",
"40 572 OFFCURVE",
"40 349 CURVE SMOOTH",
"40 126 OFFCURVE",
"193 -15 OFFCURVE",
"414 -15 CURVE SMOOTH"
);
},
{
closed = 1;
nodes = (
"497 -248 OFFCURVE",
"554 -213 OFFCURVE",
"554 -150 CURVE SMOOTH",
"554 -97 OFFCURVE",
"522 -59 OFFCURVE",
"464 -52 CURVE",
"484 0 LINE",
"371 0 LINE",
"338 -85 LINE",
"411 -85 OFFCURVE",
"437 -108 OFFCURVE",
"437 -138 CURVE SMOOTH",
"437 -166 OFFCURVE",
"416 -179 OFFCURVE",
"378 -179 CURVE SMOOTH",
"358 -179 OFFCURVE",
"334 -174 OFFCURVE",
"320 -167 CURVE",
"319 -236 LINE",
"337 -243 OFFCURVE",
"373 -248 OFFCURVE",
"410 -248 CURVE SMOOTH"
);
}
);
width = 704;
}
);
leftKerningGroup = C;
note = Ccedilla;
rightKerningGroup = C;
unicode = 00C7;
},
{
glyphname = Ccircumflex;
lastChange = "2015-11-30 00:46:18 +0000";
layers = (
{
layerId = "8C3E11F2-14C8-42F3-9A0B-AF341C1B554F";
name = Regular;
paths = (
{
closed = 1;
nodes = (
"514 -15 OFFCURVE",
"599 6 OFFCURVE",
"664 57 CURVE",
"664 178 LINE",
"597 122 OFFCURVE",
"521 100 OFFCURVE",
"425 100 CURVE SMOOTH",
"273 100 OFFCURVE",
"168 195 OFFCURVE",
"168 349 CURVE SMOOTH",
"168 502 OFFCURVE",
"271 598 OFFCURVE",
"425 598 CURVE SMOOTH",
"517 598 OFFCURVE",
"595 576 OFFCURVE",
"656 524 CURVE",
"656 645 LINE",
"590 692 OFFCURVE",
"512 714 OFFCURVE",
"414 714 CURVE SMOOTH",
"193 714 OFFCURVE",
"40 572 OFFCURVE",
"40 349 CURVE SMOOTH",
"40 126 OFFCURVE",
"193 -15 OFFCURVE",
"414 -15 CURVE SMOOTH"
);
},
{
closed = 1;
nodes = (
"330 742 LINE",
"406 841 LINE",
"482 742 LINE",
"608 742 LINE",
"462 913 LINE",
"350 913 LINE",
"203 742 LINE"
);
}
);
width = 704;
}
);
leftKerningGroup = C;
note = Ccircumflex;
rightKerningGroup = C;
unicode = 0108;
},
{
glyphname = Cdotaccent;
lastChange = "2015-11-30 00:46:21 +0000";
layers = (
{
layerId = "8C3E11F2-14C8-42F3-9A0B-AF341C1B554F";
name = Regular;
paths = (
{
closed = 1;
nodes = (
"514 -15 OFFCURVE",
"599 6 OFFCURVE",
"664 57 CURVE",
"664 178 LINE",
"597 122 OFFCURVE",
"521 100 OFFCURVE",
"425 100 CURVE SMOOTH",
"273 100 OFFCURVE",
"168 195 OFFCURVE",
"168 349 CURVE SMOOTH",
"168 502 OFFCURVE",
"271 598 OFFCURVE",
"425 598 CURVE SMOOTH",
"517 598 OFFCURVE",
"595 576 OFFCURVE",
"656 524 CURVE",
"656 645 LINE",
"590 692 OFFCURVE",
"512 714 OFFCURVE",
"414 714 CURVE SMOOTH",
"193 714 OFFCURVE",
"40 572 OFFCURVE",
"40 349 CURVE SMOOTH",
"40 126 OFFCURVE",
"193 -15 OFFCURVE",
"414 -15 CURVE SMOOTH"
);
},
{
closed = 1;
nodes = (
"438 752 OFFCURVE",
"468 781 OFFCURVE",
"468 818 CURVE SMOOTH",
"468 855 OFFCURVE",
"438 885 OFFCURVE",
"402 885 CURVE SMOOTH",
"366 885 OFFCURVE",
"335 855 OFFCURVE",
"335 818 CURVE SMOOTH",
"335 781 OFFCURVE",
"366 752 OFFCURVE",
"402 752 CURVE SMOOTH"
);
}
);
width = 704;
}
);
leftKerningGroup = C;
note = Cdotaccent;
rightKerningGroup = C;
unicode = 010A;
},
{
glyphname = D;
lastChange = "2015-11-30 00:46:20 +0000";
layers = (
{
layerId = "8C3E11F2-14C8-42F3-9A0B-AF341C1B554F";
name = Regular;
paths = (
{
closed = 1;
nodes = (
"283 0 LINE SMOOTH",
"519 0 OFFCURVE",
"666 116 OFFCURVE",
"666 353 CURVE SMOOTH",
"666 566 OFFCURVE",
"523 699 OFFCURVE",
"294 699 CURVE SMOOTH",
"60 699 LINE",
"60 0 LINE"
);
},
{
closed = 1;
nodes = (
"187 594 LINE",
"298 594 LINE SMOOTH",
"448 594 OFFCURVE",
"538 495 OFFCURVE",
"538 353 CURVE SMOOTH",
"538 199 OFFCURVE",
"450 105 OFFCURVE",
"285 105 CURVE SMOOTH",
"187 105 LINE"
);
}
);
width = 706;
}
);
note = D;
rightKerningGroup = D;
unicode = 0044;
},
{
glyphname = Eth;
lastChange = "2015-11-30 00:46:21 +0000";
layers = (
{
layerId = "8C3E11F2-14C8-42F3-9A0B-AF341C1B554F";
name = Regular;
paths = (
{
closed = 1;
nodes = (
"302 0 LINE SMOOTH",
"538 0 OFFCURVE",
"685 116 OFFCURVE",
"685 353 CURVE SMOOTH",
"685 566 OFFCURVE",
"542 699 OFFCURVE",
"313 699 CURVE SMOOTH",
"79 699 LINE",
"79 397 LINE",
"20 397 LINE",
"20 301 LINE",
"79 301 LINE",
"79 0 LINE"
);
},
{
closed = 1;
nodes = (
"206 301 LINE",
"378 301 LINE",
"378 397 LINE",
"206 397 LINE",
"206 594 LINE",
"317 594 LINE SMOOTH",
"467 594 OFFCURVE",
"557 495 OFFCURVE",
"557 353 CURVE SMOOTH",
"557 199 OFFCURVE",
"469 105 OFFCURVE",
"304 105 CURVE SMOOTH",
"206 105 LINE"
);
}
);
width = 725;
}
);
note = Eth;
rightKerningGroup = D;
unicode = 00D0;
},
{
glyphname = Dcaron;
lastChange = "2015-11-30 00:46:20 +0000";
layers = (
{
layerId = "8C3E11F2-14C8-42F3-9A0B-AF341C1B554F";
name = Regular;
paths = (
{
closed = 1;
nodes = (
"283 0 LINE SMOOTH",
"519 0 OFFCURVE",
"666 116 OFFCURVE",
"666 353 CURVE SMOOTH",
"666 566 OFFCURVE",
"523 699 OFFCURVE",
"294 699 CURVE SMOOTH",
"60 699 LINE",
"60 0 LINE"
);
},
{
closed = 1;
nodes = (
"187 594 LINE",
"298 594 LINE SMOOTH",
"448 594 OFFCURVE",
"538 495 OFFCURVE",
"538 353 CURVE SMOOTH",
"538 199 OFFCURVE",
"450 105 OFFCURVE",
"285 105 CURVE SMOOTH",
"187 105 LINE"
);
},
{
closed = 1;
nodes = (
"387 742 LINE",
"533 913 LINE",
"407 913 LINE",
"331 813 LINE",
"255 913 LINE",
"128 913 LINE",
"275 742 LINE"
);
}
);
width = 706;
}
);
note = Dcaron;
rightKerningGroup = D;
unicode = 010E;
},
{
glyphname = Dcroat;
lastChange = "2015-11-30 00:46:21 +0000";
layers = (
{
layerId = "8C3E11F2-14C8-42F3-9A0B-AF341C1B554F";
name = Regular;
paths = (
{
closed = 1;
nodes = (
"302 0 LINE SMOOTH",
"538 0 OFFCURVE",
"685 116 OFFCURVE",
"685 353 CURVE SMOOTH",
"685 566 OFFCURVE",
"542 699 OFFCURVE",
"313 699 CURVE SMOOTH",
"79 699 LINE",
"79 397 LINE",
"20 397 LINE",
"20 301 LINE",
"79 301 LINE",
"79 0 LINE"
);
},
{
closed = 1;
nodes = (
"206 301 LINE",
"378 301 LINE",
"378 397 LINE",
"206 397 LINE",
"206 594 LINE",
"317 594 LINE SMOOTH",
"467 594 OFFCURVE",
"557 495 OFFCURVE",
"557 353 CURVE SMOOTH",
"557 199 OFFCURVE",
"469 105 OFFCURVE",
"304 105 CURVE SMOOTH",
"206 105 LINE"
);
}
);
width = 725;
}
);
note = Dcroat;
rightKerningGroup = D;
unicode = 0110;
},
{
glyphname = Ddotbelow;
lastChange = "2015-11-30 00:46:21 +0000";
layers = (
{
layerId = "8C3E11F2-14C8-42F3-9A0B-AF341C1B554F";
name = Regular;
paths = (
{
closed = 1;
nodes = (
"283 0 LINE SMOOTH",
"519 0 OFFCURVE",
"666 116 OFFCURVE",
"666 353 CURVE SMOOTH",
"666 566 OFFCURVE",
"523 699 OFFCURVE",
"294 699 CURVE SMOOTH",
"60 699 LINE",
"60 0 LINE"
);
},
{
closed = 1;
nodes = (
"313 -179 OFFCURVE",
"343 -150 OFFCURVE",
"343 -113 CURVE SMOOTH",
"343 -76 OFFCURVE",
"313 -46 OFFCURVE",
"277 -46 CURVE SMOOTH",
"241 -46 OFFCURVE",
"210 -76 OFFCURVE",
"210 -113 CURVE SMOOTH",
"210 -150 OFFCURVE",
"241 -179 OFFCURVE",
"277 -179 CURVE SMOOTH"
);
},
{
closed = 1;
nodes = (
"187 594 LINE",
"298 594 LINE SMOOTH",
"448 594 OFFCURVE",
"538 495 OFFCURVE",
"538 353 CURVE SMOOTH",
"538 199 OFFCURVE",
"450 105 OFFCURVE",
"285 105 CURVE SMOOTH",
"187 105 LINE"
);
}
);
width = 706;
}
);
note = Ddotbelow;
rightKerningGroup = D;
unicode = 1E0C;
},
{
glyphname = Dlinebelow;
lastChange = "2015-11-30 00:46:20 +0000";
layers = (
{
layerId = "8C3E11F2-14C8-42F3-9A0B-AF341C1B554F";
name = Regular;
paths = (
{
closed = 1;
nodes = (
"283 0 LINE SMOOTH",
"519 0 OFFCURVE",
"666 116 OFFCURVE",
"666 353 CURVE SMOOTH",
"666 566 OFFCURVE",
"523 699 OFFCURVE",
"294 699 CURVE SMOOTH",
"60 699 LINE",
"60 0 LINE"
);
},
{
closed = 1;
nodes = (
"456 -151 LINE",
"456 -68 LINE",
"133 -68 LINE",
"133 -151 LINE"
);
},
{
closed = 1;
nodes = (
"187 594 LINE",
"298 594 LINE SMOOTH",
"448 594 OFFCURVE",
"538 495 OFFCURVE",
"538 353 CURVE SMOOTH",
"538 199 OFFCURVE",
"450 105 OFFCURVE",
"285 105 CURVE SMOOTH",
"187 105 LINE"
);
}
);
width = 706;
}
);
note = Dlinebelow;
rightKerningGroup = D;
unicode = 1E0E;
},
{
glyphname = E;
lastChange = "2015-11-30 00:46:14 +0000";
layers = (
{
layerId = "8C3E11F2-14C8-42F3-9A0B-AF341C1B554F";
name = Regular;
paths = (
{
closed = 1;
nodes = (
"533 0 LINE",
"533 105 LINE",
"187 105 LINE",
"187 297 LINE",
"444 297 LINE",
"444 402 LINE",
"187 402 LINE",
"187 594 LINE",
"533 594 LINE",
"533 699 LINE",
"60 699 LINE",
"60 0 LINE"
);
}
);
width = 563;
}
);
leftKerningGroup = E;
note = E;
rightKerningGroup = E;
unicode = 0045;
},
{
glyphname = Eacute;
lastChange = "2015-11-30 00:46:21 +0000";
layers = (
{
layerId = "8C3E11F2-14C8-42F3-9A0B-AF341C1B554F";
name = Regular;
paths = (
{
closed = 1;
nodes = (
"533 0 LINE",
"533 105 LINE",
"187 105 LINE",
"187 297 LINE",
"444 297 LINE",
"444 402 LINE",
"187 402 LINE",
"187 594 LINE",
"533 594 LINE",
"533 699 LINE",
"60 699 LINE",
"60 0 LINE"
);
},
{
closed = 1;
nodes = (
"334 742 LINE",
"420 916 LINE",
"287 916 LINE",
"218 742 LINE"
);
}
);
width = 563;
}
);
leftKerningGroup = E;
note = Eacute;
rightKerningGroup = E;
unicode = 00C9;
},
{
glyphname = Ebreve;
lastChange = "2015-11-30 00:46:19 +0000";
layers = (
{
layerId = "8C3E11F2-14C8-42F3-9A0B-AF341C1B554F";
name = Regular;
paths = (
{
closed = 1;
nodes = (
"533 0 LINE",
"533 105 LINE",
"187 105 LINE",
"187 297 LINE",
"444 297 LINE",
"444 402 LINE",
"187 402 LINE",
"187 594 LINE",
"533 594 LINE",
"533 699 LINE",
"60 699 LINE",
"60 0 LINE"
);
},
{
closed = 1;
nodes = (
"411 742 OFFCURVE",
"471 803 OFFCURVE",
"471 893 CURVE",
"376 893 LINE",
"376 849 OFFCURVE",
"352 826 OFFCURVE",
"310 826 CURVE SMOOTH",
"268 826 OFFCURVE",
"244 849 OFFCURVE",
"244 893 CURVE",
"149 893 LINE",
"149 803 OFFCURVE",
"209 742 OFFCURVE",
"310 742 CURVE SMOOTH"
);
}
);
width = 573;
}
);
leftKerningGroup = E;
note = Ebreve;
rightKerningGroup = E;
unicode = 0114;
},
{
glyphname = Ecaron;
lastChange = "2015-11-30 00:46:19 +0000";
layers = (
{
layerId = "8C3E11F2-14C8-42F3-9A0B-AF341C1B554F";
name = Regular;
paths = (
{
closed = 1;
nodes = (
"533 0 LINE",
"533 105 LINE",
"187 105 LINE",
"187 297 LINE",
"444 297 LINE",
"444 402 LINE",
"187 402 LINE",
"187 594 LINE",
"533 594 LINE",
"533 699 LINE",
"60 699 LINE",
"60 0 LINE"
);
},
{
closed = 1;
nodes = (
"371 742 LINE",
"517 913 LINE",
"391 913 LINE",
"315 813 LINE",
"239 913 LINE",
"112 913 LINE",
"259 742 LINE"
);
}
);
width = 573;
}
);
leftKerningGroup = E;
note = Ecaron;
rightKerningGroup = E;
unicode = 011A;
},
{
glyphname = Ecircumflex;
lastChange = "2015-11-30 00:46:20 +0000";
layers = (
{
layerId = "8C3E11F2-14C8-42F3-9A0B-AF341C1B554F";
name = Regular;
paths = (
{
closed = 1;
nodes = (
"533 0 LINE",
"533 105 LINE",
"187 105 LINE",
"187 297 LINE",
"444 297 LINE",
"444 402 LINE",
"187 402 LINE",
"187 594 LINE",
"533 594 LINE",
"533 699 LINE",
"60 699 LINE",
"60 0 LINE"
);
},
{
closed = 1;
nodes = (
"206 742 LINE",
"282 841 LINE",
"358 742 LINE",
"484 742 LINE",
"338 913 LINE",
"226 913 LINE",
"79 742 LINE"
);
}
);
width = 573;
}
);
leftKerningGroup = E;
note = Ecircumflex;
rightKerningGroup = E;
unicode = 00CA;
},
{
glyphname = Ecircumflexacute;
lastChange = "2015-11-30 00:46:21 +0000";
layers = (
{
layerId = "8C3E11F2-14C8-42F3-9A0B-AF341C1B554F";
name = Regular;
paths = (
{
closed = 1;
nodes = (
"533 0 LINE",
"533 105 LINE",
"187 105 LINE",
"187 297 LINE",
"444 297 LINE",
"444 402 LINE",
"187 402 LINE",
"187 594 LINE",
"533 594 LINE",
"533 699 LINE",
"60 699 LINE",
"60 0 LINE"
);
},
{
closed = 1;
nodes = (
"206 742 LINE",
"278 826 LINE",
"350 742 LINE",
"469 742 LINE",
"331 894 LINE",
"225 894 LINE",
"86 742 LINE"
);
},
{
closed = 1;
nodes = (
"515 841 LINE",
"592 969 LINE",
"475 969 LINE",
"414 841 LINE"
);
}
);
width = 563;
}
);
leftKerningGroup = E;
note = Ecircumflexacute;
rightKerningGroup = E;
unicode = 1EBE;
},
{
glyphname = Ecircumflexdotbelow;
lastChange = "2015-11-30 00:46:21 +0000";
layers = (
{
layerId = "8C3E11F2-14C8-42F3-9A0B-AF341C1B554F";
name = Regular;
paths = (
{
closed = 1;
nodes = (
"535 0 LINE",
"535 105 LINE",
"189 105 LINE",
"189 297 LINE",
"446 297 LINE",
"446 402 LINE",
"189 402 LINE",
"189 594 LINE",
"535 594 LINE",
"535 699 LINE",
"62 699 LINE",
"62 0 LINE"
);
},
{
closed = 1;
nodes = (
"330 -179 OFFCURVE",
"360 -150 OFFCURVE",
"360 -113 CURVE SMOOTH",
"360 -76 OFFCURVE",
"330 -46 OFFCURVE",
"294 -46 CURVE SMOOTH",
"258 -46 OFFCURVE",
"227 -76 OFFCURVE",
"227 -113 CURVE SMOOTH",
"227 -150 OFFCURVE",
"258 -179 OFFCURVE",
"294 -179 CURVE SMOOTH"
);
},
{
closed = 1;
nodes = (
"217 742 LINE",
"293 841 LINE",
"369 742 LINE",
"495 742 LINE",
"349 913 LINE",
"237 913 LINE",
"90 742 LINE"
);
}
);
width = 575;
}
);
leftKerningGroup = E;
note = Ecircumflexdotbelow;
rightKerningGroup = E;
unicode = 1EC6;
},
{
glyphname = Ecircumflexgrave;
lastChange = "2015-11-30 00:46:20 +0000";
layers = (
{
layerId = "8C3E11F2-14C8-42F3-9A0B-AF341C1B554F";
name = Regular;
paths = (
{
closed = 1;
nodes = (
"533 0 LINE",
"533 105 LINE",
"187 105 LINE",
"187 297 LINE",
"444 297 LINE",
"444 402 LINE",
"187 402 LINE",
"187 594 LINE",
"533 594 LINE",
"533 699 LINE",
"60 699 LINE",
"60 0 LINE"
);
},
{
closed = 1;
nodes = (
"163 841 LINE",
"102 969 LINE",
"-15 969 LINE",
"62 841 LINE"
);
},
{
closed = 1;
nodes = (
"227 742 LINE",
"299 826 LINE",
"371 742 LINE",
"491 742 LINE",
"352 894 LINE",
"246 894 LINE",
"108 742 LINE"
);
}
);
width = 563;
}
);
leftKerningGroup = E;
note = Ecircumflexgrave;
rightKerningGroup = E;
unicode = 1EC0;
},
{
glyphname = Ecircumflexhookabove;
lastChange = "2015-11-30 00:46:19 +0000";
layers = (
{
layerId = "8C3E11F2-14C8-42F3-9A0B-AF341C1B554F";
name = Regular;
paths = (
{
closed = 1;
nodes = (
"533 0 LINE",
"533 105 LINE",
"187 105 LINE",
"187 297 LINE",
"444 297 LINE",
"444 402 LINE",
"187 402 LINE",
"187 594 LINE",
"533 594 LINE",
"533 699 LINE",
"60 699 LINE",
"60 0 LINE"
);
},
{
closed = 1;
nodes = (
"225 742 LINE",
"297 826 LINE",
"369 742 LINE",
"488 742 LINE",
"350 894 LINE",
"244 894 LINE",
"105 742 LINE"
);
},
{
closed = 1;
nodes = (
"512 830 LINE",
"512 854 LINE",
"552 861 OFFCURVE",
"576 885 OFFCURVE",
"576 919 CURVE SMOOTH",
"576 961 OFFCURVE",
"539 989 OFFCURVE",
"479 989 CURVE SMOOTH",
"455 989 OFFCURVE",
"425 984 OFFCURVE",
"407 978 CURVE",
"407 929 LINE",
"417 934 OFFCURVE",
"434 937 OFFCURVE",
"448 937 CURVE SMOOTH",
"476 937 OFFCURVE",
"490 932 OFFCURVE",
"490 911 CURVE SMOOTH",
"490 887 OFFCURVE",
"471 880 OFFCURVE",
"433 880 CURVE",
"433 830 LINE"
);
}
);
width = 563;
}
);
leftKerningGroup = E;
note = Ecircumflexhookabove;
rightKerningGroup = E;
unicode = 1EC2;
},
{
glyphname = Ecircumflextilde;
lastChange = "2015-11-30 00:46:21 +0000";
layers = (
{
layerId = "8C3E11F2-14C8-42F3-9A0B-AF341C1B554F";
name = Regular;
paths = (
{
closed = 1;
nodes = (
"533 0 LINE",
"533 105 LINE",
"187 105 LINE",
"187 297 LINE",
"444 297 LINE",
"444 402 LINE",
"187 402 LINE",
"187 594 LINE",
"533 594 LINE",
"533 699 LINE",
"60 699 LINE",
"60 0 LINE"
);
},
{
closed = 1;
nodes = (
"228 742 LINE",
"300 826 LINE",
"372 742 LINE",
"491 742 LINE",
"353 894 LINE",
"247 894 LINE",
"108 742 LINE"
);
},
{
closed = 1;
nodes = (
"415 906 OFFCURVE",
"441 916 OFFCURVE",
"458 940 CURVE",
"458 1030 LINE",
"436 999 OFFCURVE",
"411 988 OFFCURVE",
"380 988 CURVE SMOOTH",
"332 988 OFFCURVE",
"276 1031 OFFCURVE",
"226 1031 CURVE SMOOTH",
"191 1031 OFFCURVE",
"165 1021 OFFCURVE",
"148 996 CURVE",
"148 907 LINE",
"171 938 OFFCURVE",
"195 949 OFFCURVE",
"226 949 CURVE SMOOTH",
"273 949 OFFCURVE",
"326 906 OFFCURVE",
"380 906 CURVE SMOOTH"
);
}
);
width = 573;
}
);
leftKerningGroup = E;
note = Ecircumflextilde;
rightKerningGroup = E;
unicode = 1EC4;
},
{
glyphname = Edieresis;
lastChange = "2015-11-30 00:46:20 +0000";
layers = (
{
layerId = "8C3E11F2-14C8-42F3-9A0B-AF341C1B554F";
name = Regular;
paths = (
{
closed = 1;
nodes = (
"533 0 LINE",
"533 105 LINE",
"187 105 LINE",
"187 297 LINE",
"444 297 LINE",
"444 402 LINE",
"187 402 LINE",
"187 594 LINE",
"533 594 LINE",
"533 699 LINE",
"60 699 LINE",
"60 0 LINE"
);
},
{
closed = 1;
nodes = (
"207 752 OFFCURVE",
"237 781 OFFCURVE",
"237 818 CURVE SMOOTH",
"237 855 OFFCURVE",
"207 885 OFFCURVE",
"171 885 CURVE SMOOTH",
"135 885 OFFCURVE",
"104 855 OFFCURVE",
"104 818 CURVE SMOOTH",
"104 781 OFFCURVE",
"135 752 OFFCURVE",
"171 752 CURVE SMOOTH"
);
},
{
closed = 1;
nodes = (
"444 752 OFFCURVE",
"474 781 OFFCURVE",
"474 818 CURVE SMOOTH",
"474 855 OFFCURVE",
"444 885 OFFCURVE",
"408 885 CURVE SMOOTH",
"372 885 OFFCURVE",
"341 855 OFFCURVE",
"341 818 CURVE SMOOTH",
"341 781 OFFCURVE",
"372 752 OFFCURVE",
"408 752 CURVE SMOOTH"
);
}
);
width = 573;
}
);
leftKerningGroup = E;
note = Edieresis;
rightKerningGroup = E;
unicode = 00CB;
},
{
glyphname = Edotaccent;
lastChange = "2015-11-30 00:46:20 +0000";
layers = (
{
layerId = "8C3E11F2-14C8-42F3-9A0B-AF341C1B554F";
name = Regular;
paths = (
{
closed = 1;
nodes = (
"533 0 LINE",
"533 105 LINE",
"187 105 LINE",
"187 297 LINE",
"444 297 LINE",
"444 402 LINE",
"187 402 LINE",
"187 594 LINE",
"533 594 LINE",
"533 699 LINE",
"60 699 LINE",
"60 0 LINE"
);
},
{
closed = 1;
nodes = (
"344 752 OFFCURVE",
"374 781 OFFCURVE",
"374 818 CURVE SMOOTH",
"374 855 OFFCURVE",
"344 885 OFFCURVE",
"308 885 CURVE SMOOTH",
"272 885 OFFCURVE",
"241 855 OFFCURVE",
"241 818 CURVE SMOOTH",
"241 781 OFFCURVE",
"272 752 OFFCURVE",
"308 752 CURVE SMOOTH"
);
}
);
width = 573;
}
);
leftKerningGroup = E;
note = Edotaccent;
rightKerningGroup = E;
unicode = 0116;
},
{
glyphname = Edotbelow;
lastChange = "2015-11-30 00:46:21 +0000";
layers = (
{
layerId = "8C3E11F2-14C8-42F3-9A0B-AF341C1B554F";
name = Regular;
paths = (
{
closed = 1;
nodes = (
"533 0 LINE",
"533 105 LINE",
"187 105 LINE",
"187 297 LINE",
"444 297 LINE",
"444 402 LINE",
"187 402 LINE",
"187 594 LINE",
"533 594 LINE",
"533 699 LINE",
"60 699 LINE",
"60 0 LINE"
);
},
{
closed = 1;
nodes = (
"329 -179 OFFCURVE",
"359 -150 OFFCURVE",
"359 -113 CURVE SMOOTH",
"359 -76 OFFCURVE",
"329 -46 OFFCURVE",
"293 -46 CURVE SMOOTH",
"257 -46 OFFCURVE",
"226 -76 OFFCURVE",
"226 -113 CURVE SMOOTH",
"226 -150 OFFCURVE",
"257 -179 OFFCURVE",
"293 -179 CURVE SMOOTH"
);
}
);
width = 573;
}
);
leftKerningGroup = E;
note = Edotbelow;
rightKerningGroup = E;
unicode = 1EB8;
},
{
glyphname = Egrave;
lastChange = "2015-11-30 00:46:19 +0000";
layers = (
{
layerId = "8C3E11F2-14C8-42F3-9A0B-AF341C1B554F";
name = Regular;
paths = (
{
closed = 1;
nodes = (
"533 0 LINE",
"533 105 LINE",
"187 105 LINE",
"187 297 LINE",
"444 297 LINE",
"444 402 LINE",
"187 402 LINE",
"187 594 LINE",
"533 594 LINE",
"533 699 LINE",
"60 699 LINE",
"60 0 LINE"
);
},
{
closed = 1;
nodes = (
"355 742 LINE",
"286 916 LINE",
"153 916 LINE",
"239 742 LINE"
);
}
);
width = 573;
}
);
leftKerningGroup = E;
note = Egrave;
rightKerningGroup = E;
unicode = 00C8;
},
{
glyphname = Ehookabove;
lastChange = "2015-11-30 00:46:21 +0000";
layers = (
{
layerId = "8C3E11F2-14C8-42F3-9A0B-AF341C1B554F";
name = Regular;
paths = (
{
closed = 1;
nodes = (
"533 0 LINE",
"533 105 LINE",
"187 105 LINE",
"187 297 LINE",
"444 297 LINE",
"444 402 LINE",
"187 402 LINE",
"187 594 LINE",
"533 594 LINE",
"533 699 LINE",
"60 699 LINE",
"60 0 LINE"
);
},
{
closed = 1;
nodes = (
"343 742 LINE",
"343 776 LINE",
"402 785 OFFCURVE",
"434 822 OFFCURVE",
"434 870 CURVE SMOOTH",
"434 929 OFFCURVE",
"388 970 OFFCURVE",
"294 970 CURVE SMOOTH",
"258 970 OFFCURVE",
"219 963 OFFCURVE",
"196 956 CURVE",
"196 890 LINE",
"209 896 OFFCURVE",
"246 902 OFFCURVE",
"262 902 CURVE SMOOTH",
"307 902 OFFCURVE",
"324 891 OFFCURVE",
"324 865 CURVE SMOOTH",
"324 827 OFFCURVE",
"289 816 OFFCURVE",
"233 816 CURVE",
"233 742 LINE"
);
}
);
width = 573;
}
);
leftKerningGroup = E;
note = Ehookabove;
rightKerningGroup = E;
unicode = 1EBA;
},
{
glyphname = Emacron;
lastChange = "2015-11-30 00:46:21 +0000";
layers = (
{
layerId = "8C3E11F2-14C8-42F3-9A0B-AF341C1B554F";
name = Regular;
paths = (
{
closed = 1;
nodes = (
"533 0 LINE",
"533 105 LINE",
"187 105 LINE",
"187 297 LINE",
"444 297 LINE",
"444 402 LINE",
"187 402 LINE",
"187 594 LINE",
"533 594 LINE",
"533 699 LINE",
"60 699 LINE",
"60 0 LINE"
);
},
{
closed = 1;
nodes = (
"465 752 LINE",
"465 836 LINE",
"142 836 LINE",
"142 752 LINE"
);
}
);
width = 573;
}
);
leftKerningGroup = E;
note = Emacron;
rightKerningGroup = E;
unicode = 0112;
},
{
glyphname = Eogonek;
lastChange = "2015-11-30 00:46:21 +0000";
layers = (
{
layerId = "8C3E11F2-14C8-42F3-9A0B-AF341C1B554F";
name = Regular;
paths = (
{
closed = 1;
nodes = (
"533 0 LINE",
"533 105 LINE",
"187 105 LINE",
"187 297 LINE",
"444 297 LINE",
"444 402 LINE",
"187 402 LINE",
"187 594 LINE",
"533 594 LINE",
"533 699 LINE",
"60 699 LINE",
"60 0 LINE"
);
},
{
closed = 1;
nodes = (
"479 -213 OFFCURVE",
"512 -208 OFFCURVE",
"533 -200 CURVE",
"533 -128 LINE",
"519 -135 OFFCURVE",
"502 -139 OFFCURVE",
"485 -139 CURVE SMOOTH",
"461 -139 OFFCURVE",
"444 -125 OFFCURVE",
"444 -99 CURVE SMOOTH",
"444 -61 OFFCURVE",
"471 -31 OFFCURVE",
"523 0 CURVE",
"407 0 LINE",
"365 -26 OFFCURVE",
"334 -68 OFFCURVE",
"334 -121 CURVE SMOOTH",
"334 -184 OFFCURVE",
"383 -213 OFFCURVE",
"446 -213 CURVE SMOOTH"
);
}
);
width = 573;
}
);
leftKerningGroup = E;
note = Eogonek;
rightKerningGroup = E;
unicode = 0118;
},
{
glyphname = Etilde;
lastChange = "2015-11-30 00:46:20 +0000";
layers = (
{
layerId = "8C3E11F2-14C8-42F3-9A0B-AF341C1B554F";
name = Regular;
paths = (
{
closed = 1;
nodes = (
"533 0 LINE",
"533 105 LINE",
"187 105 LINE",
"187 297 LINE",
"444 297 LINE",
"444 402 LINE",
"187 402 LINE",
"187 594 LINE",
"533 594 LINE",
"533 699 LINE",
"60 699 LINE",
"60 0 LINE"
);
},
{
closed = 1;
nodes = (
"130 781 OFFCURVE",
"163 794 OFFCURVE",
"200 794 CURVE SMOOTH",
"264 794 OFFCURVE",
"316 744 OFFCURVE",
"389 744 CURVE SMOOTH",
"431 744 OFFCURVE",
"466 755 OFFCURVE",
"489 786 CURVE",
"489 889 LINE",
"461 851 OFFCURVE",
"427 838 OFFCURVE",
"389 838 CURVE SMOOTH",
"324 838 OFFCURVE",
"268 888 OFFCURVE",
"200 888 CURVE SMOOTH",
"159 888 OFFCURVE",
"123 876 OFFCURVE",
"100 845 CURVE",
"100 742 LINE"
);
}
);
width = 573;
}
);
leftKerningGroup = E;
note = Etilde;
rightKerningGroup = E;
unicode = 1EBC;
},
{
glyphname = F;
lastChange = "2015-11-30 00:46:14 +0000";
layers = (
{
layerId = "8C3E11F2-14C8-42F3-9A0B-AF341C1B554F";
name = Regular;
paths = (
{
closed = 1;
nodes = (
"187 0 LINE",
"187 302 LINE",
"444 302 LINE",
"444 397 LINE",
"187 397 LINE",
"187 593 LINE",
"533 593 LINE",
"533 699 LINE",
"60 699 LINE",
"60 0 LINE"
);
}
);
width = 553;
}
);
note = F;
unicode = 0046;
},
{
glyphname = G;
lastChange = "2015-11-30 00:46:14 +0000";
layers = (
{
layerId = "8C3E11F2-14C8-42F3-9A0B-AF341C1B554F";
name = Regular;
paths = (
{
closed = 1;
nodes = (
"521 -15 OFFCURVE",
"607 6 OFFCURVE",
"673 57 CURVE",
"673 383 LINE",
"428 383 LINE",
"428 282 LINE",
"546 282 LINE",
"546 125 LINE",
"513 108 OFFCURVE",
"468 99 OFFCURVE",
"419 99 CURVE SMOOTH",
"273 99 OFFCURVE",
"168 195 OFFCURVE",
"168 349 CURVE SMOOTH",
"168 502 OFFCURVE",
"281 598 OFFCURVE",
"425 598 CURVE SMOOTH",
"517 598 OFFCURVE",
"594 578 OFFCURVE",
"655 526 CURVE",
"655 647 LINE",
"590 694 OFFCURVE",
"513 714 OFFCURVE",
"414 714 CURVE SMOOTH",
"193 714 OFFCURVE",
"40 572 OFFCURVE",
"40 349 CURVE SMOOTH",
"40 126 OFFCURVE",
"193 -15 OFFCURVE",
"414 -15 CURVE SMOOTH"
);
}
);
width = 713;
}
);
leftKerningGroup = C;
note = G;
unicode = 0047;
},
{
glyphname = Gbreve;
lastChange = "2015-11-30 00:46:19 +0000";
layers = (
{
layerId = "8C3E11F2-14C8-42F3-9A0B-AF341C1B554F";
name = Regular;
paths = (
{
closed = 1;
nodes = (
"521 -15 OFFCURVE",
"607 6 OFFCURVE",
"673 57 CURVE",
"673 383 LINE",
"428 383 LINE",
"428 282 LINE",
"546 282 LINE",
"546 125 LINE",
"513 108 OFFCURVE",
"468 99 OFFCURVE",
"419 99 CURVE SMOOTH",
"273 99 OFFCURVE",
"168 195 OFFCURVE",
"168 349 CURVE SMOOTH",
"168 502 OFFCURVE",
"281 598 OFFCURVE",
"425 598 CURVE SMOOTH",
"517 598 OFFCURVE",
"594 578 OFFCURVE",
"655 526 CURVE",
"655 647 LINE",
"590 694 OFFCURVE",
"513 714 OFFCURVE",
"414 714 CURVE SMOOTH",
"193 714 OFFCURVE",
"40 572 OFFCURVE",
"40 349 CURVE SMOOTH",
"40 126 OFFCURVE",
"193 -15 OFFCURVE",
"414 -15 CURVE SMOOTH"
);
},
{
closed = 1;
nodes = (
"519 742 OFFCURVE",
"579 803 OFFCURVE",
"579 893 CURVE",
"484 893 LINE",
"484 849 OFFCURVE",
"460 826 OFFCURVE",
"418 826 CURVE SMOOTH",
"376 826 OFFCURVE",
"352 849 OFFCURVE",
"352 893 CURVE",
"257 893 LINE",
"257 803 OFFCURVE",
"317 742 OFFCURVE",
"418 742 CURVE SMOOTH"
);
}
);
width = 713;
}
);
leftKerningGroup = C;
note = Gbreve;
unicode = 011E;
},
{
glyphname = Gcaron;
lastChange = "2015-11-30 00:46:20 +0000";
layers = (
{
layerId = "8C3E11F2-14C8-42F3-9A0B-AF341C1B554F";
name = Regular;
paths = (
{
closed = 1;
nodes = (
"521 -15 OFFCURVE",
"607 6 OFFCURVE",
"673 57 CURVE",
"673 383 LINE",
"428 383 LINE",
"428 282 LINE",
"546 282 LINE",
"546 125 LINE",
"513 108 OFFCURVE",
"468 99 OFFCURVE",
"419 99 CURVE SMOOTH",
"273 99 OFFCURVE",
"168 195 OFFCURVE",
"168 349 CURVE SMOOTH",
"168 502 OFFCURVE",
"281 598 OFFCURVE",
"425 598 CURVE SMOOTH",
"517 598 OFFCURVE",
"594 578 OFFCURVE",
"655 526 CURVE",
"655 647 LINE",
"590 694 OFFCURVE",
"513 714 OFFCURVE",
"414 714 CURVE SMOOTH",
"193 714 OFFCURVE",
"40 572 OFFCURVE",
"40 349 CURVE SMOOTH",
"40 126 OFFCURVE",
"193 -15 OFFCURVE",
"414 -15 CURVE SMOOTH"
);
},
{
closed = 1;
nodes = (
"455 742 LINE",
"601 913 LINE",
"475 913 LINE",
"399 813 LINE",
"323 913 LINE",
"196 913 LINE",
"343 742 LINE"
);
}
);
width = 713;
}
);
leftKerningGroup = C;
note = Gcaron;
unicode = 01E6;
},
{
glyphname = Gcircumflex;
lastChange = "2015-11-30 00:46:20 +0000";
layers = (
{
layerId = "8C3E11F2-14C8-42F3-9A0B-AF341C1B554F";
name = Regular;
paths = (
{
closed = 1;
nodes = (
"521 -15 OFFCURVE",
"607 6 OFFCURVE",
"673 57 CURVE",
"673 383 LINE",
"428 383 LINE",
"428 282 LINE",
"546 282 LINE",
"546 125 LINE",
"513 108 OFFCURVE",
"468 99 OFFCURVE",
"419 99 CURVE SMOOTH",
"273 99 OFFCURVE",
"168 195 OFFCURVE",
"168 349 CURVE SMOOTH",
"168 502 OFFCURVE",
"281 598 OFFCURVE",
"425 598 CURVE SMOOTH",
"517 598 OFFCURVE",
"594 578 OFFCURVE",
"655 526 CURVE",
"655 647 LINE",
"590 694 OFFCURVE",
"513 714 OFFCURVE",
"414 714 CURVE SMOOTH",
"193 714 OFFCURVE",
"40 572 OFFCURVE",
"40 349 CURVE SMOOTH",
"40 126 OFFCURVE",
"193 -15 OFFCURVE",
"414 -15 CURVE SMOOTH"
);
},
{
closed = 1;
nodes = (
"334 742 LINE",
"410 841 LINE",
"486 742 LINE",
"612 742 LINE",
"466 913 LINE",
"354 913 LINE",
"207 742 LINE"
);
}
);
width = 713;
}
);
leftKerningGroup = C;
note = Gcircumflex;
unicode = 011C;
},
{
glyphname = Gcommaaccent;
lastChange = "2015-11-30 00:46:19 +0000";
layers = (
{
layerId = "8C3E11F2-14C8-42F3-9A0B-AF341C1B554F";
name = Regular;
paths = (
{
closed = 1;
nodes = (
"521 -15 OFFCURVE",
"607 6 OFFCURVE",
"673 57 CURVE",
"673 383 LINE",
"428 383 LINE",
"428 282 LINE",
"546 282 LINE",
"546 125 LINE",
"513 108 OFFCURVE",
"468 99 OFFCURVE",
"419 99 CURVE SMOOTH",
"273 99 OFFCURVE",
"168 195 OFFCURVE",
"168 349 CURVE SMOOTH",
"168 502 OFFCURVE",
"281 598 OFFCURVE",
"425 598 CURVE SMOOTH",
"517 598 OFFCURVE",
"594 578 OFFCURVE",
"655 526 CURVE",
"655 647 LINE",
"590 694 OFFCURVE",
"513 714 OFFCURVE",
"414 714 CURVE SMOOTH",
"193 714 OFFCURVE",
"40 572 OFFCURVE",
"40 349 CURVE SMOOTH",
"40 126 OFFCURVE",
"193 -15 OFFCURVE",
"414 -15 CURVE SMOOTH"
);
},
{
closed = 1;
nodes = (
"402 -259 LINE",
"500 -56 LINE",
"369 -56 LINE",
"287 -259 LINE"
);
}
);
width = 713;
}
);
leftKerningGroup = C;
note = Gcommaaccent;
unicode = 0122;
},
{
glyphname = Gdotaccent;
lastChange = "2015-11-30 00:46:20 +0000";
layers = (
{
layerId = "8C3E11F2-14C8-42F3-9A0B-AF341C1B554F";
name = Regular;
paths = (
{
closed = 1;
nodes = (
"521 -15 OFFCURVE",
"607 6 OFFCURVE",
"673 57 CURVE",
"673 383 LINE",
"428 383 LINE",
"428 282 LINE",
"546 282 LINE",
"546 125 LINE",
"513 108 OFFCURVE",
"468 99 OFFCURVE",
"419 99 CURVE SMOOTH",
"273 99 OFFCURVE",
"168 195 OFFCURVE",
"168 349 CURVE SMOOTH",
"168 502 OFFCURVE",
"281 598 OFFCURVE",
"425 598 CURVE SMOOTH",
"517 598 OFFCURVE",
"594 578 OFFCURVE",
"655 526 CURVE",
"655 647 LINE",
"590 694 OFFCURVE",
"513 714 OFFCURVE",
"414 714 CURVE SMOOTH",
"193 714 OFFCURVE",
"40 572 OFFCURVE",
"40 349 CURVE SMOOTH",
"40 126 OFFCURVE",
"193 -15 OFFCURVE",
"414 -15 CURVE SMOOTH"
);
},
{
closed = 1;
nodes = (
"451 752 OFFCURVE",
"481 781 OFFCURVE",
"481 818 CURVE SMOOTH",
"481 855 OFFCURVE",
"451 885 OFFCURVE",
"415 885 CURVE SMOOTH",
"379 885 OFFCURVE",
"348 855 OFFCURVE",
"348 818 CURVE SMOOTH",
"348 781 OFFCURVE",
"379 752 OFFCURVE",
"415 752 CURVE SMOOTH"
);
}
);
width = 713;
}
);
leftKerningGroup = C;
note = Gdotaccent;
unicode = 0120;
},
{
glyphname = Gmacron;
lastChange = "2015-11-30 00:46:19 +0000";
layers = (
{
layerId = "8C3E11F2-14C8-42F3-9A0B-AF341C1B554F";
name = Regular;
paths = (
{
closed = 1;
nodes = (
"521 -15 OFFCURVE",
"607 6 OFFCURVE",
"673 57 CURVE",
"673 383 LINE",
"428 383 LINE",
"428 282 LINE",
"546 282 LINE",
"546 125 LINE",
"513 108 OFFCURVE",
"468 99 OFFCURVE",
"419 99 CURVE SMOOTH",
"273 99 OFFCURVE",
"168 195 OFFCURVE",
"168 349 CURVE SMOOTH",
"168 502 OFFCURVE",
"281 598 OFFCURVE",
"425 598 CURVE SMOOTH",
"517 598 OFFCURVE",
"594 578 OFFCURVE",
"655 526 CURVE",
"655 647 LINE",
"590 694 OFFCURVE",
"513 714 OFFCURVE",
"414 714 CURVE SMOOTH",
"193 714 OFFCURVE",
"40 572 OFFCURVE",
"40 349 CURVE SMOOTH",
"40 126 OFFCURVE",
"193 -15 OFFCURVE",
"414 -15 CURVE SMOOTH"
);
},
{
closed = 1;
nodes = (
"574 752 LINE",
"574 836 LINE",
"251 836 LINE",
"251 752 LINE"
);
}
);
width = 713;
}
);
leftKerningGroup = C;
note = Gmacron;
unicode = 1E20;
},
{
glyphname = H;
lastChange = "2015-11-30 00:46:14 +0000";
layers = (
{
layerId = "8C3E11F2-14C8-42F3-9A0B-AF341C1B554F";
name = Regular;
paths = (
{
closed = 1;
nodes = (
"187 0 LINE",
"187 304 LINE",
"523 304 LINE",
"523 0 LINE",
"649 0 LINE",
"649 699 LINE",
"523 699 LINE",
"523 409 LINE",
"187 409 LINE",
"187 699 LINE",
"60 699 LINE",
"60 0 LINE"
);
}
);
width = 709;
}
);
note = H;
unicode = 0048;
},
{
glyphname = Hbar;
lastChange = "2015-11-30 00:46:20 +0000";
layers = (
{
layerId = "8C3E11F2-14C8-42F3-9A0B-AF341C1B554F";
name = Regular;
paths = (
{
closed = 1;
nodes = (
"192 0 LINE",
"192 304 LINE",
"528 304 LINE",
"528 0 LINE",
"654 0 LINE",
"654 499 LINE",
"706 499 LINE",
"706 604 LINE",
"654 604 LINE",
"654 699 LINE",
"528 699 LINE",
"528 604 LINE",
"192 604 LINE",
"192 699 LINE",
"65 699 LINE",
"65 604 LINE",
"20 604 LINE",
"20 499 LINE",
"65 499 LINE",
"65 0 LINE"
);
},
{
closed = 1;
nodes = (
"192 499 LINE",
"528 499 LINE",
"528 409 LINE",
"192 409 LINE"
);
}
);
width = 726;
}
);
note = Hbar;
unicode = 0126;
},
{
glyphname = Hbrevebelow;
lastChange = "2015-11-30 00:46:21 +0000";
layers = (
{
layerId = "8C3E11F2-14C8-42F3-9A0B-AF341C1B554F";
name = Regular;
paths = (
{
closed = 1;
nodes = (
"187 0 LINE",
"187 304 LINE",
"523 304 LINE",
"523 0 LINE",
"649 0 LINE",
"649 699 LINE",
"523 699 LINE",
"523 409 LINE",
"187 409 LINE",
"187 699 LINE",
"60 699 LINE",
"60 0 LINE"
);
},
{
closed = 1;
nodes = (
"455 -210 OFFCURVE",
"515 -149 OFFCURVE",
"515 -59 CURVE",
"420 -59 LINE",
"420 -103 OFFCURVE",
"396 -126 OFFCURVE",
"354 -126 CURVE SMOOTH",
"312 -126 OFFCURVE",
"288 -103 OFFCURVE",
"288 -59 CURVE",
"193 -59 LINE",
"193 -149 OFFCURVE",
"253 -210 OFFCURVE",
"354 -210 CURVE SMOOTH"
);
}
);
width = 709;
}
);
note = Hbrevebelow;
unicode = 1E2A;
},
{
glyphname = Hcircumflex;
lastChange = "2015-11-30 00:46:19 +0000";
layers = (
{
layerId = "8C3E11F2-14C8-42F3-9A0B-AF341C1B554F";
name = Regular;
paths = (
{
closed = 1;
nodes = (
"187 0 LINE",
"187 304 LINE",
"523 304 LINE",
"523 0 LINE",
"649 0 LINE",
"649 699 LINE",
"523 699 LINE",
"523 409 LINE",
"187 409 LINE",
"187 699 LINE",
"60 699 LINE",
"60 0 LINE"
);
},
{
closed = 1;
nodes = (
"279 742 LINE",
"355 841 LINE",
"431 742 LINE",
"557 742 LINE",
"411 913 LINE",
"299 913 LINE",
"152 742 LINE"
);
}
);
width = 709;
}
);
note = Hcircumflex;
unicode = 0124;
},
{
glyphname = Hdotbelow;
lastChange = "2015-11-30 00:46:19 +0000";
layers = (
{
layerId = "8C3E11F2-14C8-42F3-9A0B-AF341C1B554F";
name = Regular;
paths = (
{
closed = 1;
nodes = (
"187 0 LINE",
"187 304 LINE",
"523 304 LINE",
"523 0 LINE",
"649 0 LINE",
"649 699 LINE",
"523 699 LINE",
"523 409 LINE",
"187 409 LINE",
"187 699 LINE",
"60 699 LINE",
"60 0 LINE"
);
},
{
closed = 1;
nodes = (
"391 -179 OFFCURVE",
"421 -150 OFFCURVE",
"421 -113 CURVE SMOOTH",
"421 -76 OFFCURVE",
"391 -46 OFFCURVE",
"355 -46 CURVE SMOOTH",
"319 -46 OFFCURVE",
"288 -76 OFFCURVE",
"288 -113 CURVE SMOOTH",
"288 -150 OFFCURVE",
"319 -179 OFFCURVE",
"355 -179 CURVE SMOOTH"
);
}
);
width = 709;
}
);
note = Hdotbelow;
unicode = 1E24;
},
{
glyphname = I;
lastChange = "2015-11-30 00:46:14 +0000";
layers = (
{
layerId = "8C3E11F2-14C8-42F3-9A0B-AF341C1B554F";
name = Regular;
paths = (
{
closed = 1;
nodes = (
"187 0 LINE",
"187 699 LINE",
"60 699 LINE",
"60 0 LINE"
);
}
);
width = 247;
}
);
note = I;
unicode = 0049;
},
{
glyphname = IJ;
lastChange = "2015-11-30 00:46:18 +0000";
layers = (
{
layerId = "8C3E11F2-14C8-42F3-9A0B-AF341C1B554F";
name = Regular;
paths = (
{
closed = 1;
nodes = (
"504 -15 OFFCURVE",
"575 60 OFFCURVE",
"575 182 CURVE SMOOTH",
"575 699 LINE",
"448 699 LINE",
"448 189 LINE SMOOTH",
"448 124 OFFCURVE",
"411 96 OFFCURVE",
"350 96 CURVE SMOOTH",
"322 96 OFFCURVE",
"290 101 OFFCURVE",
"269 110 CURVE",
"269 4 LINE",
"292 -7 OFFCURVE",
"342 -15 OFFCURVE",
"381 -15 CURVE SMOOTH"
);
},
{
closed = 1;
nodes = (
"190 0 LINE",
"190 699 LINE",
"63 699 LINE",
"63 0 LINE"
);
}
);
width = 633;
}
);
note = IJ;
rightKerningGroup = J;
unicode = 0132;
},
{
glyphname = Iacute;
lastChange = "2015-11-30 00:46:20 +0000";
layers = (
{
layerId = "8C3E11F2-14C8-42F3-9A0B-AF341C1B554F";
name = Regular;
paths = (
{
closed = 1;
nodes = (
"190 0 LINE",
"190 699 LINE",
"63 699 LINE",
"63 0 LINE"
);
},
{
closed = 1;
nodes = (
"185 742 LINE",
"271 916 LINE",
"138 916 LINE",
"69 742 LINE"
);
}
);
width = 253;
}
);
note = Iacute;
unicode = 00CD;
},
{
glyphname = Ibreve;
lastChange = "2015-11-30 00:46:21 +0000";
layers = (
{
layerId = "8C3E11F2-14C8-42F3-9A0B-AF341C1B554F";
name = Regular;
paths = (
{
closed = 1;
nodes = (
"190 0 LINE",
"190 699 LINE",
"63 699 LINE",
"63 0 LINE"
);
},
{
closed = 1;
nodes = (
"227 742 OFFCURVE",
"287 803 OFFCURVE",
"287 893 CURVE",
"192 893 LINE",
"192 849 OFFCURVE",
"168 826 OFFCURVE",
"126 826 CURVE SMOOTH",
"84 826 OFFCURVE",
"60 849 OFFCURVE",
"60 893 CURVE",
"-35 893 LINE",
"-35 803 OFFCURVE",
"25 742 OFFCURVE",
"126 742 CURVE SMOOTH"
);
}
);
width = 253;
}
);
note = Ibreve;
unicode = 012C;
},
{
glyphname = Icaron;
lastChange = "2015-11-30 00:46:19 +0000";
layers = (
{
layerId = "8C3E11F2-14C8-42F3-9A0B-AF341C1B554F";
name = Regular;
paths = (
{
closed = 1;
nodes = (
"187 0 LINE",
"187 699 LINE",
"60 699 LINE",
"60 0 LINE"
);
},
{
closed = 1;
nodes = (
"181 764 LINE",
"327 935 LINE",
"201 935 LINE",
"125 835 LINE",
"49 935 LINE",
"-78 935 LINE",
"69 764 LINE"
);
}
);
width = 247;
}
);
note = Icaron;
unicode = 01CF;
},
{
glyphname = Icircumflex;
lastChange = "2015-11-30 00:46:19 +0000";
layers = (
{
layerId = "8C3E11F2-14C8-42F3-9A0B-AF341C1B554F";
name = Regular;
paths = (
{
closed = 1;
nodes = (
"190 0 LINE",
"190 699 LINE",
"63 699 LINE",
"63 0 LINE"
);
},
{
closed = 1;
nodes = (
"51 742 LINE",
"127 841 LINE",
"203 742 LINE",
"329 742 LINE",
"183 913 LINE",
"71 913 LINE",
"-76 742 LINE"
);
}
);
width = 253;
}
);
note = Icircumflex;
unicode = 00CE;
},
{
glyphname = Idieresis;
lastChange = "2015-11-30 00:46:21 +0000";
layers = (
{
layerId = "8C3E11F2-14C8-42F3-9A0B-AF341C1B554F";
name = Regular;
paths = (
{
closed = 1;
nodes = (
"190 0 LINE",
"190 699 LINE",
"63 699 LINE",
"63 0 LINE"
);
},
{
closed = 1;
nodes = (
"44 752 OFFCURVE",
"74 781 OFFCURVE",
"74 818 CURVE SMOOTH",
"74 855 OFFCURVE",
"44 885 OFFCURVE",
"8 885 CURVE SMOOTH",
"-28 885 OFFCURVE",
"-59 855 OFFCURVE",
"-59 818 CURVE SMOOTH",
"-59 781 OFFCURVE",
"-28 752 OFFCURVE",
"8 752 CURVE SMOOTH"
);
},
{
closed = 1;
nodes = (
"281 752 OFFCURVE",
"311 781 OFFCURVE",
"311 818 CURVE SMOOTH",
"311 855 OFFCURVE",
"281 885 OFFCURVE",
"245 885 CURVE SMOOTH",
"209 885 OFFCURVE",
"178 855 OFFCURVE",
"178 818 CURVE SMOOTH",
"178 781 OFFCURVE",
"209 752 OFFCURVE",
"245 752 CURVE SMOOTH"
);
}
);
width = 253;
}
);
note = Idieresis;
unicode = 00CF;
},
{
glyphname = Idotaccent;
lastChange = "2015-11-30 00:46:20 +0000";
layers = (
{
layerId = "8C3E11F2-14C8-42F3-9A0B-AF341C1B554F";
name = Regular;
paths = (
{
closed = 1;
nodes = (
"190 0 LINE",
"190 699 LINE",
"63 699 LINE",
"63 0 LINE"
);
},
{
closed = 1;
nodes = (
"163 752 OFFCURVE",
"193 781 OFFCURVE",
"193 818 CURVE SMOOTH",
"193 855 OFFCURVE",
"163 885 OFFCURVE",
"127 885 CURVE SMOOTH",
"91 885 OFFCURVE",
"60 855 OFFCURVE",
"60 818 CURVE SMOOTH",
"60 781 OFFCURVE",
"91 752 OFFCURVE",
"127 752 CURVE SMOOTH"
);
}
);
width = 253;
}
);
note = Idotaccent;
unicode = 0130;
},
{
glyphname = Idotbelow;
lastChange = "2015-11-30 00:46:21 +0000";
layers = (
{
layerId = "8C3E11F2-14C8-42F3-9A0B-AF341C1B554F";
name = Regular;
paths = (
{
closed = 1;
nodes = (
"190 0 LINE",
"190 699 LINE",
"63 699 LINE",
"63 0 LINE"
);
},
{
closed = 1;
nodes = (
"163 -179 OFFCURVE",
"193 -150 OFFCURVE",
"193 -113 CURVE SMOOTH",
"193 -76 OFFCURVE",
"163 -46 OFFCURVE",
"127 -46 CURVE SMOOTH",
"91 -46 OFFCURVE",
"60 -76 OFFCURVE",
"60 -113 CURVE SMOOTH",
"60 -150 OFFCURVE",
"91 -179 OFFCURVE",
"127 -179 CURVE SMOOTH"
);
}
);
width = 253;
}
);
note = Idotbelow;
unicode = 1ECA;
},
{
glyphname = Igrave;
lastChange = "2015-11-30 00:46:19 +0000";
layers = (
{
layerId = "8C3E11F2-14C8-42F3-9A0B-AF341C1B554F";
name = Regular;
paths = (
{
closed = 1;
nodes = (
"190 0 LINE",
"190 699 LINE",
"63 699 LINE",
"63 0 LINE"
);
},
{
closed = 1;
nodes = (
"183 742 LINE",
"114 916 LINE",
"-19 916 LINE",
"67 742 LINE"
);
}
);
width = 253;
}
);
note = Igrave;
unicode = 00CC;
},
{
glyphname = Ihookabove;
lastChange = "2015-11-30 00:46:20 +0000";
layers = (
{
layerId = "8C3E11F2-14C8-42F3-9A0B-AF341C1B554F";
name = Regular;
paths = (
{
closed = 1;
nodes = (
"190 0 LINE",
"190 699 LINE",
"63 699 LINE",
"63 0 LINE"
);
},
{
closed = 1;
nodes = (
"180 742 LINE",
"180 776 LINE",
"239 785 OFFCURVE",
"271 822 OFFCURVE",
"271 870 CURVE SMOOTH",
"271 929 OFFCURVE",
"225 970 OFFCURVE",
"131 970 CURVE SMOOTH",
"95 970 OFFCURVE",
"56 963 OFFCURVE",
"33 956 CURVE",
"33 890 LINE",
"46 896 OFFCURVE",
"83 902 OFFCURVE",
"99 902 CURVE SMOOTH",
"144 902 OFFCURVE",
"161 891 OFFCURVE",
"161 865 CURVE SMOOTH",
"161 827 OFFCURVE",
"126 816 OFFCURVE",
"70 816 CURVE",
"70 742 LINE"
);
}
);
width = 253;
}
);
note = Ihookabove;
unicode = 1EC8;
},
{
glyphname = Imacron;
lastChange = "2015-11-30 00:46:19 +0000";
layers = (
{
layerId = "8C3E11F2-14C8-42F3-9A0B-AF341C1B554F";
name = Regular;
paths = (
{
closed = 1;
nodes = (
"190 0 LINE",
"190 699 LINE",
"63 699 LINE",
"63 0 LINE"
);
},
{
closed = 1;
nodes = (
"292 752 LINE",
"292 836 LINE",
"-40 836 LINE",
"-40 752 LINE"
);
}
);
width = 253;
}
);
note = Imacron;
unicode = 012A;
},
{
glyphname = Iogonek;
lastChange = "2015-11-30 00:46:21 +0000";
layers = (
{
layerId = "8C3E11F2-14C8-42F3-9A0B-AF341C1B554F";
name = Regular;
paths = (
{
closed = 1;
nodes = (
"190 0 LINE",
"190 699 LINE",
"63 699 LINE",
"63 0 LINE"
);
},
{
closed = 1;
nodes = (
"142 -213 OFFCURVE",
"175 -208 OFFCURVE",
"196 -200 CURVE",
"196 -128 LINE",
"182 -135 OFFCURVE",
"165 -139 OFFCURVE",
"148 -139 CURVE SMOOTH",
"124 -139 OFFCURVE",
"107 -125 OFFCURVE",
"107 -99 CURVE SMOOTH",
"107 -61 OFFCURVE",
"134 -31 OFFCURVE",
"186 0 CURVE",
"70 0 LINE",
"28 -26 OFFCURVE",
"-3 -68 OFFCURVE",
"-3 -121 CURVE SMOOTH",
"-3 -184 OFFCURVE",
"46 -213 OFFCURVE",
"109 -213 CURVE SMOOTH"
);
}
);
width = 253;
}
);
note = Iogonek;
unicode = 012E;
},
{
glyphname = Itilde;
lastChange = "2015-11-30 00:46:19 +0000";
layers = (
{
layerId = "8C3E11F2-14C8-42F3-9A0B-AF341C1B554F";
name = Regular;
paths = (
{
closed = 1;
nodes = (
"190 0 LINE",
"190 699 LINE",
"63 699 LINE",
"63 0 LINE"
);
},
{
closed = 1;
nodes = (
"-38 781 OFFCURVE",
"-5 794 OFFCURVE",
"32 794 CURVE SMOOTH",
"96 794 OFFCURVE",
"148 744 OFFCURVE",
"221 744 CURVE SMOOTH",
"263 744 OFFCURVE",
"298 755 OFFCURVE",
"321 786 CURVE",
"321 889 LINE",
"293 851 OFFCURVE",
"259 838 OFFCURVE",
"221 838 CURVE SMOOTH",
"156 838 OFFCURVE",
"100 888 OFFCURVE",
"32 888 CURVE SMOOTH",
"-9 888 OFFCURVE",
"-45 876 OFFCURVE",
"-68 845 CURVE",
"-68 742 LINE"
);
}
);
width = 253;
}
);
note = Itilde;
unicode = 0128;
},
{
glyphname = J;
lastChange = "2015-11-30 00:46:14 +0000";
layers = (
{
layerId = "8C3E11F2-14C8-42F3-9A0B-AF341C1B554F";
name = Regular;
paths = (
{
closed = 1;
nodes = (
"255 -15 OFFCURVE",
"326 60 OFFCURVE",
"326 182 CURVE SMOOTH",
"326 699 LINE",
"199 699 LINE",
"199 189 LINE SMOOTH",
"199 124 OFFCURVE",
"162 96 OFFCURVE",
"101 96 CURVE SMOOTH",
"73 96 OFFCURVE",
"41 101 OFFCURVE",
"20 110 CURVE",
"20 4 LINE",
"43 -7 OFFCURVE",
"93 -15 OFFCURVE",
"132 -15 CURVE SMOOTH"
);
}
);
width = 386;
}
);
note = J;
rightKerningGroup = J;
unicode = 004A;
},
{
glyphname = Jcircumflex;
lastChange = "2015-11-30 00:46:21 +0000";
layers = (
{
layerId = "8C3E11F2-14C8-42F3-9A0B-AF341C1B554F";
name = Regular;
paths = (
{
closed = 1;
nodes = (
"255 -15 OFFCURVE",
"326 60 OFFCURVE",
"326 182 CURVE SMOOTH",
"326 699 LINE",
"199 699 LINE",
"199 189 LINE SMOOTH",
"199 124 OFFCURVE",
"162 96 OFFCURVE",
"101 96 CURVE SMOOTH",
"73 96 OFFCURVE",
"41 101 OFFCURVE",
"20 110 CURVE",
"20 4 LINE",
"43 -7 OFFCURVE",
"93 -15 OFFCURVE",
"132 -15 CURVE SMOOTH"
);
},
{
closed = 1;
nodes = (
"188 742 LINE",
"264 841 LINE",
"340 742 LINE",
"466 742 LINE",
"320 913 LINE",
"208 913 LINE",
"61 742 LINE"
);
}
);
width = 384;
}
);
note = Jcircumflex;
rightKerningGroup = J;
unicode = 0134;
},
{
glyphname = K;
lastChange = "2015-11-30 00:46:14 +0000";
layers = (
{
layerId = "8C3E11F2-14C8-42F3-9A0B-AF341C1B554F";
name = Regular;
paths = (
{
closed = 1;
nodes = (
"187 0 LINE",
"187 332 LINE",
"494 0 LINE",
"646 0 LINE",
"316 357 LINE",
"626 699 LINE",
"474 699 LINE",
"187 382 LINE",
"187 699 LINE",
"60 699 LINE",
"60 0 LINE"
);
}
);
width = 686;
}
);
leftKerningGroup = K;
note = K;
rightKerningGroup = K;
unicode = 004B;
},
{
glyphname = Kcommaaccent;
lastChange = "2015-11-30 00:46:20 +0000";
layers = (
{
layerId = "8C3E11F2-14C8-42F3-9A0B-AF341C1B554F";
name = Regular;
paths = (
{
closed = 1;
nodes = (
"187 0 LINE",
"187 332 LINE",
"494 0 LINE",
"646 0 LINE",
"316 357 LINE",
"626 699 LINE",
"474 699 LINE",
"187 382 LINE",
"187 699 LINE",
"60 699 LINE",
"60 0 LINE"
);
},
{
closed = 1;
nodes = (
"298 -259 LINE",
"396 -56 LINE",
"265 -56 LINE",
"183 -259 LINE"
);
}
);
width = 686;
}
);
leftKerningGroup = K;
note = Kcommaaccent;
rightKerningGroup = K;
unicode = 0136;
},
{
glyphname = L;
lastChange = "2015-11-30 00:46:14 +0000";
layers = (
{
layerId = "8C3E11F2-14C8-42F3-9A0B-AF341C1B554F";
name = Regular;
paths = (
{
closed = 1;
nodes = (
"523 0 LINE",
"523 105 LINE",
"187 105 LINE",
"187 699 LINE",
"60 699 LINE",
"60 0 LINE"
);
}
);
width = 543;
}
);
note = L;
rightKerningGroup = L;
unicode = 004C;
},
{
glyphname = Lacute;
lastChange = "2015-11-30 00:46:20 +0000";
layers = (
{
layerId = "8C3E11F2-14C8-42F3-9A0B-AF341C1B554F";
name = Regular;
paths = (
{
closed = 1;
nodes = (
"523 0 LINE",
"523 105 LINE",
"187 105 LINE",
"187 699 LINE",
"60 699 LINE",
"60 0 LINE"
);
},
{
closed = 1;
nodes = (
"182 742 LINE",
"268 916 LINE",
"135 916 LINE",
"66 742 LINE"
);
}
);
width = 543;
}
);
note = Lacute;
rightKerningGroup = L;
unicode = 0139;
},
{
glyphname = Lcaron;
lastChange = "2015-11-30 00:46:19 +0000";
layers = (
{
layerId = "8C3E11F2-14C8-42F3-9A0B-AF341C1B554F";
name = Regular;
paths = (
{
closed = 1;
nodes = (
"523 0 LINE",
"523 105 LINE",
"187 105 LINE",
"187 699 LINE",
"60 699 LINE",
"60 0 LINE"
);
},
{
closed = 1;
nodes = (
"400 504 LINE",
"498 707 LINE",
"367 707 LINE",
"285 504 LINE"
);
}
);
width = 543;
}
);
note = Lcaron;
rightKerningGroup = L;
unicode = 013D;
},
{
glyphname = Lcommaaccent;
lastChange = "2015-11-30 00:46:18 +0000";
layers = (
{
layerId = "8C3E11F2-14C8-42F3-9A0B-AF341C1B554F";
name = Regular;
paths = (
{
closed = 1;
nodes = (
"523 0 LINE",
"523 105 LINE",
"187 105 LINE",
"187 699 LINE",
"60 699 LINE",
"60 0 LINE"
);
},
{
closed = 1;
nodes = (
"268 -259 LINE",
"366 -56 LINE",
"235 -56 LINE",
"153 -259 LINE"
);
}
);
width = 543;
}
);
note = Lcommaaccent;
rightKerningGroup = L;
unicode = 013B;
},
{
glyphname = Ldot;
lastChange = "2015-11-30 00:46:19 +0000";
layers = (
{
layerId = "8C3E11F2-14C8-42F3-9A0B-AF341C1B554F";
name = Regular;
paths = (
{
closed = 1;
nodes = (
"523 0 LINE",
"523 105 LINE",
"187 105 LINE",
"187 699 LINE",
"60 699 LINE",
"60 0 LINE"
);
},
{
closed = 1;
nodes = (
"415 321 OFFCURVE",
"445 350 OFFCURVE",
"445 387 CURVE SMOOTH",
"445 424 OFFCURVE",
"415 454 OFFCURVE",
"379 454 CURVE SMOOTH",
"343 454 OFFCURVE",
"312 424 OFFCURVE",
"312 387 CURVE SMOOTH",
"312 350 OFFCURVE",
"343 321 OFFCURVE",
"379 321 CURVE SMOOTH"
);
}
);
width = 543;
}
);
note = Ldot;
rightKerningGroup = L;
unicode = 013F;
},
{
glyphname = Ldotbelow;
lastChange = "2015-11-30 00:46:19 +0000";
layers = (
{
layerId = "8C3E11F2-14C8-42F3-9A0B-AF341C1B554F";
name = Regular;
paths = (
{
closed = 1;
nodes = (
"523 0 LINE",
"523 105 LINE",
"187 105 LINE",
"187 699 LINE",
"60 699 LINE",
"60 0 LINE"
);
},
{
closed = 1;
nodes = (
"298 -179 OFFCURVE",
"328 -150 OFFCURVE",
"328 -113 CURVE SMOOTH",
"328 -76 OFFCURVE",
"298 -46 OFFCURVE",
"262 -46 CURVE SMOOTH",
"226 -46 OFFCURVE",
"195 -76 OFFCURVE",
"195 -113 CURVE SMOOTH",
"195 -150 OFFCURVE",
"226 -179 OFFCURVE",
"262 -179 CURVE SMOOTH"
);
}
);
width = 543;
}
);
note = Ldotbelow;
rightKerningGroup = L;
unicode = 1E36;
},
{
glyphname = Ldotbelowmacron;
lastChange = "2015-11-30 00:46:20 +0000";
layers = (
{
layerId = "8C3E11F2-14C8-42F3-9A0B-AF341C1B554F";
name = Regular;
paths = (
{
closed = 1;
nodes = (
"540 0 LINE",
"540 105 LINE",
"204 105 LINE",
"204 699 LINE",
"77 699 LINE",
"77 0 LINE"
);
},
{
closed = 1;
nodes = (
"339 -179 OFFCURVE",
"369 -150 OFFCURVE",
"369 -113 CURVE SMOOTH",
"369 -76 OFFCURVE",
"339 -46 OFFCURVE",
"303 -46 CURVE SMOOTH",
"267 -46 OFFCURVE",
"236 -76 OFFCURVE",
"236 -113 CURVE SMOOTH",
"236 -150 OFFCURVE",
"267 -179 OFFCURVE",
"303 -179 CURVE SMOOTH"
);
},
{
closed = 1;
nodes = (
"393 752 LINE",
"393 836 LINE",
"70 836 LINE",
"70 752 LINE"
);
}
);
width = 560;
}
);
note = Ldotbelowmacron;
rightKerningGroup = L;
unicode = 1E38;
},
{
glyphname = Llinebelow;
lastChange = "2015-11-30 00:46:20 +0000";
layers = (
{
layerId = "8C3E11F2-14C8-42F3-9A0B-AF341C1B554F";
name = Regular;
paths = (
{
closed = 1;
nodes = (
"523 0 LINE",
"523 105 LINE",
"187 105 LINE",
"187 699 LINE",
"60 699 LINE",
"60 0 LINE"
);
},
{
closed = 1;
nodes = (
"448 -151 LINE",
"448 -68 LINE",
"125 -68 LINE",
"125 -151 LINE"
);
}
);
width = 543;
}
);
note = Llinebelow;
rightKerningGroup = L;
unicode = 1E3A;
},
{
glyphname = Lslash;
lastChange = "2015-11-30 00:46:14 +0000";
layers = (
{
layerId = "8C3E11F2-14C8-42F3-9A0B-AF341C1B554F";
name = Regular;
paths = (
{
closed = 1;
nodes = (
"567 0 LINE",
"567 105 LINE",
"231 105 LINE",
"231 339 LINE",
"386 409 LINE",
"386 530 LINE",
"231 460 LINE",
"231 699 LINE",
"104 699 LINE",
"104 404 LINE",
"10 362 LINE",
"10 241 LINE",
"104 283 LINE",
"104 0 LINE"
);
}
);
width = 587;
}
);
note = Lslash;
rightKerningGroup = L;
unicode = 0141;
},
{
glyphname = M;
lastChange = "2015-11-30 00:46:14 +0000";
layers = (
{
layerId = "8C3E11F2-14C8-42F3-9A0B-AF341C1B554F";
name = Regular;
paths = (
{
closed = 1;
nodes = (
"180 0 LINE",
"180 454 LINE",
"388 0 LINE",
"448 0 LINE",
"656 454 LINE",
"656 0 LINE",
"776 0 LINE",
"776 699 LINE",
"652 699 LINE",
"418 187 LINE",
"184 699 LINE",
"60 699 LINE",
"60 0 LINE"
);
}
);
width = 836;
}
);
note = M;
unicode = 004D;
},
{
glyphname = Mdotbelow;
lastChange = "2015-11-30 00:46:19 +0000";
layers = (
{
layerId = "8C3E11F2-14C8-42F3-9A0B-AF341C1B554F";
name = Regular;
paths = (
{
closed = 1;
nodes = (
"180 0 LINE",
"180 454 LINE",
"388 0 LINE",
"448 0 LINE",
"656 454 LINE",
"656 0 LINE",
"776 0 LINE",
"776 699 LINE",
"652 699 LINE",
"418 187 LINE",
"184 699 LINE",
"60 699 LINE",
"60 0 LINE"
);
},
{
closed = 1;
nodes = (
"455 -179 OFFCURVE",
"485 -150 OFFCURVE",
"485 -113 CURVE SMOOTH",
"485 -76 OFFCURVE",
"455 -46 OFFCURVE",
"419 -46 CURVE SMOOTH",
"383 -46 OFFCURVE",
"352 -76 OFFCURVE",
"352 -113 CURVE SMOOTH",
"352 -150 OFFCURVE",
"383 -179 OFFCURVE",
"419 -179 CURVE SMOOTH"
);
}
);
width = 836;
}
);
note = Mdotbelow;
unicode = 1E42;
},
{
glyphname = N;
lastChange = "2015-11-30 00:46:14 +0000";
layers = (
{
layerId = "8C3E11F2-14C8-42F3-9A0B-AF341C1B554F";
name = Regular;
paths = (
{
closed = 1;
nodes = (
"187 0 LINE",
"187 488 LINE",
"514 0 LINE",
"634 0 LINE",
"634 699 LINE",
"507 699 LINE",
"507 212 LINE",
"180 699 LINE",
"60 699 LINE",
"60 0 LINE"
);
}
);
width = 694;
}
);
note = N;
unicode = 004E;
},
{
glyphname = Nacute;
lastChange = "2015-11-30 00:46:21 +0000";
layers = (
{
layerId = "8C3E11F2-14C8-42F3-9A0B-AF341C1B554F";
name = Regular;
paths = (
{
closed = 1;
nodes = (
"187 0 LINE",
"187 488 LINE",
"514 0 LINE",
"634 0 LINE",
"634 699 LINE",
"507 699 LINE",
"507 212 LINE",
"180 699 LINE",
"60 699 LINE",
"60 0 LINE"
);
},
{
closed = 1;
nodes = (
"394 742 LINE",
"480 916 LINE",
"347 916 LINE",
"278 742 LINE"
);
}
);
width = 694;
}
);
note = Nacute;
unicode = 0143;
},
{
glyphname = Ncaron;
lastChange = "2015-11-30 00:46:19 +0000";
layers = (
{
layerId = "8C3E11F2-14C8-42F3-9A0B-AF341C1B554F";
name = Regular;
paths = (
{
closed = 1;
nodes = (
"187 0 LINE",
"187 488 LINE",
"514 0 LINE",
"634 0 LINE",
"634 699 LINE",
"507 699 LINE",
"507 212 LINE",
"180 699 LINE",
"60 699 LINE",
"60 0 LINE"
);
},
{
closed = 1;
nodes = (
"402 742 LINE",
"548 913 LINE",
"422 913 LINE",
"346 813 LINE",
"270 913 LINE",
"143 913 LINE",
"290 742 LINE"
);
}
);
width = 694;
}
);
note = Ncaron;
unicode = 0147;
},
{
glyphname = Ncommaaccent;
lastChange = "2015-11-30 00:46:19 +0000";
layers = (
{
layerId = "8C3E11F2-14C8-42F3-9A0B-AF341C1B554F";
name = Regular;
paths = (
{
closed = 1;
nodes = (
"187 0 LINE",
"187 488 LINE",
"514 0 LINE",
"634 0 LINE",
"634 699 LINE",
"507 699 LINE",
"507 212 LINE",
"180 699 LINE",
"60 699 LINE",
"60 0 LINE"
);
},
{
closed = 1;
nodes = (
"322 -259 LINE",
"420 -56 LINE",
"289 -56 LINE",
"207 -259 LINE"
);
}
);
width = 694;
}
);
note = Ncommaaccent;
unicode = 0145;
},
{
glyphname = Ndotaccent;
lastChange = "2015-11-30 00:46:20 +0000";
layers = (
{
layerId = "8C3E11F2-14C8-42F3-9A0B-AF341C1B554F";
name = Regular;
paths = (
{
closed = 1;
nodes = (
"187 0 LINE",
"187 488 LINE",
"514 0 LINE",
"634 0 LINE",
"634 699 LINE",
"507 699 LINE",
"507 212 LINE",
"180 699 LINE",
"60 699 LINE",
"60 0 LINE"
);
},
{
closed = 1;
nodes = (
"386 752 OFFCURVE",
"416 781 OFFCURVE",
"416 818 CURVE SMOOTH",
"416 855 OFFCURVE",
"386 885 OFFCURVE",
"350 885 CURVE SMOOTH",
"314 885 OFFCURVE",
"283 855 OFFCURVE",
"283 818 CURVE SMOOTH",
"283 781 OFFCURVE",
"314 752 OFFCURVE",
"350 752 CURVE SMOOTH"
);
}
);
width = 694;
}
);
note = Ndotaccent;
unicode = 1E44;
},
{
glyphname = Ndotbelow;
lastChange = "2015-11-30 00:46:19 +0000";
layers = (
{
layerId = "8C3E11F2-14C8-42F3-9A0B-AF341C1B554F";
name = Regular;
paths = (
{
closed = 1;
nodes = (
"187 0 LINE",
"187 488 LINE",
"514 0 LINE",
"634 0 LINE",
"634 699 LINE",
"507 699 LINE",
"507 212 LINE",
"180 699 LINE",
"60 699 LINE",
"60 0 LINE"
);
},
{
closed = 1;
nodes = (
"385 -179 OFFCURVE",
"415 -150 OFFCURVE",
"415 -113 CURVE SMOOTH",
"415 -76 OFFCURVE",
"385 -46 OFFCURVE",
"349 -46 CURVE SMOOTH",
"313 -46 OFFCURVE",
"282 -76 OFFCURVE",
"282 -113 CURVE SMOOTH",
"282 -150 OFFCURVE",
"313 -179 OFFCURVE",
"349 -179 CURVE SMOOTH"
);
}
);
width = 694;
}
);
note = Ndotbelow;
unicode = 1E46;
},
{
glyphname = Eng;
lastChange = "2015-11-30 00:46:19 +0000";
layers = (
{
layerId = "8C3E11F2-14C8-42F3-9A0B-AF341C1B554F";
name = Regular;
paths = (
{
closed = 1;
nodes = (
"187 0 LINE",
"187 488 LINE",
"514 0 LINE",
"634 0 LINE",
"634 699 LINE",
"507 699 LINE",
"507 212 LINE",
"180 699 LINE",
"60 699 LINE",
"60 0 LINE"
);
},
{
closed = 1;
nodes = (
"557 -230 OFFCURVE",
"634 -176 OFFCURVE",
"634 -55 CURVE SMOOTH",
"634 248 LINE",
"508 248 LINE",
"508 -42 LINE SMOOTH",
"508 -101 OFFCURVE",
"482 -127 OFFCURVE",
"427 -127 CURVE SMOOTH",
"403 -127 OFFCURVE",
"383 -123 OFFCURVE",
"365 -115 CURVE",
"365 -217 LINE",
"387 -225 OFFCURVE",
"415 -230 OFFCURVE",
"449 -230 CURVE SMOOTH"
);
}
);
width = 694;
}
);
note = Eng;
unicode = 014A;
},
{
glyphname = Nlinebelow;
lastChange = "2015-11-30 00:46:20 +0000";
layers = (
{
layerId = "8C3E11F2-14C8-42F3-9A0B-AF341C1B554F";
name = Regular;
paths = (
{
closed = 1;
nodes = (
"187 0 LINE",
"187 488 LINE",
"514 0 LINE",
"634 0 LINE",
"634 699 LINE",
"507 699 LINE",
"507 212 LINE",
"180 699 LINE",
"60 699 LINE",
"60 0 LINE"
);
},
{
closed = 1;
nodes = (
"515 -151 LINE",
"515 -68 LINE",
"192 -68 LINE",
"192 -151 LINE"
);
}
);
width = 694;
}
);
note = Nlinebelow;
unicode = 1E48;
},
{
glyphname = Ntilde;
lastChange = "2015-11-30 00:46:20 +0000";
layers = (
{
layerId = "8C3E11F2-14C8-42F3-9A0B-AF341C1B554F";
name = Regular;
paths = (
{
closed = 1;
nodes = (
"187 0 LINE",
"187 488 LINE",
"514 0 LINE",
"634 0 LINE",
"634 699 LINE",
"507 699 LINE",
"507 212 LINE",
"180 699 LINE",
"60 699 LINE",
"60 0 LINE"
);
},
{
closed = 1;
nodes = (
"190 781 OFFCURVE",
"223 794 OFFCURVE",
"260 794 CURVE SMOOTH",
"324 794 OFFCURVE",
"376 744 OFFCURVE",
"449 744 CURVE SMOOTH",
"491 744 OFFCURVE",
"526 755 OFFCURVE",
"549 786 CURVE",
"549 889 LINE",
"521 851 OFFCURVE",
"487 838 OFFCURVE",
"449 838 CURVE SMOOTH",
"384 838 OFFCURVE",
"328 888 OFFCURVE",
"260 888 CURVE SMOOTH",
"219 888 OFFCURVE",
"183 876 OFFCURVE",
"160 845 CURVE",
"160 742 LINE"
);
}
);
width = 694;
}
);
note = Ntilde;
unicode = 00D1;
},
{
glyphname = O;
lastChange = "2015-11-30 00:46:19 +0000";
layers = (
{
layerId = "8C3E11F2-14C8-42F3-9A0B-AF341C1B554F";
name = Regular;
paths = (
{
closed = 1;
nodes = (
"620 -15 OFFCURVE",
"781 131 OFFCURVE",
"781 349 CURVE SMOOTH",
"781 568 OFFCURVE",
"620 714 OFFCURVE",
"411 714 CURVE SMOOTH",
"201 714 OFFCURVE",
"40 568 OFFCURVE",
"40 349 CURVE SMOOTH",
"40 131 OFFCURVE",
"201 -15 OFFCURVE",
"411 -15 CURVE SMOOTH"
);
},
{
closed = 1;
nodes = (
"277 100 OFFCURVE",
"168 195 OFFCURVE",
"168 349 CURVE SMOOTH",
"168 501 OFFCURVE",
"275 598 OFFCURVE",
"411 598 CURVE SMOOTH",
"546 598 OFFCURVE",
"653 501 OFFCURVE",
"653 349 CURVE SMOOTH",
"653 195 OFFCURVE",
"544 100 OFFCURVE",
"411 100 CURVE SMOOTH"
);
}
);
width = 821;
}
);
leftKerningGroup = O;
note = O;
rightKerningGroup = O;
unicode = 004F;
},
{
glyphname = Oacute;
lastChange = "2015-11-30 00:46:20 +0000";
layers = (
{
layerId = "8C3E11F2-14C8-42F3-9A0B-AF341C1B554F";
name = Regular;
paths = (
{
closed = 1;
nodes = (
"620 -15 OFFCURVE",
"781 131 OFFCURVE",
"781 349 CURVE SMOOTH",
"781 568 OFFCURVE",
"620 714 OFFCURVE",
"411 714 CURVE SMOOTH",
"201 714 OFFCURVE",
"40 568 OFFCURVE",
"40 349 CURVE SMOOTH",
"40 131 OFFCURVE",
"201 -15 OFFCURVE",
"411 -15 CURVE SMOOTH"
);
},
{
closed = 1;
nodes = (
"277 100 OFFCURVE",
"168 195 OFFCURVE",
"168 349 CURVE SMOOTH",
"168 501 OFFCURVE",
"275 598 OFFCURVE",
"411 598 CURVE SMOOTH",
"546 598 OFFCURVE",
"653 501 OFFCURVE",
"653 349 CURVE SMOOTH",
"653 195 OFFCURVE",
"544 100 OFFCURVE",
"411 100 CURVE SMOOTH"
);
},
{
closed = 1;
nodes = (
"467 742 LINE",
"553 916 LINE",
"420 916 LINE",
"351 742 LINE"
);
}
);
width = 821;
}
);
leftKerningGroup = O;
note = Oacute;
rightKerningGroup = O;
unicode = 00D3;
},
{
glyphname = Obreve;
lastChange = "2015-11-30 00:46:19 +0000";
layers = (
{
layerId = "8C3E11F2-14C8-42F3-9A0B-AF341C1B554F";
name = Regular;
paths = (
{
closed = 1;
nodes = (
"620 -15 OFFCURVE",
"781 131 OFFCURVE",
"781 349 CURVE SMOOTH",
"781 568 OFFCURVE",
"620 714 OFFCURVE",
"411 714 CURVE SMOOTH",
"201 714 OFFCURVE",
"40 568 OFFCURVE",
"40 349 CURVE SMOOTH",
"40 131 OFFCURVE",
"201 -15 OFFCURVE",
"411 -15 CURVE SMOOTH"
);
},
{
closed = 1;
nodes = (
"277 100 OFFCURVE",
"168 195 OFFCURVE",
"168 349 CURVE SMOOTH",
"168 501 OFFCURVE",
"275 598 OFFCURVE",
"411 598 CURVE SMOOTH",
"546 598 OFFCURVE",
"653 501 OFFCURVE",
"653 349 CURVE SMOOTH",
"653 195 OFFCURVE",
"544 100 OFFCURVE",
"411 100 CURVE SMOOTH"
);
},
{
closed = 1;
nodes = (
"511 742 OFFCURVE",
"571 803 OFFCURVE",
"571 893 CURVE",
"476 893 LINE",
"476 849 OFFCURVE",
"452 826 OFFCURVE",
"410 826 CURVE SMOOTH",
"368 826 OFFCURVE",
"344 849 OFFCURVE",
"344 893 CURVE",
"249 893 LINE",
"249 803 OFFCURVE",
"309 742 OFFCURVE",
"410 742 CURVE SMOOTH"
);
}
);
width = 821;
}
);
leftKerningGroup = O;
note = Obreve;
rightKerningGroup = O;
unicode = 014E;
},
{
glyphname = Ocaron;
lastChange = "2015-11-30 00:46:20 +0000";
layers = (
{
layerId = "8C3E11F2-14C8-42F3-9A0B-AF341C1B554F";
name = Regular;
paths = (
{
closed = 1;
nodes = (
"620 -15 OFFCURVE",
"781 131 OFFCURVE",
"781 349 CURVE SMOOTH",
"781 568 OFFCURVE",
"620 714 OFFCURVE",
"411 714 CURVE SMOOTH",
"201 714 OFFCURVE",
"40 568 OFFCURVE",
"40 349 CURVE SMOOTH",
"40 131 OFFCURVE",
"201 -15 OFFCURVE",
"411 -15 CURVE SMOOTH"
);
},
{
closed = 1;
nodes = (
"277 100 OFFCURVE",
"168 195 OFFCURVE",
"168 349 CURVE SMOOTH",
"168 501 OFFCURVE",
"275 598 OFFCURVE",
"411 598 CURVE SMOOTH",
"546 598 OFFCURVE",
"653 501 OFFCURVE",
"653 349 CURVE SMOOTH",
"653 195 OFFCURVE",
"544 100 OFFCURVE",
"411 100 CURVE SMOOTH"
);
},
{
closed = 1;
nodes = (
"466 742 LINE",
"612 913 LINE",
"486 913 LINE",
"410 813 LINE",
"334 913 LINE",
"207 913 LINE",
"354 742 LINE"
);
}
);
width = 821;
}
);
leftKerningGroup = O;
note = Ocaron;
rightKerningGroup = O;
unicode = 01D1;
},
{
glyphname = Ocircumflex;
lastChange = "2015-11-30 00:46:20 +0000";
layers = (
{
layerId = "8C3E11F2-14C8-42F3-9A0B-AF341C1B554F";
name = Regular;
paths = (
{
closed = 1;
nodes = (
"620 -15 OFFCURVE",
"781 131 OFFCURVE",
"781 349 CURVE SMOOTH",
"781 568 OFFCURVE",
"620 714 OFFCURVE",
"411 714 CURVE SMOOTH",
"201 714 OFFCURVE",
"40 568 OFFCURVE",
"40 349 CURVE SMOOTH",
"40 131 OFFCURVE",
"201 -15 OFFCURVE",
"411 -15 CURVE SMOOTH"
);
},
{
closed = 1;
nodes = (
"277 100 OFFCURVE",
"168 195 OFFCURVE",
"168 349 CURVE SMOOTH",
"168 501 OFFCURVE",
"275 598 OFFCURVE",
"411 598 CURVE SMOOTH",
"546 598 OFFCURVE",
"653 501 OFFCURVE",
"653 349 CURVE SMOOTH",
"653 195 OFFCURVE",
"544 100 OFFCURVE",
"411 100 CURVE SMOOTH"
);
},
{
closed = 1;
nodes = (
"335 742 LINE",
"411 841 LINE",
"487 742 LINE",
"613 742 LINE",
"467 913 LINE",
"355 913 LINE",
"208 742 LINE"
);
}
);
width = 821;
}
);
leftKerningGroup = O;
note = Ocircumflex;
rightKerningGroup = O;
unicode = 00D4;
},
{
glyphname = Ocircumflexacute;
lastChange = "2015-11-30 00:46:21 +0000";
layers = (
{
layerId = "8C3E11F2-14C8-42F3-9A0B-AF341C1B554F";
name = Regular;
paths = (
{
closed = 1;
nodes = (
"620 -15 OFFCURVE",
"781 131 OFFCURVE",
"781 349 CURVE SMOOTH",
"781 568 OFFCURVE",
"620 714 OFFCURVE",
"411 714 CURVE SMOOTH",
"201 714 OFFCURVE",
"40 568 OFFCURVE",
"40 349 CURVE SMOOTH",
"40 131 OFFCURVE",
"201 -15 OFFCURVE",
"411 -15 CURVE SMOOTH"
);
},
{
closed = 1;
nodes = (
"277 100 OFFCURVE",
"168 195 OFFCURVE",
"168 349 CURVE SMOOTH",
"168 501 OFFCURVE",
"275 598 OFFCURVE",
"411 598 CURVE SMOOTH",
"546 598 OFFCURVE",
"653 501 OFFCURVE",
"653 349 CURVE SMOOTH",
"653 195 OFFCURVE",
"544 100 OFFCURVE",
"411 100 CURVE SMOOTH"
);
},
{
closed = 1;
nodes = (
"352 742 LINE",
"424 826 LINE",
"496 742 LINE",
"615 742 LINE",
"477 894 LINE",
"371 894 LINE",
"232 742 LINE"
);
},
{
closed = 1;
nodes = (
"661 841 LINE",
"738 969 LINE",
"621 969 LINE",
"560 841 LINE"
);
}
);
width = 821;
}
);
leftKerningGroup = O;
note = Ocircumflexacute;
rightKerningGroup = O;
unicode = 1ED0;
},
{
glyphname = Ocircumflexdotbelow;
lastChange = "2015-11-30 00:46:20 +0000";
layers = (
{
layerId = "8C3E11F2-14C8-42F3-9A0B-AF341C1B554F";
name = Regular;
paths = (
{
closed = 1;
nodes = (
"620 -15 OFFCURVE",
"781 131 OFFCURVE",
"781 349 CURVE SMOOTH",
"781 568 OFFCURVE",
"620 714 OFFCURVE",
"411 714 CURVE SMOOTH",
"201 714 OFFCURVE",
"40 568 OFFCURVE",
"40 349 CURVE SMOOTH",
"40 131 OFFCURVE",
"201 -15 OFFCURVE",
"411 -15 CURVE SMOOTH"
);
},
{
closed = 1;
nodes = (
"448 -179 OFFCURVE",
"478 -150 OFFCURVE",
"478 -113 CURVE SMOOTH",
"478 -76 OFFCURVE",
"448 -46 OFFCURVE",
"412 -46 CURVE SMOOTH",
"376 -46 OFFCURVE",
"345 -76 OFFCURVE",
"345 -113 CURVE SMOOTH",
"345 -150 OFFCURVE",
"376 -179 OFFCURVE",
"412 -179 CURVE SMOOTH"
);
},
{
closed = 1;
nodes = (
"277 100 OFFCURVE",
"168 195 OFFCURVE",
"168 349 CURVE SMOOTH",
"168 501 OFFCURVE",
"275 598 OFFCURVE",
"411 598 CURVE SMOOTH",
"546 598 OFFCURVE",
"653 501 OFFCURVE",
"653 349 CURVE SMOOTH",
"653 195 OFFCURVE",
"544 100 OFFCURVE",
"411 100 CURVE SMOOTH"
);
},
{
closed = 1;
nodes = (
"335 742 LINE",
"411 841 LINE",
"487 742 LINE",
"613 742 LINE",
"467 913 LINE",
"355 913 LINE",
"208 742 LINE"
);
}
);
width = 821;
}
);
leftKerningGroup = O;
note = Ocircumflexdotbelow;
rightKerningGroup = O;
unicode = 1ED8;
},
{
glyphname = Ocircumflexgrave;
lastChange = "2015-11-30 00:46:20 +0000";
layers = (
{
layerId = "8C3E11F2-14C8-42F3-9A0B-AF341C1B554F";
name = Regular;
paths = (
{
closed = 1;
nodes = (
"620 -15 OFFCURVE",
"781 131 OFFCURVE",
"781 349 CURVE SMOOTH",
"781 568 OFFCURVE",
"620 714 OFFCURVE",
"411 714 CURVE SMOOTH",
"201 714 OFFCURVE",
"40 568 OFFCURVE",
"40 349 CURVE SMOOTH",
"40 131 OFFCURVE",
"201 -15 OFFCURVE",
"411 -15 CURVE SMOOTH"
);
},
{
closed = 1;
nodes = (
"277 100 OFFCURVE",
"168 195 OFFCURVE",
"168 349 CURVE SMOOTH",
"168 501 OFFCURVE",
"275 598 OFFCURVE",
"411 598 CURVE SMOOTH",
"546 598 OFFCURVE",
"653 501 OFFCURVE",
"653 349 CURVE SMOOTH",
"653 195 OFFCURVE",
"544 100 OFFCURVE",
"411 100 CURVE SMOOTH"
);
},
{
closed = 1;
nodes = (
"280 841 LINE",
"219 969 LINE",
"102 969 LINE",
"179 841 LINE"
);
},
{
closed = 1;
nodes = (
"344 742 LINE",
"416 826 LINE",
"488 742 LINE",
"608 742 LINE",
"469 894 LINE",
"363 894 LINE",
"225 742 LINE"
);
}
);
width = 821;
}
);
leftKerningGroup = O;
note = Ocircumflexgrave;
rightKerningGroup = O;
unicode = 1ED2;
},
{
glyphname = Ocircumflexhookabove;
lastChange = "2015-11-30 00:46:20 +0000";
layers = (
{
layerId = "8C3E11F2-14C8-42F3-9A0B-AF341C1B554F";
name = Regular;
paths = (
{
closed = 1;
nodes = (
"620 -15 OFFCURVE",
"781 131 OFFCURVE",
"781 349 CURVE SMOOTH",
"781 568 OFFCURVE",
"620 714 OFFCURVE",
"411 714 CURVE SMOOTH",
"201 714 OFFCURVE",
"40 568 OFFCURVE",
"40 349 CURVE SMOOTH",
"40 131 OFFCURVE",
"201 -15 OFFCURVE",
"411 -15 CURVE SMOOTH"
);
},
{
closed = 1;
nodes = (
"277 100 OFFCURVE",
"168 195 OFFCURVE",
"168 349 CURVE SMOOTH",
"168 501 OFFCURVE",
"275 598 OFFCURVE",
"411 598 CURVE SMOOTH",
"546 598 OFFCURVE",
"653 501 OFFCURVE",
"653 349 CURVE SMOOTH",
"653 195 OFFCURVE",
"544 100 OFFCURVE",
"411 100 CURVE SMOOTH"
);
},
{
closed = 1;
nodes = (
"352 742 LINE",
"424 826 LINE",
"496 742 LINE",
"615 742 LINE",
"477 894 LINE",
"371 894 LINE",
"232 742 LINE"
);
},
{
closed = 1;
nodes = (
"639 830 LINE",
"639 854 LINE",
"679 861 OFFCURVE",
"703 885 OFFCURVE",
"703 919 CURVE SMOOTH",
"703 961 OFFCURVE",
"666 989 OFFCURVE",
"606 989 CURVE SMOOTH",
"582 989 OFFCURVE",
"552 984 OFFCURVE",
"534 978 CURVE",
"534 929 LINE",
"544 934 OFFCURVE",
"561 937 OFFCURVE",
"575 937 CURVE SMOOTH",
"603 937 OFFCURVE",
"617 932 OFFCURVE",
"617 911 CURVE SMOOTH",
"617 887 OFFCURVE",
"598 880 OFFCURVE",
"560 880 CURVE",
"560 830 LINE"
);
}
);
width = 821;
}
);
leftKerningGroup = O;
note = Ocircumflexhookabove;
rightKerningGroup = O;
unicode = 1ED4;
},
{
glyphname = Ocircumflextilde;
lastChange = "2015-11-30 00:46:21 +0000";
layers = (
{
layerId = "8C3E11F2-14C8-42F3-9A0B-AF341C1B554F";
name = Regular;
paths = (
{
closed = 1;
nodes = (
"620 -15 OFFCURVE",
"781 131 OFFCURVE",
"781 349 CURVE SMOOTH",
"781 568 OFFCURVE",
"620 714 OFFCURVE",
"411 714 CURVE SMOOTH",
"201 714 OFFCURVE",
"40 568 OFFCURVE",
"40 349 CURVE SMOOTH",
"40 131 OFFCURVE",
"201 -15 OFFCURVE",
"411 -15 CURVE SMOOTH"
);
},
{
closed = 1;
nodes = (
"277 100 OFFCURVE",
"168 195 OFFCURVE",
"168 349 CURVE SMOOTH",
"168 501 OFFCURVE",
"275 598 OFFCURVE",
"411 598 CURVE SMOOTH",
"546 598 OFFCURVE",
"653 501 OFFCURVE",
"653 349 CURVE SMOOTH",
"653 195 OFFCURVE",
"544 100 OFFCURVE",
"411 100 CURVE SMOOTH"
);
},
{
closed = 1;
nodes = (
"508 742 OFFCURVE",
"566 801 OFFCURVE",
"566 889 CURVE",
"474 889 LINE",
"474 846 OFFCURVE",
"451 824 OFFCURVE",
"410 824 CURVE SMOOTH",
"369 824 OFFCURVE",
"346 846 OFFCURVE",
"346 889 CURVE",
"254 889 LINE",
"254 801 OFFCURVE",
"312 742 OFFCURVE",
"410 742 CURVE SMOOTH"
);
},
{
closed = 1;
nodes = (
"523 925 OFFCURVE",
"549 935 OFFCURVE",
"566 959 CURVE",
"566 1049 LINE",
"544 1018 OFFCURVE",
"519 1007 OFFCURVE",
"488 1007 CURVE SMOOTH",
"440 1007 OFFCURVE",
"384 1050 OFFCURVE",
"334 1050 CURVE SMOOTH",
"299 1050 OFFCURVE",
"273 1040 OFFCURVE",
"256 1015 CURVE",
"256 926 LINE",
"279 957 OFFCURVE",
"303 968 OFFCURVE",
"334 968 CURVE SMOOTH",
"381 968 OFFCURVE",
"434 925 OFFCURVE",
"488 925 CURVE SMOOTH"
);
}
);
width = 821;
}
);
leftKerningGroup = O;
note = Ocircumflextilde;
rightKerningGroup = O;
unicode = 1ED6;
},
{
glyphname = Odieresis;
lastChange = "2015-11-30 00:46:21 +0000";
layers = (
{
layerId = "8C3E11F2-14C8-42F3-9A0B-AF341C1B554F";
name = Regular;
paths = (
{
closed = 1;
nodes = (
"620 -15 OFFCURVE",
"781 131 OFFCURVE",
"781 349 CURVE SMOOTH",
"781 568 OFFCURVE",
"620 714 OFFCURVE",
"411 714 CURVE SMOOTH",
"201 714 OFFCURVE",
"40 568 OFFCURVE",
"40 349 CURVE SMOOTH",
"40 131 OFFCURVE",
"201 -15 OFFCURVE",
"411 -15 CURVE SMOOTH"
);
},
{
closed = 1;
nodes = (
"277 100 OFFCURVE",
"168 195 OFFCURVE",
"168 349 CURVE SMOOTH",
"168 501 OFFCURVE",
"275 598 OFFCURVE",
"411 598 CURVE SMOOTH",
"546 598 OFFCURVE",
"653 501 OFFCURVE",
"653 349 CURVE SMOOTH",
"653 195 OFFCURVE",
"544 100 OFFCURVE",
"411 100 CURVE SMOOTH"
);
},
{
closed = 1;
nodes = (
"328 752 OFFCURVE",
"358 781 OFFCURVE",
"358 818 CURVE SMOOTH",
"358 855 OFFCURVE",
"328 885 OFFCURVE",
"292 885 CURVE SMOOTH",
"256 885 OFFCURVE",
"225 855 OFFCURVE",
"225 818 CURVE SMOOTH",
"225 781 OFFCURVE",
"256 752 OFFCURVE",
"292 752 CURVE SMOOTH"
);
},
{
closed = 1;
nodes = (
"565 752 OFFCURVE",
"595 781 OFFCURVE",
"595 818 CURVE SMOOTH",
"595 855 OFFCURVE",
"565 885 OFFCURVE",
"529 885 CURVE SMOOTH",
"493 885 OFFCURVE",
"462 855 OFFCURVE",
"462 818 CURVE SMOOTH",
"462 781 OFFCURVE",
"493 752 OFFCURVE",
"529 752 CURVE SMOOTH"
);
}
);
width = 821;
}
);
leftKerningGroup = O;
note = Odieresis;
rightKerningGroup = O;
unicode = 00D6;
},
{
glyphname = Odotbelow;
lastChange = "2015-11-30 00:46:19 +0000";
layers = (
{
layerId = "8C3E11F2-14C8-42F3-9A0B-AF341C1B554F";
name = Regular;
paths = (
{
closed = 1;
nodes = (
"620 -15 OFFCURVE",
"781 131 OFFCURVE",
"781 349 CURVE SMOOTH",
"781 568 OFFCURVE",
"620 714 OFFCURVE",
"411 714 CURVE SMOOTH",
"201 714 OFFCURVE",
"40 568 OFFCURVE",
"40 349 CURVE SMOOTH",
"40 131 OFFCURVE",
"201 -15 OFFCURVE",
"411 -15 CURVE SMOOTH"
);
},
{
closed = 1;
nodes = (
"447 -179 OFFCURVE",
"477 -150 OFFCURVE",
"477 -113 CURVE SMOOTH",
"477 -76 OFFCURVE",
"447 -46 OFFCURVE",
"411 -46 CURVE SMOOTH",
"375 -46 OFFCURVE",
"344 -76 OFFCURVE",
"344 -113 CURVE SMOOTH",
"344 -150 OFFCURVE",
"375 -179 OFFCURVE",
"411 -179 CURVE SMOOTH"
);
},
{
closed = 1;
nodes = (
"277 100 OFFCURVE",
"168 195 OFFCURVE",
"168 349 CURVE SMOOTH",
"168 501 OFFCURVE",
"275 598 OFFCURVE",
"411 598 CURVE SMOOTH",
"546 598 OFFCURVE",
"653 501 OFFCURVE",
"653 349 CURVE SMOOTH",
"653 195 OFFCURVE",
"544 100 OFFCURVE",
"411 100 CURVE SMOOTH"
);
}
);
width = 821;
}
);
leftKerningGroup = O;
note = Odotbelow;
rightKerningGroup = O;
unicode = 1ECC;
},
{
glyphname = Ograve;
lastChange = "2015-11-30 00:46:20 +0000";
layers = (
{
layerId = "8C3E11F2-14C8-42F3-9A0B-AF341C1B554F";
name = Regular;
paths = (
{
closed = 1;
nodes = (
"620 -15 OFFCURVE",
"781 131 OFFCURVE",
"781 349 CURVE SMOOTH",
"781 568 OFFCURVE",
"620 714 OFFCURVE",
"411 714 CURVE SMOOTH",
"201 714 OFFCURVE",
"40 568 OFFCURVE",
"40 349 CURVE SMOOTH",
"40 131 OFFCURVE",
"201 -15 OFFCURVE",
"411 -15 CURVE SMOOTH"
);
},
{
closed = 1;
nodes = (
"277 100 OFFCURVE",
"168 195 OFFCURVE",
"168 349 CURVE SMOOTH",
"168 501 OFFCURVE",
"275 598 OFFCURVE",
"411 598 CURVE SMOOTH",
"546 598 OFFCURVE",
"653 501 OFFCURVE",
"653 349 CURVE SMOOTH",
"653 195 OFFCURVE",
"544 100 OFFCURVE",
"411 100 CURVE SMOOTH"
);
},
{
closed = 1;
nodes = (
"477 742 LINE",
"408 916 LINE",
"275 916 LINE",
"361 742 LINE"
);
}
);
width = 821;
}
);
leftKerningGroup = O;
note = Ograve;
rightKerningGroup = O;
unicode = 00D2;
},
{
glyphname = Ohookabove;
lastChange = "2015-11-30 00:46:21 +0000";
layers = (
{
layerId = "8C3E11F2-14C8-42F3-9A0B-AF341C1B554F";
name = Regular;
paths = (
{
closed = 1;
nodes = (
"620 -15 OFFCURVE",
"781 131 OFFCURVE",
"781 349 CURVE SMOOTH",
"781 568 OFFCURVE",
"620 714 OFFCURVE",
"411 714 CURVE SMOOTH",
"201 714 OFFCURVE",
"40 568 OFFCURVE",
"40 349 CURVE SMOOTH",
"40 131 OFFCURVE",
"201 -15 OFFCURVE",
"411 -15 CURVE SMOOTH"
);
},
{
closed = 1;
nodes = (
"277 100 OFFCURVE",
"168 195 OFFCURVE",
"168 349 CURVE SMOOTH",
"168 501 OFFCURVE",
"275 598 OFFCURVE",
"411 598 CURVE SMOOTH",
"546 598 OFFCURVE",
"653 501 OFFCURVE",
"653 349 CURVE SMOOTH",
"653 195 OFFCURVE",
"544 100 OFFCURVE",
"411 100 CURVE SMOOTH"
);
},
{
closed = 1;
nodes = (
"461 742 LINE",
"461 776 LINE",
"520 785 OFFCURVE",
"552 822 OFFCURVE",
"552 870 CURVE SMOOTH",
"552 929 OFFCURVE",
"506 970 OFFCURVE",
"412 970 CURVE SMOOTH",
"376 970 OFFCURVE",
"337 963 OFFCURVE",
"314 956 CURVE",
"314 890 LINE",
"327 896 OFFCURVE",
"364 902 OFFCURVE",
"380 902 CURVE SMOOTH",
"425 902 OFFCURVE",
"442 891 OFFCURVE",
"442 865 CURVE SMOOTH",
"442 827 OFFCURVE",
"407 816 OFFCURVE",
"351 816 CURVE",
"351 742 LINE"
);
}
);
width = 821;
}
);
leftKerningGroup = O;
note = Ohookabove;
rightKerningGroup = O;
unicode = 1ECE;
},
{
glyphname = Ohorn;
lastChange = "2015-11-30 00:46:19 +0000";
layers = (
{
layerId = "8C3E11F2-14C8-42F3-9A0B-AF341C1B554F";
name = Regular;
paths = (
{
closed = 1;
nodes = (
"620 -15 OFFCURVE",
"781 131 OFFCURVE",
"781 349 CURVE SMOOTH",
"781 418 OFFCURVE",
"765 480 OFFCURVE",
"736 532 CURVE",
"815 553 OFFCURVE",
"862 623 OFFCURVE",
"862 705 CURVE SMOOTH",
"862 747 LINE",
"745 747 LINE",
"745 712 LINE SMOOTH",
"745 647 OFFCURVE",
"726 627 OFFCURVE",
"660 626 CURVE",
"595 682 OFFCURVE",
"508 714 OFFCURVE",
"411 714 CURVE SMOOTH",
"201 714 OFFCURVE",
"40 568 OFFCURVE",
"40 349 CURVE SMOOTH",
"40 131 OFFCURVE",
"201 -15 OFFCURVE",
"411 -15 CURVE SMOOTH"
);
},
{
closed = 1;
nodes = (
"280 106 OFFCURVE",
"174 199 OFFCURVE",
"174 349 CURVE SMOOTH",
"174 497 OFFCURVE",
"278 592 OFFCURVE",
"411 592 CURVE SMOOTH",
"543 592 OFFCURVE",
"647 497 OFFCURVE",
"647 349 CURVE SMOOTH",
"647 199 OFFCURVE",
"541 106 OFFCURVE",
"411 106 CURVE SMOOTH"
);
}
);
width = 872;
}
);
leftKerningGroup = O;
note = Ohorn;
rightKerningGroup = O;
unicode = 01A0;
},
{
glyphname = Ohornacute;
lastChange = "2015-11-30 00:46:21 +0000";
layers = (
{
layerId = "8C3E11F2-14C8-42F3-9A0B-AF341C1B554F";
name = Regular;
paths = (
{
closed = 1;
nodes = (
"620 -15 OFFCURVE",
"781 131 OFFCURVE",
"781 349 CURVE SMOOTH",
"781 418 OFFCURVE",
"765 480 OFFCURVE",
"736 532 CURVE",
"815 553 OFFCURVE",
"862 623 OFFCURVE",
"862 705 CURVE SMOOTH",
"862 747 LINE",
"745 747 LINE",
"745 712 LINE SMOOTH",
"745 647 OFFCURVE",
"726 627 OFFCURVE",
"660 626 CURVE",
"595 682 OFFCURVE",
"508 714 OFFCURVE",
"411 714 CURVE SMOOTH",
"201 714 OFFCURVE",
"40 568 OFFCURVE",
"40 349 CURVE SMOOTH",
"40 131 OFFCURVE",
"201 -15 OFFCURVE",
"411 -15 CURVE SMOOTH"
);
},
{
closed = 1;
nodes = (
"280 106 OFFCURVE",
"174 199 OFFCURVE",
"174 349 CURVE SMOOTH",
"174 497 OFFCURVE",
"278 592 OFFCURVE",
"411 592 CURVE SMOOTH",
"543 592 OFFCURVE",
"647 497 OFFCURVE",
"647 349 CURVE SMOOTH",
"647 199 OFFCURVE",
"541 106 OFFCURVE",
"411 106 CURVE SMOOTH"
);
},
{
closed = 1;
nodes = (
"472 742 LINE",
"558 916 LINE",
"425 916 LINE",
"356 742 LINE"
);
}
);
width = 872;
}
);
leftKerningGroup = O;
note = Ohornacute;
rightKerningGroup = O;
unicode = 1EDA;
},
{
glyphname = Ohorndotbelow;
lastChange = "2015-11-30 00:46:20 +0000";
layers = (
{
layerId = "8C3E11F2-14C8-42F3-9A0B-AF341C1B554F";
name = Regular;
paths = (
{
closed = 1;
nodes = (
"620 -15 OFFCURVE",
"781 131 OFFCURVE",
"781 349 CURVE SMOOTH",
"781 418 OFFCURVE",
"765 480 OFFCURVE",
"736 532 CURVE",
"815 553 OFFCURVE",
"862 623 OFFCURVE",
"862 705 CURVE SMOOTH",
"862 747 LINE",
"745 747 LINE",
"745 712 LINE SMOOTH",
"745 647 OFFCURVE",
"726 627 OFFCURVE",
"660 626 CURVE",
"595 682 OFFCURVE",
"508 714 OFFCURVE",
"411 714 CURVE SMOOTH",
"201 714 OFFCURVE",
"40 568 OFFCURVE",
"40 349 CURVE SMOOTH",
"40 131 OFFCURVE",
"201 -15 OFFCURVE",
"411 -15 CURVE SMOOTH"
);
},
{
closed = 1;
nodes = (
"441 -179 OFFCURVE",
"471 -150 OFFCURVE",
"471 -113 CURVE SMOOTH",
"471 -76 OFFCURVE",
"441 -46 OFFCURVE",
"405 -46 CURVE SMOOTH",
"369 -46 OFFCURVE",
"338 -76 OFFCURVE",
"338 -113 CURVE SMOOTH",
"338 -150 OFFCURVE",
"369 -179 OFFCURVE",
"405 -179 CURVE SMOOTH"
);
},
{
closed = 1;
nodes = (
"280 106 OFFCURVE",
"174 199 OFFCURVE",
"174 349 CURVE SMOOTH",
"174 497 OFFCURVE",
"278 592 OFFCURVE",
"411 592 CURVE SMOOTH",
"543 592 OFFCURVE",
"647 497 OFFCURVE",
"647 349 CURVE SMOOTH",
"647 199 OFFCURVE",
"541 106 OFFCURVE",
"411 106 CURVE SMOOTH"
);
}
);
width = 872;
}
);
leftKerningGroup = O;
note = Ohorndotbelow;
rightKerningGroup = O;
unicode = 1EE2;
},
{
glyphname = Ohorngrave;
lastChange = "2015-11-30 00:46:19 +0000";
layers = (
{
layerId = "8C3E11F2-14C8-42F3-9A0B-AF341C1B554F";
name = Regular;
paths = (
{
closed = 1;
nodes = (
"620 -15 OFFCURVE",
"781 131 OFFCURVE",
"781 349 CURVE SMOOTH",
"781 418 OFFCURVE",
"765 480 OFFCURVE",
"736 532 CURVE",
"815 553 OFFCURVE",
"862 623 OFFCURVE",
"862 705 CURVE SMOOTH",
"862 747 LINE",
"745 747 LINE",
"745 712 LINE SMOOTH",
"745 647 OFFCURVE",
"726 627 OFFCURVE",
"660 626 CURVE",
"595 682 OFFCURVE",
"508 714 OFFCURVE",
"411 714 CURVE SMOOTH",
"201 714 OFFCURVE",
"40 568 OFFCURVE",
"40 349 CURVE SMOOTH",
"40 131 OFFCURVE",
"201 -15 OFFCURVE",
"411 -15 CURVE SMOOTH"
);
},
{
closed = 1;
nodes = (
"280 106 OFFCURVE",
"174 199 OFFCURVE",
"174 349 CURVE SMOOTH",
"174 497 OFFCURVE",
"278 592 OFFCURVE",
"411 592 CURVE SMOOTH",
"543 592 OFFCURVE",
"647 497 OFFCURVE",
"647 349 CURVE SMOOTH",
"647 199 OFFCURVE",
"541 106 OFFCURVE",
"411 106 CURVE SMOOTH"
);
},
{
closed = 1;
nodes = (
"459 742 LINE",
"390 916 LINE",
"257 916 LINE",
"343 742 LINE"
);
}
);
width = 872;
}
);
leftKerningGroup = O;
note = Ohorngrave;
rightKerningGroup = O;
unicode = 1EDC;
},
{
glyphname = Ohornhookabove;
lastChange = "2015-11-30 00:46:18 +0000";
layers = (
{
layerId = "8C3E11F2-14C8-42F3-9A0B-AF341C1B554F";
name = Regular;
paths = (
{
closed = 1;
nodes = (
"620 -15 OFFCURVE",
"781 131 OFFCURVE",
"781 349 CURVE SMOOTH",
"781 418 OFFCURVE",
"765 480 OFFCURVE",
"736 532 CURVE",
"815 553 OFFCURVE",
"862 623 OFFCURVE",
"862 705 CURVE SMOOTH",
"862 747 LINE",
"745 747 LINE",
"745 712 LINE SMOOTH",
"745 647 OFFCURVE",
"726 627 OFFCURVE",
"660 626 CURVE",
"595 682 OFFCURVE",
"508 714 OFFCURVE",
"411 714 CURVE SMOOTH",
"201 714 OFFCURVE",
"40 568 OFFCURVE",
"40 349 CURVE SMOOTH",
"40 131 OFFCURVE",
"201 -15 OFFCURVE",
"411 -15 CURVE SMOOTH"
);
},
{
closed = 1;
nodes = (
"280 106 OFFCURVE",
"174 199 OFFCURVE",
"174 349 CURVE SMOOTH",
"174 497 OFFCURVE",
"278 592 OFFCURVE",
"411 592 CURVE SMOOTH",
"543 592 OFFCURVE",
"647 497 OFFCURVE",
"647 349 CURVE SMOOTH",
"647 199 OFFCURVE",
"541 106 OFFCURVE",
"411 106 CURVE SMOOTH"
);
},
{
closed = 1;
nodes = (
"464 742 LINE",
"464 776 LINE",
"523 785 OFFCURVE",
"555 822 OFFCURVE",
"555 870 CURVE SMOOTH",
"555 929 OFFCURVE",
"509 970 OFFCURVE",
"415 970 CURVE SMOOTH",
"379 970 OFFCURVE",
"340 963 OFFCURVE",
"317 956 CURVE",
"317 890 LINE",
"330 896 OFFCURVE",
"367 902 OFFCURVE",
"383 902 CURVE SMOOTH",
"428 902 OFFCURVE",
"445 891 OFFCURVE",
"445 865 CURVE SMOOTH",
"445 827 OFFCURVE",
"410 816 OFFCURVE",
"354 816 CURVE",
"354 742 LINE"
);
}
);
width = 872;
}
);
leftKerningGroup = O;
note = Ohornhookabove;
rightKerningGroup = O;
unicode = 1EDE;
},
{
glyphname = Ohorntilde;
lastChange = "2015-11-30 00:46:20 +0000";
layers = (
{
layerId = "8C3E11F2-14C8-42F3-9A0B-AF341C1B554F";
name = Regular;
paths = (
{
closed = 1;
nodes = (
"620 -15 OFFCURVE",
"781 131 OFFCURVE",
"781 349 CURVE SMOOTH",
"781 418 OFFCURVE",
"765 480 OFFCURVE",
"736 532 CURVE",
"815 553 OFFCURVE",
"862 623 OFFCURVE",
"862 705 CURVE SMOOTH",
"862 747 LINE",
"745 747 LINE",
"745 712 LINE SMOOTH",
"745 647 OFFCURVE",
"726 627 OFFCURVE",
"660 626 CURVE",
"595 682 OFFCURVE",
"508 714 OFFCURVE",
"411 714 CURVE SMOOTH",
"201 714 OFFCURVE",
"40 568 OFFCURVE",
"40 349 CURVE SMOOTH",
"40 131 OFFCURVE",
"201 -15 OFFCURVE",
"411 -15 CURVE SMOOTH"
);
},
{
closed = 1;
nodes = (
"280 106 OFFCURVE",
"174 199 OFFCURVE",
"174 349 CURVE SMOOTH",
"174 497 OFFCURVE",
"278 592 OFFCURVE",
"411 592 CURVE SMOOTH",
"543 592 OFFCURVE",
"647 497 OFFCURVE",
"647 349 CURVE SMOOTH",
"647 199 OFFCURVE",
"541 106 OFFCURVE",
"411 106 CURVE SMOOTH"
);
},
{
closed = 1;
nodes = (
"261 781 OFFCURVE",
"294 794 OFFCURVE",
"331 794 CURVE SMOOTH",
"395 794 OFFCURVE",
"447 744 OFFCURVE",
"520 744 CURVE SMOOTH",
"562 744 OFFCURVE",
"597 755 OFFCURVE",
"620 786 CURVE",
"620 889 LINE",
"592 851 OFFCURVE",
"558 838 OFFCURVE",
"520 838 CURVE SMOOTH",
"455 838 OFFCURVE",
"399 888 OFFCURVE",
"331 888 CURVE SMOOTH",
"290 888 OFFCURVE",
"254 876 OFFCURVE",
"231 845 CURVE",
"231 742 LINE"
);
}
);
width = 872;
}
);
leftKerningGroup = O;
note = Ohorntilde;
rightKerningGroup = O;
unicode = 1EE0;
},
{
glyphname = Ohungarumlaut;
lastChange = "2015-11-30 00:46:20 +0000";
layers = (
{
layerId = "8C3E11F2-14C8-42F3-9A0B-AF341C1B554F";
name = Regular;
paths = (
{
closed = 1;
nodes = (
"620 -15 OFFCURVE",
"781 131 OFFCURVE",
"781 349 CURVE SMOOTH",
"781 568 OFFCURVE",
"620 714 OFFCURVE",
"411 714 CURVE SMOOTH",
"201 714 OFFCURVE",
"40 568 OFFCURVE",
"40 349 CURVE SMOOTH",
"40 131 OFFCURVE",
"201 -15 OFFCURVE",
"411 -15 CURVE SMOOTH"
);
},
{
closed = 1;
nodes = (
"277 100 OFFCURVE",
"168 195 OFFCURVE",
"168 349 CURVE SMOOTH",
"168 501 OFFCURVE",
"275 598 OFFCURVE",
"411 598 CURVE SMOOTH",
"546 598 OFFCURVE",
"653 501 OFFCURVE",
"653 349 CURVE SMOOTH",
"653 195 OFFCURVE",
"544 100 OFFCURVE",
"411 100 CURVE SMOOTH"
);
},
{
closed = 1;
nodes = (
"341 742 LINE",
"427 916 LINE",
"304 916 LINE",
"235 742 LINE"
);
},
{
closed = 1;
nodes = (
"564 742 LINE",
"650 916 LINE",
"528 916 LINE",
"458 742 LINE"
);
}
);
width = 821;
}
);
leftKerningGroup = O;
note = Ohungarumlaut;
rightKerningGroup = O;
unicode = 0150;
},
{
glyphname = Omacron;
lastChange = "2015-11-30 00:46:20 +0000";
layers = (
{
layerId = "8C3E11F2-14C8-42F3-9A0B-AF341C1B554F";
name = Regular;
paths = (
{
closed = 1;
nodes = (
"620 -15 OFFCURVE",
"781 131 OFFCURVE",
"781 349 CURVE SMOOTH",
"781 568 OFFCURVE",
"620 714 OFFCURVE",
"411 714 CURVE SMOOTH",
"201 714 OFFCURVE",
"40 568 OFFCURVE",
"40 349 CURVE SMOOTH",
"40 131 OFFCURVE",
"201 -15 OFFCURVE",
"411 -15 CURVE SMOOTH"
);
},
{
closed = 1;
nodes = (
"277 100 OFFCURVE",
"168 195 OFFCURVE",
"168 349 CURVE SMOOTH",
"168 501 OFFCURVE",
"275 598 OFFCURVE",
"411 598 CURVE SMOOTH",
"546 598 OFFCURVE",
"653 501 OFFCURVE",
"653 349 CURVE SMOOTH",
"653 195 OFFCURVE",
"544 100 OFFCURVE",
"411 100 CURVE SMOOTH"
);
},
{
closed = 1;
nodes = (
"572 752 LINE",
"572 836 LINE",
"249 836 LINE",
"249 752 LINE"
);
}
);
width = 821;
}
);
leftKerningGroup = O;
note = Omacron;
rightKerningGroup = O;
unicode = 014C;
},
{
glyphname = Oslash;
lastChange = "2015-11-30 00:46:20 +0000";
layers = (
{
layerId = "8C3E11F2-14C8-42F3-9A0B-AF341C1B554F";
name = Regular;
paths = (
{
closed = 1;
nodes = (
"299 -86 LINE",
"330 -7 LINE",
"356 -12 OFFCURVE",
"383 -15 OFFCURVE",
"411 -15 CURVE SMOOTH",
"620 -15 OFFCURVE",
"781 131 OFFCURVE",
"781 349 CURVE SMOOTH",
"781 494 OFFCURVE",
"710 606 OFFCURVE",
"602 666 CURVE",
"649 784 LINE",
"525 784 LINE",
"493 706 LINE",
"467 711 OFFCURVE",
"439 714 OFFCURVE",
"411 714 CURVE SMOOTH",
"201 714 OFFCURVE",
"40 568 OFFCURVE",
"40 349 CURVE SMOOTH",
"40 203 OFFCURVE",
"112 90 OFFCURVE",
"222 30 CURVE",
"175 -86 LINE"
);
},
{
closed = 1;
nodes = (
"207 185 OFFCURVE",
"168 256 OFFCURVE",
"168 349 CURVE SMOOTH",
"168 501 OFFCURVE",
"275 598 OFFCURVE",
"411 598 CURVE SMOOTH",
"424 598 OFFCURVE",
"436 597 OFFCURVE",
"449 595 CURVE",
"267 143 LINE"
);
},
{
closed = 1;
nodes = (
"399 100 OFFCURVE",
"386 101 OFFCURVE",
"375 102 CURVE",
"556 553 LINE",
"615 510 OFFCURVE",
"653 439 OFFCURVE",
"653 349 CURVE SMOOTH",
"653 195 OFFCURVE",
"544 100 OFFCURVE",
"411 100 CURVE SMOOTH"
);
}
);
width = 821;
}
);
leftKerningGroup = O;
note = Oslash;
rightKerningGroup = O;
unicode = 00D8;
},
{
glyphname = Oslashacute;
lastChange = "2015-11-30 00:46:20 +0000";
layers = (
{
layerId = "8C3E11F2-14C8-42F3-9A0B-AF341C1B554F";
name = Regular;
paths = (
{
closed = 1;
nodes = (
"299 -86 LINE",
"330 -7 LINE",
"356 -12 OFFCURVE",
"383 -15 OFFCURVE",
"411 -15 CURVE SMOOTH",
"620 -15 OFFCURVE",
"781 131 OFFCURVE",
"781 349 CURVE SMOOTH",
"781 494 OFFCURVE",
"710 606 OFFCURVE",
"602 666 CURVE",
"649 784 LINE",
"525 784 LINE",
"493 706 LINE",
"467 711 OFFCURVE",
"439 714 OFFCURVE",
"411 714 CURVE SMOOTH",
"201 714 OFFCURVE",
"40 568 OFFCURVE",
"40 349 CURVE SMOOTH",
"40 203 OFFCURVE",
"112 90 OFFCURVE",
"222 30 CURVE",
"175 -86 LINE"
);
},
{
closed = 1;
nodes = (
"207 185 OFFCURVE",
"168 256 OFFCURVE",
"168 349 CURVE SMOOTH",
"168 501 OFFCURVE",
"275 598 OFFCURVE",
"411 598 CURVE SMOOTH",
"424 598 OFFCURVE",
"436 597 OFFCURVE",
"449 595 CURVE",
"267 143 LINE"
);
},
{
closed = 1;
nodes = (
"399 100 OFFCURVE",
"386 101 OFFCURVE",
"375 102 CURVE",
"556 553 LINE",
"615 510 OFFCURVE",
"653 439 OFFCURVE",
"653 349 CURVE SMOOTH",
"653 195 OFFCURVE",
"544 100 OFFCURVE",
"411 100 CURVE SMOOTH"
);
},
{
closed = 1;
nodes = (
"466 742 LINE",
"552 916 LINE",
"419 916 LINE",
"350 742 LINE"
);
}
);
width = 821;
}
);
leftKerningGroup = O;
note = Oslashacute;
rightKerningGroup = O;
unicode = 01FE;
},
{
glyphname = Otilde;
lastChange = "2015-11-30 00:46:21 +0000";
layers = (
{
layerId = "8C3E11F2-14C8-42F3-9A0B-AF341C1B554F";
name = Regular;
paths = (
{
closed = 1;
nodes = (
"620 -15 OFFCURVE",
"781 131 OFFCURVE",
"781 349 CURVE SMOOTH",
"781 568 OFFCURVE",
"620 714 OFFCURVE",
"411 714 CURVE SMOOTH",
"201 714 OFFCURVE",
"40 568 OFFCURVE",
"40 349 CURVE SMOOTH",
"40 131 OFFCURVE",
"201 -15 OFFCURVE",
"411 -15 CURVE SMOOTH"
);
},
{
closed = 1;
nodes = (
"277 100 OFFCURVE",
"168 195 OFFCURVE",
"168 349 CURVE SMOOTH",
"168 501 OFFCURVE",
"275 598 OFFCURVE",
"411 598 CURVE SMOOTH",
"546 598 OFFCURVE",
"653 501 OFFCURVE",
"653 349 CURVE SMOOTH",
"653 195 OFFCURVE",
"544 100 OFFCURVE",
"411 100 CURVE SMOOTH"
);
},
{
closed = 1;
nodes = (
"247 781 OFFCURVE",
"280 794 OFFCURVE",
"317 794 CURVE SMOOTH",
"381 794 OFFCURVE",
"433 744 OFFCURVE",
"506 744 CURVE SMOOTH",
"548 744 OFFCURVE",
"583 755 OFFCURVE",
"606 786 CURVE",
"606 889 LINE",
"578 851 OFFCURVE",
"544 838 OFFCURVE",
"506 838 CURVE SMOOTH",
"441 838 OFFCURVE",
"385 888 OFFCURVE",
"317 888 CURVE SMOOTH",
"276 888 OFFCURVE",
"240 876 OFFCURVE",
"217 845 CURVE",
"217 742 LINE"
);
}
);
width = 821;
}
);
leftKerningGroup = O;
note = Otilde;
rightKerningGroup = O;
unicode = 00D5;
},
{
glyphname = OE;
lastChange = "2015-11-30 00:46:19 +0000";
layers = (
{
layerId = "8C3E11F2-14C8-42F3-9A0B-AF341C1B554F";
name = Regular;
paths = (
{
closed = 1;
nodes = (
"854 0 LINE",
"854 105 LINE",
"554 105 LINE",
"554 297 LINE",
"765 297 LINE",
"765 402 LINE",
"554 402 LINE",
"554 594 LINE",
"854 594 LINE",
"854 699 LINE",
"423 699 LINE SMOOTH",
"204 699 OFFCURVE",
"40 568 OFFCURVE",
"40 349 CURVE SMOOTH",
"40 131 OFFCURVE",
"204 0 OFFCURVE",
"423 0 CURVE SMOOTH"
);
},
{
closed = 1;
nodes = (
"271 105 OFFCURVE",
"168 197 OFFCURVE",
"168 349 CURVE SMOOTH",
"168 500 OFFCURVE",
"271 594 OFFCURVE",
"414 594 CURVE SMOOTH",
"427 594 LINE",
"427 105 LINE",
"414 105 LINE SMOOTH"
);
}
);
width = 894;
}
);
leftKerningGroup = O;
note = OE;
rightKerningGroup = E;
unicode = 0152;
},
{
glyphname = P;
lastChange = "2015-11-30 00:46:20 +0000";
layers = (
{
layerId = "8C3E11F2-14C8-42F3-9A0B-AF341C1B554F";
name = Regular;
paths = (
{
closed = 1;
nodes = (
"187 0 LINE",
"187 246 LINE",
"339 246 LINE SMOOTH",
"491 246 OFFCURVE",
"594 321 OFFCURVE",
"594 471 CURVE SMOOTH",
"594 615 OFFCURVE",
"491 699 OFFCURVE",
"340 699 CURVE SMOOTH",
"60 699 LINE",
"60 0 LINE"
);
},
{
closed = 1;
nodes = (
"187 594 LINE",
"324 594 LINE SMOOTH",
"401 594 OFFCURVE",
"467 567 OFFCURVE",
"467 471 CURVE SMOOTH",
"467 377 OFFCURVE",
"401 351 OFFCURVE",
"324 351 CURVE SMOOTH",
"187 351 LINE"
);
}
);
width = 614;
}
);
note = P;
unicode = 0050;
},
{
glyphname = Thorn;
lastChange = "2015-11-30 00:46:21 +0000";
layers = (
{
layerId = "8C3E11F2-14C8-42F3-9A0B-AF341C1B554F";
name = Regular;
paths = (
{
closed = 1;
nodes = (
"187 0 LINE",
"187 133 LINE",
"348 133 LINE SMOOTH",
"500 133 OFFCURVE",
"594 201 OFFCURVE",
"594 351 CURVE SMOOTH",
"594 501 OFFCURVE",
"500 570 OFFCURVE",
"348 570 CURVE SMOOTH",
"187 570 LINE",
"187 699 LINE",
"60 699 LINE",
"60 0 LINE"
);
},
{
closed = 1;
nodes = (
"187 465 LINE",
"324 465 LINE SMOOTH",
"401 465 OFFCURVE",
"467 446 OFFCURVE",
"467 351 CURVE SMOOTH",
"467 257 OFFCURVE",
"401 238 OFFCURVE",
"324 238 CURVE SMOOTH",
"187 238 LINE"
);
}
);
width = 614;
}
);
note = Thorn;
unicode = 00DE;
},
{
glyphname = Q;
lastChange = "2015-11-30 00:46:19 +0000";
layers = (
{
layerId = "8C3E11F2-14C8-42F3-9A0B-AF341C1B554F";
name = Regular;
paths = (
{
closed = 1;
nodes = (
"794 0 LINE",
"794 111 LINE",
"666 111 LINE",
"733 161 OFFCURVE",
"781 254 OFFCURVE",
"781 352 CURVE SMOOTH",
"781 571 OFFCURVE",
"620 714 OFFCURVE",
"411 714 CURVE SMOOTH",
"201 714 OFFCURVE",
"40 571 OFFCURVE",
"40 352 CURVE SMOOTH",
"40 137 OFFCURVE",
"192 0 OFFCURVE",
"427 0 CURVE SMOOTH"
);
},
{
closed = 1;
nodes = (
"264 115 OFFCURVE",
"168 198 OFFCURVE",
"168 352 CURVE SMOOTH",
"168 504 OFFCURVE",
"275 598 OFFCURVE",
"411 598 CURVE SMOOTH",
"546 598 OFFCURVE",
"653 504 OFFCURVE",
"653 352 CURVE SMOOTH",
"653 199 OFFCURVE",
"556 115 OFFCURVE",
"411 115 CURVE SMOOTH"
);
}
);
width = 814;
}
);
leftKerningGroup = O;
note = Q;
rightKerningGroup = O;
unicode = 0051;
},
{
glyphname = R;
lastChange = "2015-11-30 00:46:18 +0000";
layers = (
{
layerId = "8C3E11F2-14C8-42F3-9A0B-AF341C1B554F";
name = Regular;
paths = (
{
closed = 1;
nodes = (
"187 0 LINE",
"187 256 LINE",
"325 256 LINE",
"460 0 LINE",
"590 0 LINE",
"448 269 LINE",
"541 299 OFFCURVE",
"594 374 OFFCURVE",
"594 477 CURVE SMOOTH",
"594 622 OFFCURVE",
"505 699 OFFCURVE",
"352 699 CURVE SMOOTH",
"60 699 LINE",
"60 0 LINE"
);
},
{
closed = 1;
nodes = (
"187 594 LINE",
"329 594 LINE SMOOTH",
"406 594 OFFCURVE",
"467 567 OFFCURVE",
"467 477 CURVE SMOOTH",
"467 397 OFFCURVE",
"408 361 OFFCURVE",
"329 361 CURVE SMOOTH",
"187 361 LINE"
);
}
);
width = 634;
}
);
note = R;
rightKerningGroup = R;
unicode = 0052;
},
{
glyphname = Racute;
lastChange = "2015-11-30 00:46:20 +0000";
layers = (
{
layerId = "8C3E11F2-14C8-42F3-9A0B-AF341C1B554F";
name = Regular;
paths = (
{
closed = 1;
nodes = (
"187 0 LINE",
"187 256 LINE",
"325 256 LINE",
"460 0 LINE",
"590 0 LINE",
"448 269 LINE",
"541 299 OFFCURVE",
"594 374 OFFCURVE",
"594 477 CURVE SMOOTH",
"594 622 OFFCURVE",
"505 699 OFFCURVE",
"352 699 CURVE SMOOTH",
"60 699 LINE",
"60 0 LINE"
);
},
{
closed = 1;
nodes = (
"187 594 LINE",
"329 594 LINE SMOOTH",
"406 594 OFFCURVE",
"467 567 OFFCURVE",
"467 477 CURVE SMOOTH",
"467 397 OFFCURVE",
"408 361 OFFCURVE",
"329 361 CURVE SMOOTH",
"187 361 LINE"
);
},
{
closed = 1;
nodes = (
"335 742 LINE",
"421 916 LINE",
"288 916 LINE",
"219 742 LINE"
);
}
);
width = 634;
}
);
note = Racute;
rightKerningGroup = R;
unicode = 0154;
},
{
glyphname = Rcaron;
lastChange = "2015-11-30 00:46:20 +0000";
layers = (
{
layerId = "8C3E11F2-14C8-42F3-9A0B-AF341C1B554F";
name = Regular;
paths = (
{
closed = 1;
nodes = (
"187 0 LINE",
"187 256 LINE",
"325 256 LINE",
"460 0 LINE",
"590 0 LINE",
"448 269 LINE",
"541 299 OFFCURVE",
"594 374 OFFCURVE",
"594 477 CURVE SMOOTH",
"594 622 OFFCURVE",
"505 699 OFFCURVE",
"352 699 CURVE SMOOTH",
"60 699 LINE",
"60 0 LINE"
);
},
{
closed = 1;
nodes = (
"187 594 LINE",
"329 594 LINE SMOOTH",
"406 594 OFFCURVE",
"467 567 OFFCURVE",
"467 477 CURVE SMOOTH",
"467 397 OFFCURVE",
"408 361 OFFCURVE",
"329 361 CURVE SMOOTH",
"187 361 LINE"
);
},
{
closed = 1;
nodes = (
"327 742 LINE",
"473 913 LINE",
"347 913 LINE",
"271 813 LINE",
"195 913 LINE",
"68 913 LINE",
"215 742 LINE"
);
}
);
width = 634;
}
);
note = Rcaron;
rightKerningGroup = R;
unicode = 0158;
},
{
glyphname = Rcommaaccent;
lastChange = "2015-11-30 00:46:20 +0000";
layers = (
{
layerId = "8C3E11F2-14C8-42F3-9A0B-AF341C1B554F";
name = Regular;
paths = (
{
closed = 1;
nodes = (
"187 0 LINE",
"187 256 LINE",
"325 256 LINE",
"460 0 LINE",
"590 0 LINE",
"448 269 LINE",
"541 299 OFFCURVE",
"594 374 OFFCURVE",
"594 477 CURVE SMOOTH",
"594 622 OFFCURVE",
"505 699 OFFCURVE",
"352 699 CURVE SMOOTH",
"60 699 LINE",
"60 0 LINE"
);
},
{
closed = 1;
nodes = (
"279 -259 LINE",
"377 -56 LINE",
"246 -56 LINE",
"164 -259 LINE"
);
},
{
closed = 1;
nodes = (
"187 594 LINE",
"329 594 LINE SMOOTH",
"406 594 OFFCURVE",
"467 567 OFFCURVE",
"467 477 CURVE SMOOTH",
"467 397 OFFCURVE",
"408 361 OFFCURVE",
"329 361 CURVE SMOOTH",
"187 361 LINE"
);
}
);
width = 634;
}
);
note = Rcommaaccent;
rightKerningGroup = R;
unicode = 0156;
},
{
glyphname = Rdotbelow;
lastChange = "2015-11-30 00:46:19 +0000";
layers = (
{
layerId = "8C3E11F2-14C8-42F3-9A0B-AF341C1B554F";
name = Regular;
paths = (
{
closed = 1;
nodes = (
"187 0 LINE",
"187 256 LINE",
"325 256 LINE",
"460 0 LINE",
"590 0 LINE",
"448 269 LINE",
"541 299 OFFCURVE",
"594 374 OFFCURVE",
"594 477 CURVE SMOOTH",
"594 622 OFFCURVE",
"505 699 OFFCURVE",
"352 699 CURVE SMOOTH",
"60 699 LINE",
"60 0 LINE"
);
},
{
closed = 1;
nodes = (
"342 -179 OFFCURVE",
"372 -150 OFFCURVE",
"372 -113 CURVE SMOOTH",
"372 -76 OFFCURVE",
"342 -46 OFFCURVE",
"306 -46 CURVE SMOOTH",
"270 -46 OFFCURVE",
"239 -76 OFFCURVE",
"239 -113 CURVE SMOOTH",
"239 -150 OFFCURVE",
"270 -179 OFFCURVE",
"306 -179 CURVE SMOOTH"
);
},
{
closed = 1;
nodes = (
"187 594 LINE",
"329 594 LINE SMOOTH",
"406 594 OFFCURVE",
"467 567 OFFCURVE",
"467 477 CURVE SMOOTH",
"467 397 OFFCURVE",
"408 361 OFFCURVE",
"329 361 CURVE SMOOTH",
"187 361 LINE"
);
}
);
width = 634;
}
);
note = Rdotbelow;
rightKerningGroup = R;
unicode = 1E5A;
},
{
glyphname = Rdotbelowmacron;
lastChange = "2015-11-30 00:46:18 +0000";
layers = (
{
layerId = "8C3E11F2-14C8-42F3-9A0B-AF341C1B554F";
name = Regular;
paths = (
{
closed = 1;
nodes = (
"187 0 LINE",
"187 256 LINE",
"325 256 LINE",
"460 0 LINE",
"590 0 LINE",
"448 269 LINE",
"541 299 OFFCURVE",
"594 374 OFFCURVE",
"594 477 CURVE SMOOTH",
"594 622 OFFCURVE",
"505 699 OFFCURVE",
"352 699 CURVE SMOOTH",
"60 699 LINE",
"60 0 LINE"
);
},
{
closed = 1;
nodes = (
"322 -179 OFFCURVE",
"352 -150 OFFCURVE",
"352 -113 CURVE SMOOTH",
"352 -76 OFFCURVE",
"322 -46 OFFCURVE",
"286 -46 CURVE SMOOTH",
"250 -46 OFFCURVE",
"219 -76 OFFCURVE",
"219 -113 CURVE SMOOTH",
"219 -150 OFFCURVE",
"250 -179 OFFCURVE",
"286 -179 CURVE SMOOTH"
);
},
{
closed = 1;
nodes = (
"187 594 LINE",
"329 594 LINE SMOOTH",
"406 594 OFFCURVE",
"467 567 OFFCURVE",
"467 477 CURVE SMOOTH",
"467 397 OFFCURVE",
"408 361 OFFCURVE",
"329 361 CURVE SMOOTH",
"187 361 LINE"
);
},
{
closed = 1;
nodes = (
"446 752 LINE",
"446 836 LINE",
"123 836 LINE",
"123 752 LINE"
);
}
);
width = 634;
}
);
note = Rdotbelowmacron;
rightKerningGroup = R;
unicode = 1E5C;
},
{
glyphname = Rlinebelow;
lastChange = "2015-11-30 00:46:20 +0000";
layers = (
{
layerId = "8C3E11F2-14C8-42F3-9A0B-AF341C1B554F";
name = Regular;
paths = (
{
closed = 1;
nodes = (
"187 0 LINE",
"187 256 LINE",
"325 256 LINE",
"460 0 LINE",
"590 0 LINE",
"448 269 LINE",
"541 299 OFFCURVE",
"594 374 OFFCURVE",
"594 477 CURVE SMOOTH",
"594 622 OFFCURVE",
"505 699 OFFCURVE",
"352 699 CURVE SMOOTH",
"60 699 LINE",
"60 0 LINE"
);
},
{
closed = 1;
nodes = (
"466 -151 LINE",
"466 -68 LINE",
"143 -68 LINE",
"143 -151 LINE"
);
},
{
closed = 1;
nodes = (
"187 594 LINE",
"329 594 LINE SMOOTH",
"406 594 OFFCURVE",
"467 567 OFFCURVE",
"467 477 CURVE SMOOTH",
"467 397 OFFCURVE",
"408 361 OFFCURVE",
"329 361 CURVE SMOOTH",
"187 361 LINE"
);
}
);
width = 634;
}
);
note = Rlinebelow;
rightKerningGroup = R;
unicode = 1E5E;
},
{
glyphname = S;
lastChange = "2015-11-30 00:46:14 +0000";
layers = (
{
layerId = "8C3E11F2-14C8-42F3-9A0B-AF341C1B554F";
name = Regular;
paths = (
{
closed = 1;
nodes = (
"441 -15 OFFCURVE",
"527 60 OFFCURVE",
"527 181 CURVE SMOOTH",
"527 291 OFFCURVE",
"466 340 OFFCURVE",
"335 395 CURVE SMOOTH",
"230 439 OFFCURVE",
"181 456 OFFCURVE",
"181 521 CURVE SMOOTH",
"181 579 OFFCURVE",
"230 611 OFFCURVE",
"315 611 CURVE SMOOTH",
"376 611 OFFCURVE",
"433 597 OFFCURVE",
"491 569 CURVE",
"491 675 LINE",
"432 702 OFFCURVE",
"373 714 OFFCURVE",
"293 714 CURVE SMOOTH",
"145 714 OFFCURVE",
"46 636 OFFCURVE",
"46 521 CURVE SMOOTH",
"46 422 OFFCURVE",
"103 362 OFFCURVE",
"232 310 CURVE SMOOTH",
"341 267 OFFCURVE",
"390 246 OFFCURVE",
"390 182 CURVE SMOOTH",
"390 125 OFFCURVE",
"344 88 OFFCURVE",
"253 88 CURVE SMOOTH",
"185 88 OFFCURVE",
"109 103 OFFCURVE",
"40 136 CURVE",
"40 27 LINE",
"92 1 OFFCURVE",
"180 -15 OFFCURVE",
"262 -15 CURVE SMOOTH"
);
}
);
width = 567;
}
);
leftKerningGroup = S;
note = S;
rightKerningGroup = S;
unicode = 0053;
},
{
glyphname = Sacute;
lastChange = "2015-11-30 00:46:19 +0000";
layers = (
{
layerId = "8C3E11F2-14C8-42F3-9A0B-AF341C1B554F";
name = Regular;
paths = (
{
closed = 1;
nodes = (
"441 -15 OFFCURVE",
"527 60 OFFCURVE",
"527 181 CURVE SMOOTH",
"527 291 OFFCURVE",
"466 340 OFFCURVE",
"335 395 CURVE SMOOTH",
"230 439 OFFCURVE",
"181 456 OFFCURVE",
"181 521 CURVE SMOOTH",
"181 579 OFFCURVE",
"230 611 OFFCURVE",
"315 611 CURVE SMOOTH",
"376 611 OFFCURVE",
"433 597 OFFCURVE",
"491 569 CURVE",
"491 675 LINE",
"432 702 OFFCURVE",
"373 714 OFFCURVE",
"293 714 CURVE SMOOTH",
"145 714 OFFCURVE",
"46 636 OFFCURVE",
"46 521 CURVE SMOOTH",
"46 422 OFFCURVE",
"103 362 OFFCURVE",
"232 310 CURVE SMOOTH",
"341 267 OFFCURVE",
"390 246 OFFCURVE",
"390 182 CURVE SMOOTH",
"390 125 OFFCURVE",
"344 88 OFFCURVE",
"253 88 CURVE SMOOTH",
"185 88 OFFCURVE",
"109 103 OFFCURVE",
"40 136 CURVE",
"40 27 LINE",
"92 1 OFFCURVE",
"180 -15 OFFCURVE",
"262 -15 CURVE SMOOTH"
);
},
{
closed = 1;
nodes = (
"336 742 LINE",
"422 916 LINE",
"289 916 LINE",
"220 742 LINE"
);
}
);
width = 567;
}
);
leftKerningGroup = S;
note = Sacute;
rightKerningGroup = S;
unicode = 015A;
},
{
glyphname = Scaron;
lastChange = "2015-11-30 00:46:20 +0000";
layers = (
{
layerId = "8C3E11F2-14C8-42F3-9A0B-AF341C1B554F";
name = Regular;
paths = (
{
closed = 1;
nodes = (
"441 -15 OFFCURVE",
"527 60 OFFCURVE",
"527 181 CURVE SMOOTH",
"527 291 OFFCURVE",
"466 340 OFFCURVE",
"335 395 CURVE SMOOTH",
"230 439 OFFCURVE",
"181 456 OFFCURVE",
"181 521 CURVE SMOOTH",
"181 579 OFFCURVE",
"230 611 OFFCURVE",
"315 611 CURVE SMOOTH",
"376 611 OFFCURVE",
"433 597 OFFCURVE",
"491 569 CURVE",
"491 675 LINE",
"432 702 OFFCURVE",
"373 714 OFFCURVE",
"293 714 CURVE SMOOTH",
"145 714 OFFCURVE",
"46 636 OFFCURVE",
"46 521 CURVE SMOOTH",
"46 422 OFFCURVE",
"103 362 OFFCURVE",
"232 310 CURVE SMOOTH",
"341 267 OFFCURVE",
"390 246 OFFCURVE",
"390 182 CURVE SMOOTH",
"390 125 OFFCURVE",
"344 88 OFFCURVE",
"253 88 CURVE SMOOTH",
"185 88 OFFCURVE",
"109 103 OFFCURVE",
"40 136 CURVE",
"40 27 LINE",
"92 1 OFFCURVE",
"180 -15 OFFCURVE",
"262 -15 CURVE SMOOTH"
);
},
{
closed = 1;
nodes = (
"347 742 LINE",
"493 913 LINE",
"367 913 LINE",
"291 813 LINE",
"215 913 LINE",
"88 913 LINE",
"235 742 LINE"
);
}
);
width = 567;
}
);
leftKerningGroup = S;
note = Scaron;
rightKerningGroup = S;
unicode = 0160;
},
{
glyphname = Scedilla;
lastChange = "2015-11-30 00:46:18 +0000";
layers = (
{
layerId = "8C3E11F2-14C8-42F3-9A0B-AF341C1B554F";
name = Regular;
paths = (
{
closed = 1;
nodes = (
"441 -15 OFFCURVE",
"527 60 OFFCURVE",
"527 181 CURVE SMOOTH",
"527 291 OFFCURVE",
"466 340 OFFCURVE",
"335 395 CURVE SMOOTH",
"230 439 OFFCURVE",
"181 456 OFFCURVE",
"181 521 CURVE SMOOTH",
"181 579 OFFCURVE",
"230 611 OFFCURVE",
"315 611 CURVE SMOOTH",
"376 611 OFFCURVE",
"433 597 OFFCURVE",
"491 569 CURVE",
"491 675 LINE",
"432 702 OFFCURVE",
"373 714 OFFCURVE",
"293 714 CURVE SMOOTH",
"145 714 OFFCURVE",
"46 636 OFFCURVE",
"46 521 CURVE SMOOTH",
"46 422 OFFCURVE",
"103 362 OFFCURVE",
"232 310 CURVE SMOOTH",
"341 267 OFFCURVE",
"390 246 OFFCURVE",
"390 182 CURVE SMOOTH",
"390 125 OFFCURVE",
"344 88 OFFCURVE",
"253 88 CURVE SMOOTH",
"185 88 OFFCURVE",
"109 103 OFFCURVE",
"40 136 CURVE",
"40 27 LINE",
"92 1 OFFCURVE",
"180 -15 OFFCURVE",
"262 -15 CURVE SMOOTH"
);
},
{
closed = 1;
nodes = (
"334 -248 OFFCURVE",
"391 -213 OFFCURVE",
"391 -150 CURVE SMOOTH",
"391 -97 OFFCURVE",
"359 -59 OFFCURVE",
"301 -52 CURVE",
"321 0 LINE",
"208 0 LINE",
"175 -85 LINE",
"248 -85 OFFCURVE",
"274 -108 OFFCURVE",
"274 -138 CURVE SMOOTH",
"274 -166 OFFCURVE",
"253 -179 OFFCURVE",
"215 -179 CURVE SMOOTH",
"195 -179 OFFCURVE",
"171 -174 OFFCURVE",
"157 -167 CURVE",
"156 -236 LINE",
"174 -243 OFFCURVE",
"210 -248 OFFCURVE",
"247 -248 CURVE SMOOTH"
);
}
);
width = 567;
}
);
leftKerningGroup = S;
note = Scedilla;
rightKerningGroup = S;
unicode = 015E;
},
{
glyphname = Scircumflex;
lastChange = "2015-11-30 00:46:20 +0000";
layers = (
{
layerId = "8C3E11F2-14C8-42F3-9A0B-AF341C1B554F";
name = Regular;
paths = (
{
closed = 1;
nodes = (
"441 -15 OFFCURVE",
"527 60 OFFCURVE",
"527 181 CURVE SMOOTH",
"527 291 OFFCURVE",
"466 340 OFFCURVE",
"335 395 CURVE SMOOTH",
"230 439 OFFCURVE",
"181 456 OFFCURVE",
"181 521 CURVE SMOOTH",
"181 579 OFFCURVE",
"230 611 OFFCURVE",
"315 611 CURVE SMOOTH",
"376 611 OFFCURVE",
"433 597 OFFCURVE",
"491 569 CURVE",
"491 675 LINE",
"432 702 OFFCURVE",
"373 714 OFFCURVE",
"293 714 CURVE SMOOTH",
"145 714 OFFCURVE",
"46 636 OFFCURVE",
"46 521 CURVE SMOOTH",
"46 422 OFFCURVE",
"103 362 OFFCURVE",
"232 310 CURVE SMOOTH",
"341 267 OFFCURVE",
"390 246 OFFCURVE",
"390 182 CURVE SMOOTH",
"390 125 OFFCURVE",
"344 88 OFFCURVE",
"253 88 CURVE SMOOTH",
"185 88 OFFCURVE",
"109 103 OFFCURVE",
"40 136 CURVE",
"40 27 LINE",
"92 1 OFFCURVE",
"180 -15 OFFCURVE",
"262 -15 CURVE SMOOTH"
);
},
{
closed = 1;
nodes = (
"201 742 LINE",
"277 841 LINE",
"353 742 LINE",
"479 742 LINE",
"333 913 LINE",
"221 913 LINE",
"74 742 LINE"
);
}
);
width = 567;
}
);
leftKerningGroup = S;
note = Scircumflex;
rightKerningGroup = S;
unicode = 015C;
},
{
glyphname = Scommaaccent;
lastChange = "2015-11-30 00:46:20 +0000";
layers = (
{
layerId = "8C3E11F2-14C8-42F3-9A0B-AF341C1B554F";
name = Regular;
paths = (
{
closed = 1;
nodes = (
"441 -15 OFFCURVE",
"527 60 OFFCURVE",
"527 181 CURVE SMOOTH",
"527 291 OFFCURVE",
"466 340 OFFCURVE",
"335 395 CURVE SMOOTH",
"230 439 OFFCURVE",
"181 456 OFFCURVE",
"181 521 CURVE SMOOTH",
"181 579 OFFCURVE",
"230 611 OFFCURVE",
"315 611 CURVE SMOOTH",
"376 611 OFFCURVE",
"433 597 OFFCURVE",
"491 569 CURVE",
"491 675 LINE",
"432 702 OFFCURVE",
"373 714 OFFCURVE",
"293 714 CURVE SMOOTH",
"145 714 OFFCURVE",
"46 636 OFFCURVE",
"46 521 CURVE SMOOTH",
"46 422 OFFCURVE",
"103 362 OFFCURVE",
"232 310 CURVE SMOOTH",
"341 267 OFFCURVE",
"390 246 OFFCURVE",
"390 182 CURVE SMOOTH",
"390 125 OFFCURVE",
"344 88 OFFCURVE",
"253 88 CURVE SMOOTH",
"185 88 OFFCURVE",
"109 103 OFFCURVE",
"40 136 CURVE",
"40 27 LINE",
"92 1 OFFCURVE",
"180 -15 OFFCURVE",
"262 -15 CURVE SMOOTH"
);
},
{
closed = 1;
nodes = (
"237 -259 LINE",
"335 -56 LINE",
"204 -56 LINE",
"122 -259 LINE"
);
}
);
width = 567;
}
);
leftKerningGroup = S;
note = Scommaaccent;
rightKerningGroup = S;
unicode = 0218;
},
{
glyphname = Sdotaccent;
lastChange = "2015-11-30 00:46:19 +0000";
layers = (
{
layerId = "8C3E11F2-14C8-42F3-9A0B-AF341C1B554F";
name = Regular;
paths = (
{
closed = 1;
nodes = (
"441 -15 OFFCURVE",
"527 60 OFFCURVE",
"527 181 CURVE SMOOTH",
"527 291 OFFCURVE",
"466 340 OFFCURVE",
"335 395 CURVE SMOOTH",
"230 439 OFFCURVE",
"181 456 OFFCURVE",
"181 521 CURVE SMOOTH",
"181 579 OFFCURVE",
"230 611 OFFCURVE",
"315 611 CURVE SMOOTH",
"376 611 OFFCURVE",
"433 597 OFFCURVE",
"491 569 CURVE",
"491 675 LINE",
"432 702 OFFCURVE",
"373 714 OFFCURVE",
"293 714 CURVE SMOOTH",
"145 714 OFFCURVE",
"46 636 OFFCURVE",
"46 521 CURVE SMOOTH",
"46 422 OFFCURVE",
"103 362 OFFCURVE",
"232 310 CURVE SMOOTH",
"341 267 OFFCURVE",
"390 246 OFFCURVE",
"390 182 CURVE SMOOTH",
"390 125 OFFCURVE",
"344 88 OFFCURVE",
"253 88 CURVE SMOOTH",
"185 88 OFFCURVE",
"109 103 OFFCURVE",
"40 136 CURVE",
"40 27 LINE",
"92 1 OFFCURVE",
"180 -15 OFFCURVE",
"262 -15 CURVE SMOOTH"
);
},
{
closed = 1;
nodes = (
"327 752 OFFCURVE",
"357 781 OFFCURVE",
"357 818 CURVE SMOOTH",
"357 855 OFFCURVE",
"327 885 OFFCURVE",
"291 885 CURVE SMOOTH",
"255 885 OFFCURVE",
"224 855 OFFCURVE",
"224 818 CURVE SMOOTH",
"224 781 OFFCURVE",
"255 752 OFFCURVE",
"291 752 CURVE SMOOTH"
);
}
);
width = 567;
}
);
leftKerningGroup = S;
note = Sdotaccent;
rightKerningGroup = S;
unicode = 1E60;
},
{
glyphname = Sdotbelow;
lastChange = "2015-11-30 00:46:21 +0000";
layers = (
{
layerId = "8C3E11F2-14C8-42F3-9A0B-AF341C1B554F";
name = Regular;
paths = (
{
closed = 1;
nodes = (
"441 -15 OFFCURVE",
"527 60 OFFCURVE",
"527 181 CURVE SMOOTH",
"527 291 OFFCURVE",
"466 340 OFFCURVE",
"335 395 CURVE SMOOTH",
"230 439 OFFCURVE",
"181 456 OFFCURVE",
"181 521 CURVE SMOOTH",
"181 579 OFFCURVE",
"230 611 OFFCURVE",
"315 611 CURVE SMOOTH",
"376 611 OFFCURVE",
"433 597 OFFCURVE",
"491 569 CURVE",
"491 675 LINE",
"432 702 OFFCURVE",
"373 714 OFFCURVE",
"293 714 CURVE SMOOTH",
"145 714 OFFCURVE",
"46 636 OFFCURVE",
"46 521 CURVE SMOOTH",
"46 422 OFFCURVE",
"103 362 OFFCURVE",
"232 310 CURVE SMOOTH",
"341 267 OFFCURVE",
"390 246 OFFCURVE",
"390 182 CURVE SMOOTH",
"390 125 OFFCURVE",
"344 88 OFFCURVE",
"253 88 CURVE SMOOTH",
"185 88 OFFCURVE",
"109 103 OFFCURVE",
"40 136 CURVE",
"40 27 LINE",
"92 1 OFFCURVE",
"180 -15 OFFCURVE",
"262 -15 CURVE SMOOTH"
);
},
{
closed = 1;
nodes = (
"305 -179 OFFCURVE",
"335 -150 OFFCURVE",
"335 -113 CURVE SMOOTH",
"335 -76 OFFCURVE",
"305 -46 OFFCURVE",
"269 -46 CURVE SMOOTH",
"233 -46 OFFCURVE",
"202 -76 OFFCURVE",
"202 -113 CURVE SMOOTH",
"202 -150 OFFCURVE",
"233 -179 OFFCURVE",
"269 -179 CURVE SMOOTH"
);
}
);
width = 567;
}
);
leftKerningGroup = S;
note = Sdotbelow;
rightKerningGroup = S;
unicode = 1E62;
},
{
glyphname = Germandbls;
lastChange = "2015-11-30 00:46:14 +0000";
layers = (
{
layerId = "8C3E11F2-14C8-42F3-9A0B-AF341C1B554F";
name = Regular;
paths = (
{
closed = 1;
nodes = (
"520 -15 OFFCURVE",
"598 73 OFFCURVE",
"598 199 CURVE SMOOTH",
"598 307 OFFCURVE",
"554 373 OFFCURVE",
"443 392 CURVE",
"550 502 LINE",
"544 617 OFFCURVE",
"460 714 OFFCURVE",
"302 714 CURVE SMOOTH",
"134 714 OFFCURVE",
"55 616 OFFCURVE",
"55 459 CURVE SMOOTH",
"55 0 LINE",
"181 0 LINE",
"181 463 LINE SMOOTH",
"181 553 OFFCURVE",
"229 598 OFFCURVE",
"302 598 CURVE SMOOTH",
"364 598 OFFCURVE",
"405 564 OFFCURVE",
"415 524 CURVE",
"281 386 LINE",
"281 315 LINE",
"324 315 LINE SMOOTH",
"403 315 OFFCURVE",
"470 289 OFFCURVE",
"470 205 CURVE SMOOTH",
"470 135 OFFCURVE",
"423 100 OFFCURVE",
"341 100 CURVE SMOOTH",
"302 100 OFFCURVE",
"269 106 OFFCURVE",
"240 121 CURVE",
"240 4 LINE",
"273 -10 OFFCURVE",
"322 -15 OFFCURVE",
"370 -15 CURVE SMOOTH"
);
}
);
width = 638;
}
);
note = uni1E9E;
unicode = 1E9E;
},
{
glyphname = Schwa;
lastChange = "2015-11-30 00:46:19 +0000";
layers = (
{
layerId = "8C3E11F2-14C8-42F3-9A0B-AF341C1B554F";
name = Regular;
paths = (
{
closed = 1;
nodes = (
"655 -15 OFFCURVE",
"786 130 OFFCURVE",
"786 351 CURVE SMOOTH",
"786 582 OFFCURVE",
"634 714 OFFCURVE",
"376 714 CURVE SMOOTH",
"273 714 OFFCURVE",
"167 693 OFFCURVE",
"105 668 CURVE",
"105 565 LINE",
"171 591 OFFCURVE",
"270 609 OFFCURVE",
"358 609 CURVE SMOOTH",
"528 609 OFFCURVE",
"638 527 OFFCURVE",
"651 395 CURVE",
"40 395 LINE",
"40 335 LINE SMOOTH",
"40 138 OFFCURVE",
"163 -15 OFFCURVE",
"411 -15 CURVE SMOOTH"
);
},
{
closed = 1;
nodes = (
"243 87 OFFCURVE",
"168 177 OFFCURVE",
"162 300 CURVE",
"652 300 LINE",
"645 177 OFFCURVE",
"570 87 OFFCURVE",
"408 87 CURVE SMOOTH"
);
}
);
width = 826;
}
);
note = uni018F;
unicode = 018F;
},
{
glyphname = T;
lastChange = "2015-11-30 00:46:14 +0000";
layers = (
{
layerId = "8C3E11F2-14C8-42F3-9A0B-AF341C1B554F";
name = Regular;
paths = (
{
closed = 1;
nodes = (
"358 0 LINE",
"358 594 LINE",
"569 594 LINE",
"569 699 LINE",
"20 699 LINE",
"20 594 LINE",
"231 594 LINE",
"231 0 LINE"
);
}
);
width = 589;
}
);
leftKerningGroup = T;
note = T;
rightKerningGroup = T;
unicode = 0054;
},
{
glyphname = Tbar;
lastChange = "2015-11-30 00:46:14 +0000";
layers = (
{
layerId = "8C3E11F2-14C8-42F3-9A0B-AF341C1B554F";
name = Regular;
paths = (
{
closed = 1;
nodes = (
"361 0 LINE",
"361 279 LINE",
"480 279 LINE",
"480 386 LINE",
"361 386 LINE",
"361 587 LINE",
"569 587 LINE",
"569 699 LINE",
"20 699 LINE",
"20 587 LINE",
"228 587 LINE",
"228 386 LINE",
"110 386 LINE",
"110 279 LINE",
"228 279 LINE",
"228 0 LINE"
);
}
);
width = 589;
}
);
leftKerningGroup = T;
note = Tbar;
rightKerningGroup = T;
unicode = 0166;
},
{
glyphname = Tcaron;
lastChange = "2015-11-30 00:46:19 +0000";
layers = (
{
layerId = "8C3E11F2-14C8-42F3-9A0B-AF341C1B554F";
name = Regular;
paths = (
{
closed = 1;
nodes = (
"358 0 LINE",
"358 594 LINE",
"569 594 LINE",
"569 699 LINE",
"20 699 LINE",
"20 594 LINE",
"231 594 LINE",
"231 0 LINE"
);
},
{
closed = 1;
nodes = (
"351 742 LINE",
"497 913 LINE",
"371 913 LINE",
"295 813 LINE",
"219 913 LINE",
"92 913 LINE",
"239 742 LINE"
);
}
);
width = 589;
}
);
leftKerningGroup = T;
note = Tcaron;
rightKerningGroup = T;
unicode = 0164;
},
{
glyphname = Tcedilla;
lastChange = "2015-11-30 00:46:19 +0000";
layers = (
{
layerId = "8C3E11F2-14C8-42F3-9A0B-AF341C1B554F";
name = Regular;
paths = (
{
closed = 1;
nodes = (
"358 0 LINE",
"358 594 LINE",
"569 594 LINE",
"569 699 LINE",
"20 699 LINE",
"20 594 LINE",
"231 594 LINE",
"231 0 LINE"
);
},
{
closed = 1;
nodes = (
"365 -248 OFFCURVE",
"422 -213 OFFCURVE",
"422 -150 CURVE SMOOTH",
"422 -97 OFFCURVE",
"390 -59 OFFCURVE",
"332 -52 CURVE",
"352 0 LINE",
"239 0 LINE",
"206 -85 LINE",
"279 -85 OFFCURVE",
"305 -108 OFFCURVE",
"305 -138 CURVE SMOOTH",
"305 -166 OFFCURVE",
"284 -179 OFFCURVE",
"246 -179 CURVE SMOOTH",
"226 -179 OFFCURVE",
"202 -174 OFFCURVE",
"188 -167 CURVE",
"187 -236 LINE",
"205 -243 OFFCURVE",
"241 -248 OFFCURVE",
"278 -248 CURVE SMOOTH"
);
}
);
width = 589;
}
);
leftKerningGroup = T;
note = Tcedilla;
rightKerningGroup = T;
unicode = 0162;
},
{
glyphname = Tcommaaccent;
lastChange = "2015-11-30 00:46:19 +0000";
layers = (
{
layerId = "8C3E11F2-14C8-42F3-9A0B-AF341C1B554F";
name = Regular;
paths = (
{
closed = 1;
nodes = (
"358 0 LINE",
"358 594 LINE",
"569 594 LINE",
"569 699 LINE",
"20 699 LINE",
"20 594 LINE",
"231 594 LINE",
"231 0 LINE"
);
},
{
closed = 1;
nodes = (
"259 -259 LINE",
"357 -56 LINE",
"226 -56 LINE",
"144 -259 LINE"
);
}
);
width = 589;
}
);
leftKerningGroup = T;
note = Tcommaaccent;
rightKerningGroup = T;
unicode = 021A;
},
{
glyphname = Tdotbelow;
lastChange = "2015-11-30 00:46:21 +0000";
layers = (
{
layerId = "8C3E11F2-14C8-42F3-9A0B-AF341C1B554F";
name = Regular;
paths = (
{
closed = 1;
nodes = (
"358 0 LINE",
"358 594 LINE",
"569 594 LINE",
"569 699 LINE",
"20 699 LINE",
"20 594 LINE",
"231 594 LINE",
"231 0 LINE"
);
},
{
closed = 1;
nodes = (
"331 -179 OFFCURVE",
"361 -150 OFFCURVE",
"361 -113 CURVE SMOOTH",
"361 -76 OFFCURVE",
"331 -46 OFFCURVE",
"295 -46 CURVE SMOOTH",
"259 -46 OFFCURVE",
"228 -76 OFFCURVE",
"228 -113 CURVE SMOOTH",
"228 -150 OFFCURVE",
"259 -179 OFFCURVE",
"295 -179 CURVE SMOOTH"
);
}
);
width = 589;
}
);
leftKerningGroup = T;
note = Tdotbelow;
rightKerningGroup = T;
unicode = 1E6C;
},
{
glyphname = Tlinebelow;
lastChange = "2015-11-30 00:46:21 +0000";
layers = (
{
layerId = "8C3E11F2-14C8-42F3-9A0B-AF341C1B554F";
name = Regular;
paths = (
{
closed = 1;
nodes = (
"358 0 LINE",
"358 594 LINE",
"569 594 LINE",
"569 699 LINE",
"20 699 LINE",
"20 594 LINE",
"231 594 LINE",
"231 0 LINE"
);
},
{
closed = 1;
nodes = (
"456 -151 LINE",
"456 -68 LINE",
"133 -68 LINE",
"133 -151 LINE"
);
}
);
width = 589;
}
);
leftKerningGroup = T;
note = Tlinebelow;
rightKerningGroup = T;
unicode = 1E6E;
},
{
glyphname = U;
lastChange = "2015-11-30 00:46:14 +0000";
layers = (
{
layerId = "8C3E11F2-14C8-42F3-9A0B-AF341C1B554F";
name = Regular;
paths = (
{
closed = 1;
nodes = (
"557 -15 OFFCURVE",
"652 102 OFFCURVE",
"652 272 CURVE SMOOTH",
"652 699 LINE",
"525 699 LINE",
"525 270 LINE SMOOTH",
"525 157 OFFCURVE",
"455 100 OFFCURVE",
"354 100 CURVE SMOOTH",
"252 100 OFFCURVE",
"182 157 OFFCURVE",
"182 270 CURVE SMOOTH",
"182 699 LINE",
"55 699 LINE",
"55 272 LINE SMOOTH",
"55 102 OFFCURVE",
"150 -15 OFFCURVE",
"354 -15 CURVE SMOOTH"
);
}
);
width = 707;
}
);
leftKerningGroup = U;
note = U;
rightKerningGroup = U;
unicode = 0055;
},
{
glyphname = Uacute;
lastChange = "2015-11-30 00:46:20 +0000";
layers = (
{
layerId = "8C3E11F2-14C8-42F3-9A0B-AF341C1B554F";
name = Regular;
paths = (
{
closed = 1;
nodes = (
"557 -15 OFFCURVE",
"652 102 OFFCURVE",
"652 272 CURVE SMOOTH",
"652 699 LINE",
"525 699 LINE",
"525 270 LINE SMOOTH",
"525 157 OFFCURVE",
"455 100 OFFCURVE",
"354 100 CURVE SMOOTH",
"252 100 OFFCURVE",
"182 157 OFFCURVE",
"182 270 CURVE SMOOTH",
"182 699 LINE",
"55 699 LINE",
"55 272 LINE SMOOTH",
"55 102 OFFCURVE",
"150 -15 OFFCURVE",
"354 -15 CURVE SMOOTH"
);
},
{
closed = 1;
nodes = (
"405 742 LINE",
"491 916 LINE",
"358 916 LINE",
"289 742 LINE"
);
}
);
width = 707;
}
);
leftKerningGroup = U;
note = Uacute;
rightKerningGroup = U;
unicode = 00DA;
},
{
glyphname = Ubreve;
lastChange = "2015-11-30 00:46:21 +0000";
layers = (
{
layerId = "8C3E11F2-14C8-42F3-9A0B-AF341C1B554F";
name = Regular;
paths = (
{
closed = 1;
nodes = (
"557 -15 OFFCURVE",
"652 102 OFFCURVE",
"652 272 CURVE SMOOTH",
"652 699 LINE",
"525 699 LINE",
"525 270 LINE SMOOTH",
"525 157 OFFCURVE",
"455 100 OFFCURVE",
"354 100 CURVE SMOOTH",
"252 100 OFFCURVE",
"182 157 OFFCURVE",
"182 270 CURVE SMOOTH",
"182 699 LINE",
"55 699 LINE",
"55 272 LINE SMOOTH",
"55 102 OFFCURVE",
"150 -15 OFFCURVE",
"354 -15 CURVE SMOOTH"
);
},
{
closed = 1;
nodes = (
"454 742 OFFCURVE",
"514 803 OFFCURVE",
"514 893 CURVE",
"419 893 LINE",
"419 849 OFFCURVE",
"395 826 OFFCURVE",
"353 826 CURVE SMOOTH",
"311 826 OFFCURVE",
"287 849 OFFCURVE",
"287 893 CURVE",
"192 893 LINE",
"192 803 OFFCURVE",
"252 742 OFFCURVE",
"353 742 CURVE SMOOTH"
);
}
);
width = 707;
}
);
leftKerningGroup = U;
note = Ubreve;
rightKerningGroup = U;
unicode = 016C;
},
{
glyphname = Ucaron;
lastChange = "2015-11-30 00:46:20 +0000";
layers = (
{
layerId = "8C3E11F2-14C8-42F3-9A0B-AF341C1B554F";
name = Regular;
paths = (
{
closed = 1;
nodes = (
"557 -15 OFFCURVE",
"652 102 OFFCURVE",
"652 272 CURVE SMOOTH",
"652 699 LINE",
"525 699 LINE",
"525 270 LINE SMOOTH",
"525 157 OFFCURVE",
"455 100 OFFCURVE",
"354 100 CURVE SMOOTH",
"252 100 OFFCURVE",
"182 157 OFFCURVE",
"182 270 CURVE SMOOTH",
"182 699 LINE",
"55 699 LINE",
"55 272 LINE SMOOTH",
"55 102 OFFCURVE",
"150 -15 OFFCURVE",
"354 -15 CURVE SMOOTH"
);
},
{
closed = 1;
nodes = (
"410 742 LINE",
"556 913 LINE",
"430 913 LINE",
"354 813 LINE",
"278 913 LINE",
"151 913 LINE",
"298 742 LINE"
);
}
);
width = 707;
}
);
leftKerningGroup = U;
note = Ucaron;
rightKerningGroup = U;
unicode = 01D3;
},
{
glyphname = Ucircumflex;
lastChange = "2015-11-30 00:46:20 +0000";
layers = (
{
layerId = "8C3E11F2-14C8-42F3-9A0B-AF341C1B554F";
name = Regular;
paths = (
{
closed = 1;
nodes = (
"557 -15 OFFCURVE",
"652 102 OFFCURVE",
"652 272 CURVE SMOOTH",
"652 699 LINE",
"525 699 LINE",
"525 270 LINE SMOOTH",
"525 157 OFFCURVE",
"455 100 OFFCURVE",
"354 100 CURVE SMOOTH",
"252 100 OFFCURVE",
"182 157 OFFCURVE",
"182 270 CURVE SMOOTH",
"182 699 LINE",
"55 699 LINE",
"55 272 LINE SMOOTH",
"55 102 OFFCURVE",
"150 -15 OFFCURVE",
"354 -15 CURVE SMOOTH"
);
},
{
closed = 1;
nodes = (
"278 742 LINE",
"354 841 LINE",
"430 742 LINE",
"556 742 LINE",
"410 913 LINE",
"298 913 LINE",
"151 742 LINE"
);
}
);
width = 707;
}
);
leftKerningGroup = U;
note = Ucircumflex;
rightKerningGroup = U;
unicode = 00DB;
},
{
glyphname = Udieresis;
lastChange = "2015-11-30 00:46:20 +0000";
layers = (
{
layerId = "8C3E11F2-14C8-42F3-9A0B-AF341C1B554F";
name = Regular;
paths = (
{
closed = 1;
nodes = (
"557 -15 OFFCURVE",
"652 102 OFFCURVE",
"652 272 CURVE SMOOTH",
"652 699 LINE",
"525 699 LINE",
"525 270 LINE SMOOTH",
"525 157 OFFCURVE",
"455 100 OFFCURVE",
"354 100 CURVE SMOOTH",
"252 100 OFFCURVE",
"182 157 OFFCURVE",
"182 270 CURVE SMOOTH",
"182 699 LINE",
"55 699 LINE",
"55 272 LINE SMOOTH",
"55 102 OFFCURVE",
"150 -15 OFFCURVE",
"354 -15 CURVE SMOOTH"
);
},
{
closed = 1;
nodes = (
"271 752 OFFCURVE",
"301 781 OFFCURVE",
"301 818 CURVE SMOOTH",
"301 855 OFFCURVE",
"271 885 OFFCURVE",
"235 885 CURVE SMOOTH",
"199 885 OFFCURVE",
"168 855 OFFCURVE",
"168 818 CURVE SMOOTH",
"168 781 OFFCURVE",
"199 752 OFFCURVE",
"235 752 CURVE SMOOTH"
);
},
{
closed = 1;
nodes = (
"508 752 OFFCURVE",
"538 781 OFFCURVE",
"538 818 CURVE SMOOTH",
"538 855 OFFCURVE",
"508 885 OFFCURVE",
"472 885 CURVE SMOOTH",
"436 885 OFFCURVE",
"405 855 OFFCURVE",
"405 818 CURVE SMOOTH",
"405 781 OFFCURVE",
"436 752 OFFCURVE",
"472 752 CURVE SMOOTH"
);
}
);
width = 707;
}
);
leftKerningGroup = U;
note = Udieresis;
rightKerningGroup = U;
unicode = 00DC;
},
{
glyphname = Udieresisacute;
lastChange = "2015-11-30 00:46:19 +0000";
layers = (
{
layerId = "8C3E11F2-14C8-42F3-9A0B-AF341C1B554F";
name = Regular;
paths = (
{
closed = 1;
nodes = (
"557 -15 OFFCURVE",
"652 102 OFFCURVE",
"652 272 CURVE SMOOTH",
"652 699 LINE",
"525 699 LINE",
"525 270 LINE SMOOTH",
"525 157 OFFCURVE",
"455 100 OFFCURVE",
"354 100 CURVE SMOOTH",
"252 100 OFFCURVE",
"182 157 OFFCURVE",
"182 270 CURVE SMOOTH",
"182 699 LINE",
"55 699 LINE",
"55 272 LINE SMOOTH",
"55 102 OFFCURVE",
"150 -15 OFFCURVE",
"354 -15 CURVE SMOOTH"
);
},
{
closed = 1;
nodes = (
"263 752 OFFCURVE",
"293 781 OFFCURVE",
"293 818 CURVE SMOOTH",
"293 855 OFFCURVE",
"263 885 OFFCURVE",
"227 885 CURVE SMOOTH",
"191 885 OFFCURVE",
"160 855 OFFCURVE",
"160 818 CURVE SMOOTH",
"160 781 OFFCURVE",
"191 752 OFFCURVE",
"227 752 CURVE SMOOTH"
);
},
{
closed = 1;
nodes = (
"520 752 OFFCURVE",
"550 781 OFFCURVE",
"550 818 CURVE SMOOTH",
"550 855 OFFCURVE",
"520 885 OFFCURVE",
"484 885 CURVE SMOOTH",
"448 885 OFFCURVE",
"417 855 OFFCURVE",
"417 818 CURVE SMOOTH",
"417 781 OFFCURVE",
"448 752 OFFCURVE",
"484 752 CURVE SMOOTH"
);
},
{
closed = 1;
nodes = (
"404 864 LINE",
"481 992 LINE",
"364 992 LINE",
"303 864 LINE"
);
}
);
width = 707;
}
);
leftKerningGroup = U;
note = Udieresisacute;
rightKerningGroup = U;
unicode = 01D7;
},
{
glyphname = Udieresiscaron;
lastChange = "2015-11-30 00:46:19 +0000";
layers = (
{
layerId = "8C3E11F2-14C8-42F3-9A0B-AF341C1B554F";
name = Regular;
paths = (
{
closed = 1;
nodes = (
"557 -15 OFFCURVE",
"652 102 OFFCURVE",
"652 272 CURVE SMOOTH",
"652 699 LINE",
"525 699 LINE",
"525 270 LINE SMOOTH",
"525 157 OFFCURVE",
"455 100 OFFCURVE",
"354 100 CURVE SMOOTH",
"252 100 OFFCURVE",
"182 157 OFFCURVE",
"182 270 CURVE SMOOTH",
"182 699 LINE",
"55 699 LINE",
"55 272 LINE SMOOTH",
"55 102 OFFCURVE",
"150 -15 OFFCURVE",
"354 -15 CURVE SMOOTH"
);
},
{
closed = 1;
nodes = (
"260 752 OFFCURVE",
"291 781 OFFCURVE",
"291 818 CURVE SMOOTH",
"291 855 OFFCURVE",
"260 885 OFFCURVE",
"224 885 CURVE SMOOTH",
"188 885 OFFCURVE",
"158 855 OFFCURVE",
"158 818 CURVE SMOOTH",
"158 781 OFFCURVE",
"188 752 OFFCURVE",
"224 752 CURVE SMOOTH"
);
},
{
closed = 1;
nodes = (
"400 864 LINE",
"524 1000 LINE",
"417 1000 LINE",
"353 925 LINE",
"289 1000 LINE",
"183 1000 LINE",
"306 864 LINE"
);
},
{
closed = 1;
nodes = (
"517 752 OFFCURVE",
"548 781 OFFCURVE",
"548 818 CURVE SMOOTH",
"548 855 OFFCURVE",
"517 885 OFFCURVE",
"481 885 CURVE SMOOTH",
"445 885 OFFCURVE",
"415 855 OFFCURVE",
"415 818 CURVE SMOOTH",
"415 781 OFFCURVE",
"445 752 OFFCURVE",
"481 752 CURVE SMOOTH"
);
}
);
width = 707;
}
);
leftKerningGroup = U;
note = Udieresiscaron;
rightKerningGroup = U;
unicode = 01D9;
},
{
glyphname = Udieresisgrave;
lastChange = "2015-11-30 00:46:20 +0000";
layers = (
{
layerId = "8C3E11F2-14C8-42F3-9A0B-AF341C1B554F";
name = Regular;
paths = (
{
closed = 1;
nodes = (
"557 -15 OFFCURVE",
"652 102 OFFCURVE",
"652 272 CURVE SMOOTH",
"652 699 LINE",
"525 699 LINE",
"525 270 LINE SMOOTH",
"525 157 OFFCURVE",
"455 100 OFFCURVE",
"354 100 CURVE SMOOTH",
"252 100 OFFCURVE",
"182 157 OFFCURVE",
"182 270 CURVE SMOOTH",
"182 699 LINE",
"55 699 LINE",
"55 272 LINE SMOOTH",
"55 102 OFFCURVE",
"150 -15 OFFCURVE",
"354 -15 CURVE SMOOTH"
);
},
{
closed = 1;
nodes = (
"263 752 OFFCURVE",
"294 781 OFFCURVE",
"294 818 CURVE SMOOTH",
"294 855 OFFCURVE",
"263 885 OFFCURVE",
"227 885 CURVE SMOOTH",
"191 885 OFFCURVE",
"161 855 OFFCURVE",
"161 818 CURVE SMOOTH",
"161 781 OFFCURVE",
"191 752 OFFCURVE",
"227 752 CURVE SMOOTH"
);
},
{
closed = 1;
nodes = (
"408 864 LINE",
"347 992 LINE",
"230 992 LINE",
"307 864 LINE"
);
},
{
closed = 1;
nodes = (
"520 752 OFFCURVE",
"551 781 OFFCURVE",
"551 818 CURVE SMOOTH",
"551 855 OFFCURVE",
"520 885 OFFCURVE",
"484 885 CURVE SMOOTH",
"448 885 OFFCURVE",
"418 855 OFFCURVE",
"418 818 CURVE SMOOTH",
"418 781 OFFCURVE",
"448 752 OFFCURVE",
"484 752 CURVE SMOOTH"
);
}
);
width = 707;
}
);
leftKerningGroup = U;
note = Udieresisgrave;
rightKerningGroup = U;
unicode = 01DB;
},
{
glyphname = Udieresismacron;
lastChange = "2015-11-30 00:46:21 +0000";
layers = (
{
layerId = "8C3E11F2-14C8-42F3-9A0B-AF341C1B554F";
name = Regular;
paths = (
{
closed = 1;
nodes = (
"557 -15 OFFCURVE",
"652 102 OFFCURVE",
"652 272 CURVE SMOOTH",
"652 699 LINE",
"525 699 LINE",
"525 270 LINE SMOOTH",
"525 157 OFFCURVE",
"455 100 OFFCURVE",
"354 100 CURVE SMOOTH",
"252 100 OFFCURVE",
"182 157 OFFCURVE",
"182 270 CURVE SMOOTH",
"182 699 LINE",
"55 699 LINE",
"55 272 LINE SMOOTH",
"55 102 OFFCURVE",
"150 -15 OFFCURVE",
"354 -15 CURVE SMOOTH"
);
},
{
closed = 1;
nodes = (
"271 752 OFFCURVE",
"301 781 OFFCURVE",
"301 818 CURVE SMOOTH",
"301 855 OFFCURVE",
"271 885 OFFCURVE",
"235 885 CURVE SMOOTH",
"199 885 OFFCURVE",
"168 855 OFFCURVE",
"168 818 CURVE SMOOTH",
"168 781 OFFCURVE",
"199 752 OFFCURVE",
"235 752 CURVE SMOOTH"
);
},
{
closed = 1;
nodes = (
"508 752 OFFCURVE",
"538 781 OFFCURVE",
"538 818 CURVE SMOOTH",
"538 855 OFFCURVE",
"508 885 OFFCURVE",
"472 885 CURVE SMOOTH",
"436 885 OFFCURVE",
"405 855 OFFCURVE",
"405 818 CURVE SMOOTH",
"405 781 OFFCURVE",
"436 752 OFFCURVE",
"472 752 CURVE SMOOTH"
);
},
{
closed = 1;
nodes = (
"515 929 LINE",
"515 1013 LINE",
"192 1013 LINE",
"192 929 LINE"
);
}
);
width = 707;
}
);
leftKerningGroup = U;
note = Udieresismacron;
rightKerningGroup = U;
unicode = 01D5;
},
{
glyphname = Udotbelow;
lastChange = "2015-11-30 00:46:20 +0000";
layers = (
{
layerId = "8C3E11F2-14C8-42F3-9A0B-AF341C1B554F";
name = Regular;
paths = (
{
closed = 1;
nodes = (
"557 -15 OFFCURVE",
"652 102 OFFCURVE",
"652 272 CURVE SMOOTH",
"652 699 LINE",
"525 699 LINE",
"525 270 LINE SMOOTH",
"525 157 OFFCURVE",
"455 100 OFFCURVE",
"354 100 CURVE SMOOTH",
"252 100 OFFCURVE",
"182 157 OFFCURVE",
"182 270 CURVE SMOOTH",
"182 699 LINE",
"55 699 LINE",
"55 272 LINE SMOOTH",
"55 102 OFFCURVE",
"150 -15 OFFCURVE",
"354 -15 CURVE SMOOTH"
);
},
{
closed = 1;
nodes = (
"390 -179 OFFCURVE",
"420 -150 OFFCURVE",
"420 -113 CURVE SMOOTH",
"420 -76 OFFCURVE",
"390 -46 OFFCURVE",
"354 -46 CURVE SMOOTH",
"318 -46 OFFCURVE",
"287 -76 OFFCURVE",
"287 -113 CURVE SMOOTH",
"287 -150 OFFCURVE",
"318 -179 OFFCURVE",
"354 -179 CURVE SMOOTH"
);
}
);
width = 707;
}
);
leftKerningGroup = U;
note = Udotbelow;
rightKerningGroup = U;
unicode = 1EE4;
},
{
glyphname = Ugrave;
lastChange = "2015-11-30 00:46:20 +0000";
layers = (
{
layerId = "8C3E11F2-14C8-42F3-9A0B-AF341C1B554F";
name = Regular;
paths = (
{
closed = 1;
nodes = (
"557 -15 OFFCURVE",
"652 102 OFFCURVE",
"652 272 CURVE SMOOTH",
"652 699 LINE",
"525 699 LINE",
"525 270 LINE SMOOTH",
"525 157 OFFCURVE",
"455 100 OFFCURVE",
"354 100 CURVE SMOOTH",
"252 100 OFFCURVE",
"182 157 OFFCURVE",
"182 270 CURVE SMOOTH",
"182 699 LINE",
"55 699 LINE",
"55 272 LINE SMOOTH",
"55 102 OFFCURVE",
"150 -15 OFFCURVE",
"354 -15 CURVE SMOOTH"
);
},
{
closed = 1;
nodes = (
"416 742 LINE",
"347 916 LINE",
"214 916 LINE",
"300 742 LINE"
);
}
);
width = 707;
}
);
leftKerningGroup = U;
note = Ugrave;
rightKerningGroup = U;
unicode = 00D9;
},
{
glyphname = Uhookabove;
lastChange = "2015-11-30 00:46:21 +0000";
layers = (
{
layerId = "8C3E11F2-14C8-42F3-9A0B-AF341C1B554F";
name = Regular;
paths = (
{
closed = 1;
nodes = (
"557 -15 OFFCURVE",
"652 102 OFFCURVE",
"652 272 CURVE SMOOTH",
"652 699 LINE",
"525 699 LINE",
"525 270 LINE SMOOTH",
"525 157 OFFCURVE",
"455 100 OFFCURVE",
"354 100 CURVE SMOOTH",
"252 100 OFFCURVE",
"182 157 OFFCURVE",
"182 270 CURVE SMOOTH",
"182 699 LINE",
"55 699 LINE",
"55 272 LINE SMOOTH",
"55 102 OFFCURVE",
"150 -15 OFFCURVE",
"354 -15 CURVE SMOOTH"
);
},
{
closed = 1;
nodes = (
"398 742 LINE",
"398 776 LINE",
"457 785 OFFCURVE",
"489 822 OFFCURVE",
"489 870 CURVE SMOOTH",
"489 929 OFFCURVE",
"443 970 OFFCURVE",
"349 970 CURVE SMOOTH",
"313 970 OFFCURVE",
"274 963 OFFCURVE",
"251 956 CURVE",
"251 890 LINE",
"264 896 OFFCURVE",
"301 902 OFFCURVE",
"317 902 CURVE SMOOTH",
"362 902 OFFCURVE",
"379 891 OFFCURVE",
"379 865 CURVE SMOOTH",
"379 827 OFFCURVE",
"344 816 OFFCURVE",
"288 816 CURVE",
"288 742 LINE"
);
}
);
width = 707;
}
);
leftKerningGroup = U;
note = Uhookabove;
rightKerningGroup = U;
unicode = 1EE6;
},
{
glyphname = Uhorn;
lastChange = "2015-11-30 00:46:14 +0000";
layers = (
{
layerId = "8C3E11F2-14C8-42F3-9A0B-AF341C1B554F";
name = Regular;
paths = (
{
closed = 1;
nodes = (
"557 -15 OFFCURVE",
"652 102 OFFCURVE",
"652 272 CURVE SMOOTH",
"652 526 LINE",
"796 527 OFFCURVE",
"852 606 OFFCURVE",
"852 705 CURVE SMOOTH",
"852 747 LINE",
"735 747 LINE",
"735 712 LINE SMOOTH",
"735 648 OFFCURVE",
"719 625 OFFCURVE",
"652 625 CURVE",
"652 699 LINE",
"519 699 LINE",
"519 270 LINE SMOOTH",
"519 157 OFFCURVE",
"455 106 OFFCURVE",
"354 106 CURVE SMOOTH",
"252 106 OFFCURVE",
"188 157 OFFCURVE",
"188 270 CURVE SMOOTH",
"188 699 LINE",
"55 699 LINE",
"55 272 LINE SMOOTH",
"55 102 OFFCURVE",
"150 -15 OFFCURVE",
"354 -15 CURVE SMOOTH"
);
}
);
width = 862;
}
);
leftKerningGroup = U;
note = Uhorn;
rightKerningGroup = U;
unicode = 01AF;
},
{
glyphname = Uhornacute;
lastChange = "2015-11-30 00:46:18 +0000";
layers = (
{
layerId = "8C3E11F2-14C8-42F3-9A0B-AF341C1B554F";
name = Regular;
paths = (
{
closed = 1;
nodes = (
"557 -15 OFFCURVE",
"652 102 OFFCURVE",
"652 272 CURVE SMOOTH",
"652 526 LINE",
"796 527 OFFCURVE",
"852 606 OFFCURVE",
"852 705 CURVE SMOOTH",
"852 747 LINE",
"735 747 LINE",
"735 712 LINE SMOOTH",
"735 648 OFFCURVE",
"719 625 OFFCURVE",
"652 625 CURVE",
"652 699 LINE",
"519 699 LINE",
"519 270 LINE SMOOTH",
"519 157 OFFCURVE",
"455 106 OFFCURVE",
"354 106 CURVE SMOOTH",
"252 106 OFFCURVE",
"188 157 OFFCURVE",
"188 270 CURVE SMOOTH",
"188 699 LINE",
"55 699 LINE",
"55 272 LINE SMOOTH",
"55 102 OFFCURVE",
"150 -15 OFFCURVE",
"354 -15 CURVE SMOOTH"
);
},
{
closed = 1;
nodes = (
"402 742 LINE",
"488 916 LINE",
"355 916 LINE",
"286 742 LINE"
);
}
);
width = 862;
}
);
leftKerningGroup = U;
note = Uhornacute;
rightKerningGroup = U;
unicode = 1EE8;
},
{
glyphname = Uhorndotbelow;
lastChange = "2015-11-30 00:46:19 +0000";
layers = (
{
layerId = "8C3E11F2-14C8-42F3-9A0B-AF341C1B554F";
name = Regular;
paths = (
{
closed = 1;
nodes = (
"557 -15 OFFCURVE",
"652 102 OFFCURVE",
"652 272 CURVE SMOOTH",
"652 526 LINE",
"796 527 OFFCURVE",
"852 606 OFFCURVE",
"852 705 CURVE SMOOTH",
"852 747 LINE",
"735 747 LINE",
"735 712 LINE SMOOTH",
"735 648 OFFCURVE",
"719 625 OFFCURVE",
"652 625 CURVE",
"652 699 LINE",
"519 699 LINE",
"519 270 LINE SMOOTH",
"519 157 OFFCURVE",
"455 106 OFFCURVE",
"354 106 CURVE SMOOTH",
"252 106 OFFCURVE",
"188 157 OFFCURVE",
"188 270 CURVE SMOOTH",
"188 699 LINE",
"55 699 LINE",
"55 272 LINE SMOOTH",
"55 102 OFFCURVE",
"150 -15 OFFCURVE",
"354 -15 CURVE SMOOTH"
);
},
{
closed = 1;
nodes = (
"387 -179 OFFCURVE",
"417 -150 OFFCURVE",
"417 -113 CURVE SMOOTH",
"417 -76 OFFCURVE",
"387 -46 OFFCURVE",
"351 -46 CURVE SMOOTH",
"315 -46 OFFCURVE",
"284 -76 OFFCURVE",
"284 -113 CURVE SMOOTH",
"284 -150 OFFCURVE",
"315 -179 OFFCURVE",
"351 -179 CURVE SMOOTH"
);
}
);
width = 862;
}
);
leftKerningGroup = U;
note = Uhorndotbelow;
rightKerningGroup = U;
unicode = 1EF0;
},
{
glyphname = Uhorngrave;
lastChange = "2015-11-30 00:46:19 +0000";
layers = (
{
layerId = "8C3E11F2-14C8-42F3-9A0B-AF341C1B554F";
name = Regular;
paths = (
{
closed = 1;
nodes = (
"557 -15 OFFCURVE",
"652 102 OFFCURVE",
"652 272 CURVE SMOOTH",
"652 526 LINE",
"796 527 OFFCURVE",
"852 606 OFFCURVE",
"852 705 CURVE SMOOTH",
"852 747 LINE",
"735 747 LINE",
"735 712 LINE SMOOTH",
"735 648 OFFCURVE",
"719 625 OFFCURVE",
"652 625 CURVE",
"652 699 LINE",
"519 699 LINE",
"519 270 LINE SMOOTH",
"519 157 OFFCURVE",
"455 106 OFFCURVE",
"354 106 CURVE SMOOTH",
"252 106 OFFCURVE",
"188 157 OFFCURVE",
"188 270 CURVE SMOOTH",
"188 699 LINE",
"55 699 LINE",
"55 272 LINE SMOOTH",
"55 102 OFFCURVE",
"150 -15 OFFCURVE",
"354 -15 CURVE SMOOTH"
);
},
{
closed = 1;
nodes = (
"414 742 LINE",
"345 916 LINE",
"212 916 LINE",
"298 742 LINE"
);
}
);
width = 862;
}
);
leftKerningGroup = U;
note = Uhorngrave;
rightKerningGroup = U;
unicode = 1EEA;
},
{
glyphname = Uhornhookabove;
lastChange = "2015-11-30 00:46:21 +0000";
layers = (
{
layerId = "8C3E11F2-14C8-42F3-9A0B-AF341C1B554F";
name = Regular;
paths = (
{
closed = 1;
nodes = (
"557 -15 OFFCURVE",
"652 102 OFFCURVE",
"652 272 CURVE SMOOTH",
"652 526 LINE",
"796 527 OFFCURVE",
"852 606 OFFCURVE",
"852 705 CURVE SMOOTH",
"852 747 LINE",
"735 747 LINE",
"735 712 LINE SMOOTH",
"735 648 OFFCURVE",
"719 625 OFFCURVE",
"652 625 CURVE",
"652 699 LINE",
"519 699 LINE",
"519 270 LINE SMOOTH",
"519 157 OFFCURVE",
"455 106 OFFCURVE",
"354 106 CURVE SMOOTH",
"252 106 OFFCURVE",
"188 157 OFFCURVE",
"188 270 CURVE SMOOTH",
"188 699 LINE",
"55 699 LINE",
"55 272 LINE SMOOTH",
"55 102 OFFCURVE",
"150 -15 OFFCURVE",
"354 -15 CURVE SMOOTH"
);
},
{
closed = 1;
nodes = (
"404 742 LINE",
"404 776 LINE",
"463 785 OFFCURVE",
"495 822 OFFCURVE",
"495 870 CURVE SMOOTH",
"495 929 OFFCURVE",
"449 970 OFFCURVE",
"355 970 CURVE SMOOTH",
"319 970 OFFCURVE",
"280 963 OFFCURVE",
"257 956 CURVE",
"257 890 LINE",
"270 896 OFFCURVE",
"307 902 OFFCURVE",
"323 902 CURVE SMOOTH",
"368 902 OFFCURVE",
"385 891 OFFCURVE",
"385 865 CURVE SMOOTH",
"385 827 OFFCURVE",
"350 816 OFFCURVE",
"294 816 CURVE",
"294 742 LINE"
);
}
);
width = 862;
}
);
leftKerningGroup = U;
note = Uhornhookabove;
rightKerningGroup = U;
unicode = 1EEC;
},
{
glyphname = Uhorntilde;
lastChange = "2015-11-30 00:46:20 +0000";
layers = (
{
layerId = "8C3E11F2-14C8-42F3-9A0B-AF341C1B554F";
name = Regular;
paths = (
{
closed = 1;
nodes = (
"557 -15 OFFCURVE",
"652 102 OFFCURVE",
"652 272 CURVE SMOOTH",
"652 526 LINE",
"796 527 OFFCURVE",
"852 606 OFFCURVE",
"852 705 CURVE SMOOTH",
"852 747 LINE",
"735 747 LINE",
"735 712 LINE SMOOTH",
"735 648 OFFCURVE",
"719 625 OFFCURVE",
"652 625 CURVE",
"652 699 LINE",
"519 699 LINE",
"519 270 LINE SMOOTH",
"519 157 OFFCURVE",
"455 106 OFFCURVE",
"354 106 CURVE SMOOTH",
"252 106 OFFCURVE",
"188 157 OFFCURVE",
"188 270 CURVE SMOOTH",
"188 699 LINE",
"55 699 LINE",
"55 272 LINE SMOOTH",
"55 102 OFFCURVE",
"150 -15 OFFCURVE",
"354 -15 CURVE SMOOTH"
);
},
{
closed = 1;
nodes = (
"200 781 OFFCURVE",
"233 794 OFFCURVE",
"270 794 CURVE SMOOTH",
"334 794 OFFCURVE",
"386 744 OFFCURVE",
"459 744 CURVE SMOOTH",
"501 744 OFFCURVE",
"536 755 OFFCURVE",
"559 786 CURVE",
"559 889 LINE",
"531 851 OFFCURVE",
"497 838 OFFCURVE",
"459 838 CURVE SMOOTH",
"394 838 OFFCURVE",
"338 888 OFFCURVE",
"270 888 CURVE SMOOTH",
"229 888 OFFCURVE",
"193 876 OFFCURVE",
"170 845 CURVE",
"170 742 LINE"
);
}
);
width = 862;
}
);
leftKerningGroup = U;
note = Uhorntilde;
rightKerningGroup = U;
unicode = 1EEE;
},
{
glyphname = Uhungarumlaut;
lastChange = "2015-11-30 00:46:20 +0000";
layers = (
{
layerId = "8C3E11F2-14C8-42F3-9A0B-AF341C1B554F";
name = Regular;
paths = (
{
closed = 1;
nodes = (
"557 -15 OFFCURVE",
"652 102 OFFCURVE",
"652 272 CURVE SMOOTH",
"652 699 LINE",
"525 699 LINE",
"525 270 LINE SMOOTH",
"525 157 OFFCURVE",
"455 100 OFFCURVE",
"354 100 CURVE SMOOTH",
"252 100 OFFCURVE",
"182 157 OFFCURVE",
"182 270 CURVE SMOOTH",
"182 699 LINE",
"55 699 LINE",
"55 272 LINE SMOOTH",
"55 102 OFFCURVE",
"150 -15 OFFCURVE",
"354 -15 CURVE SMOOTH"
);
},
{
closed = 1;
nodes = (
"291 742 LINE",
"377 916 LINE",
"254 916 LINE",
"185 742 LINE"
);
},
{
closed = 1;
nodes = (
"514 742 LINE",
"600 916 LINE",
"478 916 LINE",
"408 742 LINE"
);
}
);
width = 707;
}
);
leftKerningGroup = U;
note = Uhungarumlaut;
rightKerningGroup = U;
unicode = 0170;
},
{
glyphname = Umacron;
lastChange = "2015-11-30 00:46:21 +0000";
layers = (
{
layerId = "8C3E11F2-14C8-42F3-9A0B-AF341C1B554F";
name = Regular;
paths = (
{
closed = 1;
nodes = (
"557 -15 OFFCURVE",
"652 102 OFFCURVE",
"652 272 CURVE SMOOTH",
"652 699 LINE",
"525 699 LINE",
"525 270 LINE SMOOTH",
"525 157 OFFCURVE",
"455 100 OFFCURVE",
"354 100 CURVE SMOOTH",
"252 100 OFFCURVE",
"182 157 OFFCURVE",
"182 270 CURVE SMOOTH",
"182 699 LINE",
"55 699 LINE",
"55 272 LINE SMOOTH",
"55 102 OFFCURVE",
"150 -15 OFFCURVE",
"354 -15 CURVE SMOOTH"
);
},
{
closed = 1;
nodes = (
"515 752 LINE",
"515 836 LINE",
"192 836 LINE",
"192 752 LINE"
);
}
);
width = 707;
}
);
leftKerningGroup = U;
note = Umacron;
rightKerningGroup = U;
unicode = 016A;
},
{
glyphname = Uogonek;
lastChange = "2015-11-30 00:46:21 +0000";
layers = (
{
layerId = "8C3E11F2-14C8-42F3-9A0B-AF341C1B554F";
name = Regular;
paths = (
{
closed = 1;
nodes = (
"557 -15 OFFCURVE",
"652 102 OFFCURVE",
"652 272 CURVE SMOOTH",
"652 699 LINE",
"525 699 LINE",
"525 270 LINE SMOOTH",
"525 157 OFFCURVE",
"455 100 OFFCURVE",
"354 100 CURVE SMOOTH",
"252 100 OFFCURVE",
"182 157 OFFCURVE",
"182 270 CURVE SMOOTH",
"182 699 LINE",
"55 699 LINE",
"55 272 LINE SMOOTH",
"55 102 OFFCURVE",
"150 -15 OFFCURVE",
"354 -15 CURVE SMOOTH"
);
},
{
closed = 1;
nodes = (
"383 -213 OFFCURVE",
"416 -208 OFFCURVE",
"437 -200 CURVE",
"437 -128 LINE",
"423 -135 OFFCURVE",
"406 -139 OFFCURVE",
"389 -139 CURVE SMOOTH",
"365 -139 OFFCURVE",
"348 -125 OFFCURVE",
"348 -99 CURVE SMOOTH",
"348 -61 OFFCURVE",
"375 -31 OFFCURVE",
"427 0 CURVE",
"311 0 LINE",
"269 -26 OFFCURVE",
"238 -68 OFFCURVE",
"238 -121 CURVE SMOOTH",
"238 -184 OFFCURVE",
"287 -213 OFFCURVE",
"350 -213 CURVE SMOOTH"
);
}
);
width = 707;
}
);
leftKerningGroup = U;
note = Uogonek;
rightKerningGroup = U;
unicode = 0172;
},
{
glyphname = Uring;
lastChange = "2015-11-30 00:46:19 +0000";
layers = (
{
layerId = "8C3E11F2-14C8-42F3-9A0B-AF341C1B554F";
name = Regular;
paths = (
{
closed = 1;
nodes = (
"557 -15 OFFCURVE",
"652 102 OFFCURVE",
"652 272 CURVE SMOOTH",
"652 699 LINE",
"525 699 LINE",
"525 270 LINE SMOOTH",
"525 157 OFFCURVE",
"455 100 OFFCURVE",
"354 100 CURVE SMOOTH",
"252 100 OFFCURVE",
"182 157 OFFCURVE",
"182 270 CURVE SMOOTH",
"182 699 LINE",
"55 699 LINE",
"55 272 LINE SMOOTH",
"55 102 OFFCURVE",
"150 -15 OFFCURVE",
"354 -15 CURVE SMOOTH"
);
},
{
closed = 1;
nodes = (
"422 742 OFFCURVE",
"478 797 OFFCURVE",
"478 866 CURVE SMOOTH",
"478 935 OFFCURVE",
"422 991 OFFCURVE",
"353 991 CURVE SMOOTH",
"284 991 OFFCURVE",
"229 935 OFFCURVE",
"229 866 CURVE SMOOTH",
"229 797 OFFCURVE",
"284 742 OFFCURVE",
"353 742 CURVE SMOOTH"
);
},
{
closed = 1;
nodes = (
"325 815 OFFCURVE",
"302 838 OFFCURVE",
"302 866 CURVE SMOOTH",
"302 894 OFFCURVE",
"325 917 OFFCURVE",
"353 917 CURVE SMOOTH",
"381 917 OFFCURVE",
"404 894 OFFCURVE",
"404 866 CURVE SMOOTH",
"404 838 OFFCURVE",
"381 815 OFFCURVE",
"353 815 CURVE SMOOTH"
);
}
);
width = 707;
}
);
leftKerningGroup = U;
note = Uring;
rightKerningGroup = U;
unicode = 016E;
},
{
glyphname = Utilde;
lastChange = "2015-11-30 00:46:19 +0000";
layers = (
{
layerId = "8C3E11F2-14C8-42F3-9A0B-AF341C1B554F";
name = Regular;
paths = (
{
closed = 1;
nodes = (
"557 -15 OFFCURVE",
"652 102 OFFCURVE",
"652 272 CURVE SMOOTH",
"652 699 LINE",
"525 699 LINE",
"525 270 LINE SMOOTH",
"525 157 OFFCURVE",
"455 100 OFFCURVE",
"354 100 CURVE SMOOTH",
"252 100 OFFCURVE",
"182 157 OFFCURVE",
"182 270 CURVE SMOOTH",
"182 699 LINE",
"55 699 LINE",
"55 272 LINE SMOOTH",
"55 102 OFFCURVE",
"150 -15 OFFCURVE",
"354 -15 CURVE SMOOTH"
);
},
{
closed = 1;
nodes = (
"194 781 OFFCURVE",
"227 794 OFFCURVE",
"264 794 CURVE SMOOTH",
"328 794 OFFCURVE",
"380 744 OFFCURVE",
"453 744 CURVE SMOOTH",
"495 744 OFFCURVE",
"530 755 OFFCURVE",
"553 786 CURVE",
"553 889 LINE",
"525 851 OFFCURVE",
"491 838 OFFCURVE",
"453 838 CURVE SMOOTH",
"388 838 OFFCURVE",
"332 888 OFFCURVE",
"264 888 CURVE SMOOTH",
"223 888 OFFCURVE",
"187 876 OFFCURVE",
"164 845 CURVE",
"164 742 LINE"
);
}
);
width = 707;
}
);
leftKerningGroup = U;
note = Utilde;
rightKerningGroup = U;
unicode = 0168;
},
{
glyphname = V;
lastChange = "2015-11-30 00:46:15 +0000";
layers = (
{
layerId = "8C3E11F2-14C8-42F3-9A0B-AF341C1B554F";
name = Regular;
paths = (
{
closed = 1;
nodes = (
"443 0 LINE",
"722 699 LINE",
"588 699 LINE",
"381 170 LINE",
"175 699 LINE",
"40 699 LINE",
"320 0 LINE"
);
}
);
width = 762;
}
);
note = V;
unicode = 0056;
},
{
glyphname = W;
lastChange = "2015-11-30 00:46:15 +0000";
layers = (
{
layerId = "8C3E11F2-14C8-42F3-9A0B-AF341C1B554F";
name = Regular;
paths = (
{
closed = 1;
nodes = (
"357 0 LINE",
"497 486 LINE",
"637 0 LINE",
"755 0 LINE",
"954 699 LINE",
"822 699 LINE",
"683 205 LINE",
"546 699 LINE",
"448 699 LINE",
"311 205 LINE",
"172 699 LINE",
"40 699 LINE",
"239 0 LINE"
);
}
);
width = 994;
}
);
leftKerningGroup = W;
note = W;
rightKerningGroup = W;
unicode = 0057;
},
{
glyphname = Wacute;
lastChange = "2015-11-30 00:46:21 +0000";
layers = (
{
layerId = "8C3E11F2-14C8-42F3-9A0B-AF341C1B554F";
name = Regular;
paths = (
{
closed = 1;
nodes = (
"363 0 LINE",
"503 486 LINE",
"643 0 LINE",
"761 0 LINE",
"960 699 LINE",
"828 699 LINE",
"689 205 LINE",
"552 699 LINE",
"454 699 LINE",
"317 205 LINE",
"178 699 LINE",
"46 699 LINE",
"245 0 LINE"
);
},
{
closed = 1;
nodes = (
"567 742 LINE",
"653 916 LINE",
"520 916 LINE",
"451 742 LINE"
);
}
);
width = 1006;
}
);
leftKerningGroup = W;
note = Wacute;
rightKerningGroup = W;
unicode = 1E82;
},
{
glyphname = Wcircumflex;
lastChange = "2015-11-30 00:46:19 +0000";
layers = (
{
layerId = "8C3E11F2-14C8-42F3-9A0B-AF341C1B554F";
name = Regular;
paths = (
{
closed = 1;
nodes = (
"363 0 LINE",
"503 486 LINE",
"643 0 LINE",
"761 0 LINE",
"960 699 LINE",
"828 699 LINE",
"689 205 LINE",
"552 699 LINE",
"454 699 LINE",
"317 205 LINE",
"178 699 LINE",
"46 699 LINE",
"245 0 LINE"
);
},
{
closed = 1;
nodes = (
"428 742 LINE",
"504 841 LINE",
"580 742 LINE",
"706 742 LINE",
"560 913 LINE",
"448 913 LINE",
"301 742 LINE"
);
}
);
width = 1006;
}
);
leftKerningGroup = W;
note = Wcircumflex;
rightKerningGroup = W;
unicode = 0174;
},
{
glyphname = Wdieresis;
lastChange = "2015-11-30 00:46:19 +0000";
layers = (
{
layerId = "8C3E11F2-14C8-42F3-9A0B-AF341C1B554F";
name = Regular;
paths = (
{
closed = 1;
nodes = (
"363 0 LINE",
"503 486 LINE",
"643 0 LINE",
"761 0 LINE",
"960 699 LINE",
"828 699 LINE",
"689 205 LINE",
"552 699 LINE",
"454 699 LINE",
"317 205 LINE",
"178 699 LINE",
"46 699 LINE",
"245 0 LINE"
);
},
{
closed = 1;
nodes = (
"421 752 OFFCURVE",
"451 781 OFFCURVE",
"451 818 CURVE SMOOTH",
"451 855 OFFCURVE",
"421 885 OFFCURVE",
"385 885 CURVE SMOOTH",
"349 885 OFFCURVE",
"318 855 OFFCURVE",
"318 818 CURVE SMOOTH",
"318 781 OFFCURVE",
"349 752 OFFCURVE",
"385 752 CURVE SMOOTH"
);
},
{
closed = 1;
nodes = (
"658 752 OFFCURVE",
"688 781 OFFCURVE",
"688 818 CURVE SMOOTH",
"688 855 OFFCURVE",
"658 885 OFFCURVE",
"622 885 CURVE SMOOTH",
"586 885 OFFCURVE",
"555 855 OFFCURVE",
"555 818 CURVE SMOOTH",
"555 781 OFFCURVE",
"586 752 OFFCURVE",
"622 752 CURVE SMOOTH"
);
}
);
width = 1006;
}
);
leftKerningGroup = W;
note = Wdieresis;
rightKerningGroup = W;
unicode = 1E84;
},
{
glyphname = Wgrave;
lastChange = "2015-11-30 00:46:20 +0000";
layers = (
{
layerId = "8C3E11F2-14C8-42F3-9A0B-AF341C1B554F";
name = Regular;
paths = (
{
closed = 1;
nodes = (
"363 0 LINE",
"503 486 LINE",
"643 0 LINE",
"761 0 LINE",
"960 699 LINE",
"828 699 LINE",
"689 205 LINE",
"552 699 LINE",
"454 699 LINE",
"317 205 LINE",
"178 699 LINE",
"46 699 LINE",
"245 0 LINE"
);
},
{
closed = 1;
nodes = (
"556 742 LINE",
"487 916 LINE",
"354 916 LINE",
"440 742 LINE"
);
}
);
width = 1006;
}
);
leftKerningGroup = W;
note = Wgrave;
rightKerningGroup = W;
unicode = 1E80;
},
{
glyphname = X;
lastChange = "2015-11-30 00:46:15 +0000";
layers = (
{
layerId = "8C3E11F2-14C8-42F3-9A0B-AF341C1B554F";
name = Regular;
paths = (
{
closed = 1;
nodes = (
"185 0 LINE",
"371 254 LINE",
"557 0 LINE",
"702 0 LINE",
"444 353 LINE",
"697 699 LINE",
"552 699 LINE",
"371 452 LINE",
"191 699 LINE",
"46 699 LINE",
"299 353 LINE",
"40 0 LINE"
);
}
);
width = 742;
}
);
note = X;
unicode = 0058;
},
{
glyphname = Y;
lastChange = "2015-11-30 00:46:15 +0000";
layers = (
{
layerId = "8C3E11F2-14C8-42F3-9A0B-AF341C1B554F";
name = Regular;
paths = (
{
closed = 1;
nodes = (
"415 0 LINE",
"415 266 LINE",
"674 699 LINE",
"540 699 LINE",
"355 388 LINE",
"175 699 LINE",
"40 699 LINE",
"294 266 LINE",
"294 0 LINE"
);
}
);
width = 714;
}
);
leftKerningGroup = Y;
note = Y;
rightKerningGroup = Y;
unicode = 0059;
},
{
glyphname = Yacute;
lastChange = "2015-11-30 00:46:19 +0000";
layers = (
{
layerId = "8C3E11F2-14C8-42F3-9A0B-AF341C1B554F";
name = Regular;
paths = (
{
closed = 1;
nodes = (
"421 0 LINE",
"421 266 LINE",
"680 699 LINE",
"546 699 LINE",
"361 388 LINE",
"181 699 LINE",
"46 699 LINE",
"300 266 LINE",
"300 0 LINE"
);
},
{
closed = 1;
nodes = (
"414 742 LINE",
"500 916 LINE",
"367 916 LINE",
"298 742 LINE"
);
}
);
width = 726;
}
);
leftKerningGroup = Y;
note = Yacute;
rightKerningGroup = Y;
unicode = 00DD;
},
{
glyphname = Ycircumflex;
lastChange = "2015-11-30 00:46:19 +0000";
layers = (
{
layerId = "8C3E11F2-14C8-42F3-9A0B-AF341C1B554F";
name = Regular;
paths = (
{
closed = 1;
nodes = (
"421 0 LINE",
"421 266 LINE",
"680 699 LINE",
"546 699 LINE",
"361 388 LINE",
"181 699 LINE",
"46 699 LINE",
"300 266 LINE",
"300 0 LINE"
);
},
{
closed = 1;
nodes = (
"286 742 LINE",
"362 841 LINE",
"438 742 LINE",
"564 742 LINE",
"418 913 LINE",
"306 913 LINE",
"159 742 LINE"
);
}
);
width = 726;
}
);
leftKerningGroup = Y;
note = Ycircumflex;
rightKerningGroup = Y;
unicode = 0176;
},
{
glyphname = Ydieresis;
lastChange = "2015-11-30 00:46:19 +0000";
layers = (
{
layerId = "8C3E11F2-14C8-42F3-9A0B-AF341C1B554F";
name = Regular;
paths = (
{
closed = 1;
nodes = (
"421 0 LINE",
"421 266 LINE",
"680 699 LINE",
"546 699 LINE",
"361 388 LINE",
"181 699 LINE",
"46 699 LINE",
"300 266 LINE",
"300 0 LINE"
);
},
{
closed = 1;
nodes = (
"279 752 OFFCURVE",
"309 781 OFFCURVE",
"309 818 CURVE SMOOTH",
"309 855 OFFCURVE",
"279 885 OFFCURVE",
"243 885 CURVE SMOOTH",
"207 885 OFFCURVE",
"176 855 OFFCURVE",
"176 818 CURVE SMOOTH",
"176 781 OFFCURVE",
"207 752 OFFCURVE",
"243 752 CURVE SMOOTH"
);
},
{
closed = 1;
nodes = (
"516 752 OFFCURVE",
"546 781 OFFCURVE",
"546 818 CURVE SMOOTH",
"546 855 OFFCURVE",
"516 885 OFFCURVE",
"480 885 CURVE SMOOTH",
"444 885 OFFCURVE",
"413 855 OFFCURVE",
"413 818 CURVE SMOOTH",
"413 781 OFFCURVE",
"444 752 OFFCURVE",
"480 752 CURVE SMOOTH"
);
}
);
width = 726;
}
);
leftKerningGroup = Y;
note = Ydieresis;
rightKerningGroup = Y;
unicode = 0178;
},
{
glyphname = Ydotaccent;
lastChange = "2015-11-30 00:46:19 +0000";
layers = (
{
layerId = "8C3E11F2-14C8-42F3-9A0B-AF341C1B554F";
name = Regular;
paths = (
{
closed = 1;
nodes = (
"421 0 LINE",
"421 266 LINE",
"680 699 LINE",
"546 699 LINE",
"361 388 LINE",
"181 699 LINE",
"46 699 LINE",
"300 266 LINE",
"300 0 LINE"
);
},
{
closed = 1;
nodes = (
"398 752 OFFCURVE",
"428 781 OFFCURVE",
"428 818 CURVE SMOOTH",
"428 855 OFFCURVE",
"398 885 OFFCURVE",
"362 885 CURVE SMOOTH",
"326 885 OFFCURVE",
"295 855 OFFCURVE",
"295 818 CURVE SMOOTH",
"295 781 OFFCURVE",
"326 752 OFFCURVE",
"362 752 CURVE SMOOTH"
);
}
);
width = 726;
}
);
leftKerningGroup = Y;
note = Ydotaccent;
rightKerningGroup = Y;
unicode = 1E8E;
},
{
glyphname = Ydotbelow;
lastChange = "2015-11-30 00:46:21 +0000";
layers = (
{
layerId = "8C3E11F2-14C8-42F3-9A0B-AF341C1B554F";
name = Regular;
paths = (
{
closed = 1;
nodes = (
"421 0 LINE",
"421 266 LINE",
"680 699 LINE",
"546 699 LINE",
"361 388 LINE",
"181 699 LINE",
"46 699 LINE",
"300 266 LINE",
"300 0 LINE"
);
},
{
closed = 1;
nodes = (
"398 -179 OFFCURVE",
"428 -150 OFFCURVE",
"428 -113 CURVE SMOOTH",
"428 -76 OFFCURVE",
"398 -46 OFFCURVE",
"362 -46 CURVE SMOOTH",
"326 -46 OFFCURVE",
"295 -76 OFFCURVE",
"295 -113 CURVE SMOOTH",
"295 -150 OFFCURVE",
"326 -179 OFFCURVE",
"362 -179 CURVE SMOOTH"
);
}
);
width = 726;
}
);
leftKerningGroup = Y;
note = Ydotbelow;
rightKerningGroup = Y;
unicode = 1EF4;
},
{
glyphname = Ygrave;
lastChange = "2015-11-30 00:46:20 +0000";
layers = (
{
layerId = "8C3E11F2-14C8-42F3-9A0B-AF341C1B554F";
name = Regular;
paths = (
{
closed = 1;
nodes = (
"421 0 LINE",
"421 266 LINE",
"680 699 LINE",
"546 699 LINE",
"361 388 LINE",
"181 699 LINE",
"46 699 LINE",
"300 266 LINE",
"300 0 LINE"
);
},
{
closed = 1;
nodes = (
"428 742 LINE",
"359 916 LINE",
"226 916 LINE",
"312 742 LINE"
);
}
);
width = 726;
}
);
leftKerningGroup = Y;
note = Ygrave;
rightKerningGroup = Y;
unicode = 1EF2;
},
{
glyphname = Yhookabove;
lastChange = "2015-11-30 00:46:19 +0000";
layers = (
{
layerId = "8C3E11F2-14C8-42F3-9A0B-AF341C1B554F";
name = Regular;
paths = (
{
closed = 1;
nodes = (
"421 0 LINE",
"421 266 LINE",
"680 699 LINE",
"546 699 LINE",
"361 388 LINE",
"181 699 LINE",
"46 699 LINE",
"300 266 LINE",
"300 0 LINE"
);
},
{
closed = 1;
nodes = (
"412 742 LINE",
"412 776 LINE",
"471 785 OFFCURVE",
"503 822 OFFCURVE",
"503 870 CURVE SMOOTH",
"503 929 OFFCURVE",
"457 970 OFFCURVE",
"363 970 CURVE SMOOTH",
"327 970 OFFCURVE",
"288 963 OFFCURVE",
"265 956 CURVE",
"265 890 LINE",
"278 896 OFFCURVE",
"315 902 OFFCURVE",
"331 902 CURVE SMOOTH",
"376 902 OFFCURVE",
"393 891 OFFCURVE",
"393 865 CURVE SMOOTH",
"393 827 OFFCURVE",
"358 816 OFFCURVE",
"302 816 CURVE",
"302 742 LINE"
);
}
);
width = 726;
}
);
leftKerningGroup = Y;
note = Yhookabove;
rightKerningGroup = Y;
unicode = 1EF6;
},
{
glyphname = Ytilde;
lastChange = "2015-11-30 00:46:21 +0000";
layers = (
{
layerId = "8C3E11F2-14C8-42F3-9A0B-AF341C1B554F";
name = Regular;
paths = (
{
closed = 1;
nodes = (
"421 0 LINE",
"421 266 LINE",
"680 699 LINE",
"546 699 LINE",
"361 388 LINE",
"181 699 LINE",
"46 699 LINE",
"300 266 LINE",
"300 0 LINE"
);
},
{
closed = 1;
nodes = (
"197 781 OFFCURVE",
"230 794 OFFCURVE",
"267 794 CURVE SMOOTH",
"331 794 OFFCURVE",
"383 744 OFFCURVE",
"456 744 CURVE SMOOTH",
"498 744 OFFCURVE",
"533 755 OFFCURVE",
"556 786 CURVE",
"556 889 LINE",
"528 851 OFFCURVE",
"494 838 OFFCURVE",
"456 838 CURVE SMOOTH",
"391 838 OFFCURVE",
"335 888 OFFCURVE",
"267 888 CURVE SMOOTH",
"226 888 OFFCURVE",
"190 876 OFFCURVE",
"167 845 CURVE",
"167 742 LINE"
);
}
);
width = 726;
}
);
leftKerningGroup = Y;
note = Ytilde;
rightKerningGroup = Y;
unicode = 1EF8;
},
{
glyphname = Z;
lastChange = "2015-11-30 00:46:15 +0000";
layers = (
{
layerId = "8C3E11F2-14C8-42F3-9A0B-AF341C1B554F";
name = Regular;
paths = (
{
closed = 1;
nodes = (
"579 0 LINE",
"579 105 LINE",
"196 105 LINE",
"561 616 LINE",
"561 699 LINE",
"49 699 LINE",
"49 594 LINE",
"406 594 LINE",
"40 83 LINE",
"40 0 LINE"
);
}
);
width = 619;
}
);
leftKerningGroup = Z;
note = Z;
rightKerningGroup = Z;
unicode = 005A;
},
{
glyphname = Zacute;
lastChange = "2015-11-30 00:46:21 +0000";
layers = (
{
layerId = "8C3E11F2-14C8-42F3-9A0B-AF341C1B554F";
name = Regular;
paths = (
{
closed = 1;
nodes = (
"579 0 LINE",
"579 105 LINE",
"196 105 LINE",
"561 616 LINE",
"561 699 LINE",
"49 699 LINE",
"49 594 LINE",
"406 594 LINE",
"40 83 LINE",
"40 0 LINE"
);
},
{
closed = 1;
nodes = (
"347 742 LINE",
"433 916 LINE",
"300 916 LINE",
"231 742 LINE"
);
}
);
width = 619;
}
);
leftKerningGroup = Z;
note = Zacute;
rightKerningGroup = Z;
unicode = 0179;
},
{
glyphname = Zcaron;
lastChange = "2015-11-30 00:46:20 +0000";
layers = (
{
layerId = "8C3E11F2-14C8-42F3-9A0B-AF341C1B554F";
name = Regular;
paths = (
{
closed = 1;
nodes = (
"579 0 LINE",
"579 105 LINE",
"196 105 LINE",
"561 616 LINE",
"561 699 LINE",
"49 699 LINE",
"49 594 LINE",
"406 594 LINE",
"40 83 LINE",
"40 0 LINE"
);
},
{
closed = 1;
nodes = (
"362 742 LINE",
"508 913 LINE",
"382 913 LINE",
"306 813 LINE",
"230 913 LINE",
"103 913 LINE",
"250 742 LINE"
);
}
);
width = 619;
}
);
leftKerningGroup = Z;
note = Zcaron;
rightKerningGroup = Z;
unicode = 017D;
},
{
glyphname = Zdotaccent;
lastChange = "2015-11-30 00:46:19 +0000";
layers = (
{
layerId = "8C3E11F2-14C8-42F3-9A0B-AF341C1B554F";
name = Regular;
paths = (
{
closed = 1;
nodes = (
"579 0 LINE",
"579 105 LINE",
"196 105 LINE",
"561 616 LINE",
"561 699 LINE",
"49 699 LINE",
"49 594 LINE",
"406 594 LINE",
"40 83 LINE",
"40 0 LINE"
);
},
{
closed = 1;
nodes = (
"335 752 OFFCURVE",
"365 781 OFFCURVE",
"365 818 CURVE SMOOTH",
"365 855 OFFCURVE",
"335 885 OFFCURVE",
"299 885 CURVE SMOOTH",
"263 885 OFFCURVE",
"232 855 OFFCURVE",
"232 818 CURVE SMOOTH",
"232 781 OFFCURVE",
"263 752 OFFCURVE",
"299 752 CURVE SMOOTH"
);
}
);
width = 619;
}
);
leftKerningGroup = Z;
note = Zdotaccent;
rightKerningGroup = Z;
unicode = 017B;
},
{
glyphname = Zdotbelow;
lastChange = "2015-11-30 00:46:21 +0000";
layers = (
{
layerId = "8C3E11F2-14C8-42F3-9A0B-AF341C1B554F";
name = Regular;
paths = (
{
closed = 1;
nodes = (
"579 0 LINE",
"579 105 LINE",
"196 105 LINE",
"561 616 LINE",
"561 699 LINE",
"49 699 LINE",
"49 594 LINE",
"406 594 LINE",
"40 83 LINE",
"40 0 LINE"
);
},
{
closed = 1;
nodes = (
"356 -179 OFFCURVE",
"386 -150 OFFCURVE",
"386 -113 CURVE SMOOTH",
"386 -76 OFFCURVE",
"356 -46 OFFCURVE",
"320 -46 CURVE SMOOTH",
"284 -46 OFFCURVE",
"253 -76 OFFCURVE",
"253 -113 CURVE SMOOTH",
"253 -150 OFFCURVE",
"284 -179 OFFCURVE",
"320 -179 CURVE SMOOTH"
);
}
);
width = 619;
}
);
leftKerningGroup = Z;
note = Zdotbelow;
rightKerningGroup = Z;
unicode = 1E92;
},
{
glyphname = a;
lastChange = "2015-11-30 00:46:19 +0000";
layers = (
{
layerId = "8C3E11F2-14C8-42F3-9A0B-AF341C1B554F";
name = Regular;
paths = (
{
closed = 1;
nodes = (
"317 -15 OFFCURVE",
"365 10 OFFCURVE",
"403 47 CURVE",
"403 0 LINE",
"522 0 LINE",
"522 293 LINE SMOOTH",
"522 414 OFFCURVE",
"450 495 OFFCURVE",
"277 495 CURVE SMOOTH",
"214 495 OFFCURVE",
"139 481 OFFCURVE",
"99 463 CURVE",
"99 364 LINE",
"143 384 OFFCURVE",
"203 396 OFFCURVE",
"262 396 CURVE SMOOTH",
"355 396 OFFCURVE",
"395 367 OFFCURVE",
"395 299 CURVE SMOOTH",
"395 286 LINE",
"354 309 OFFCURVE",
"300 323 OFFCURVE",
"238 323 CURVE SMOOTH",
"112 323 OFFCURVE",
"40 259 OFFCURVE",
"40 153 CURVE SMOOTH",
"40 49 OFFCURVE",
"123 -15 OFFCURVE",
"236 -15 CURVE SMOOTH"
);
},
{
closed = 1;
nodes = (
"204 77 OFFCURVE",
"168 102 OFFCURVE",
"168 153 CURVE SMOOTH",
"168 206 OFFCURVE",
"204 231 OFFCURVE",
"269 231 CURVE SMOOTH",
"317 231 OFFCURVE",
"358 218 OFFCURVE",
"395 192 CURVE",
"395 139 LINE",
"371 100 OFFCURVE",
"322 77 OFFCURVE",
"267 77 CURVE SMOOTH"
);
}
);
width = 577;
}
);
leftKerningGroup = a;
note = a;
rightKerningGroup = a;
unicode = 0061;
},
{
glyphname = aacute;
lastChange = "2015-11-30 00:46:21 +0000";
layers = (
{
layerId = "8C3E11F2-14C8-42F3-9A0B-AF341C1B554F";
name = Regular;
paths = (
{
closed = 1;
nodes = (
"317 -15 OFFCURVE",
"365 10 OFFCURVE",
"403 47 CURVE",
"403 0 LINE",
"522 0 LINE",
"522 293 LINE SMOOTH",
"522 414 OFFCURVE",
"450 495 OFFCURVE",
"277 495 CURVE SMOOTH",
"214 495 OFFCURVE",
"139 481 OFFCURVE",
"99 463 CURVE",
"99 364 LINE",
"143 384 OFFCURVE",
"203 396 OFFCURVE",
"262 396 CURVE SMOOTH",
"355 396 OFFCURVE",
"395 367 OFFCURVE",
"395 299 CURVE SMOOTH",
"395 286 LINE",
"354 309 OFFCURVE",
"300 323 OFFCURVE",
"238 323 CURVE SMOOTH",
"112 323 OFFCURVE",
"40 259 OFFCURVE",
"40 153 CURVE SMOOTH",
"40 49 OFFCURVE",
"123 -15 OFFCURVE",
"236 -15 CURVE SMOOTH"
);
},
{
closed = 1;
nodes = (
"204 77 OFFCURVE",
"168 102 OFFCURVE",
"168 153 CURVE SMOOTH",
"168 206 OFFCURVE",
"204 231 OFFCURVE",
"269 231 CURVE SMOOTH",
"317 231 OFFCURVE",
"358 218 OFFCURVE",
"395 192 CURVE",
"395 139 LINE",
"371 100 OFFCURVE",
"322 77 OFFCURVE",
"267 77 CURVE SMOOTH"
);
},
{
closed = 1;
nodes = (
"348 535 LINE",
"434 709 LINE",
"301 709 LINE",
"232 535 LINE"
);
}
);
width = 577;
}
);
leftKerningGroup = a;
note = aacute;
rightKerningGroup = a;
unicode = 00E1;
},
{
glyphname = abreve;
lastChange = "2015-11-30 00:46:20 +0000";
layers = (
{
layerId = "8C3E11F2-14C8-42F3-9A0B-AF341C1B554F";
name = Regular;
paths = (
{
closed = 1;
nodes = (
"317 -15 OFFCURVE",
"365 10 OFFCURVE",
"403 47 CURVE",
"403 0 LINE",
"522 0 LINE",
"522 293 LINE SMOOTH",
"522 414 OFFCURVE",
"450 495 OFFCURVE",
"277 495 CURVE SMOOTH",
"214 495 OFFCURVE",
"139 481 OFFCURVE",
"99 463 CURVE",
"99 364 LINE",
"143 384 OFFCURVE",
"203 396 OFFCURVE",
"262 396 CURVE SMOOTH",
"355 396 OFFCURVE",
"395 367 OFFCURVE",
"395 299 CURVE SMOOTH",
"395 286 LINE",
"354 309 OFFCURVE",
"300 323 OFFCURVE",
"238 323 CURVE SMOOTH",
"112 323 OFFCURVE",
"40 259 OFFCURVE",
"40 153 CURVE SMOOTH",
"40 49 OFFCURVE",
"123 -15 OFFCURVE",
"236 -15 CURVE SMOOTH"
);
},
{
closed = 1;
nodes = (
"204 77 OFFCURVE",
"168 102 OFFCURVE",
"168 153 CURVE SMOOTH",
"168 206 OFFCURVE",
"204 231 OFFCURVE",
"269 231 CURVE SMOOTH",
"317 231 OFFCURVE",
"358 218 OFFCURVE",
"395 192 CURVE",
"395 139 LINE",
"371 100 OFFCURVE",
"322 77 OFFCURVE",
"267 77 CURVE SMOOTH"
);
},
{
closed = 1;
nodes = (
"403 535 OFFCURVE",
"463 596 OFFCURVE",
"463 686 CURVE",
"368 686 LINE",
"368 642 OFFCURVE",
"344 619 OFFCURVE",
"302 619 CURVE SMOOTH",
"260 619 OFFCURVE",
"236 642 OFFCURVE",
"236 686 CURVE",
"141 686 LINE",
"141 596 OFFCURVE",
"201 535 OFFCURVE",
"302 535 CURVE SMOOTH"
);
}
);
width = 577;
}
);
leftKerningGroup = a;
note = abreve;
rightKerningGroup = a;
unicode = 0103;
},
{
glyphname = abreveacute;
lastChange = "2015-11-30 00:46:20 +0000";
layers = (
{
layerId = "8C3E11F2-14C8-42F3-9A0B-AF341C1B554F";
name = Regular;
paths = (
{
closed = 1;
nodes = (
"317 -15 OFFCURVE",
"365 10 OFFCURVE",
"403 47 CURVE",
"403 0 LINE",
"522 0 LINE",
"522 293 LINE SMOOTH",
"522 414 OFFCURVE",
"450 495 OFFCURVE",
"277 495 CURVE SMOOTH",
"214 495 OFFCURVE",
"139 481 OFFCURVE",
"99 463 CURVE",
"99 364 LINE",
"143 384 OFFCURVE",
"203 396 OFFCURVE",
"262 396 CURVE SMOOTH",
"355 396 OFFCURVE",
"395 367 OFFCURVE",
"395 299 CURVE SMOOTH",
"395 286 LINE",
"354 309 OFFCURVE",
"300 323 OFFCURVE",
"238 323 CURVE SMOOTH",
"112 323 OFFCURVE",
"40 259 OFFCURVE",
"40 153 CURVE SMOOTH",
"40 49 OFFCURVE",
"123 -15 OFFCURVE",
"236 -15 CURVE SMOOTH"
);
},
{
closed = 1;
nodes = (
"204 77 OFFCURVE",
"168 102 OFFCURVE",
"168 153 CURVE SMOOTH",
"168 206 OFFCURVE",
"204 231 OFFCURVE",
"269 231 CURVE SMOOTH",
"317 231 OFFCURVE",
"358 218 OFFCURVE",
"395 192 CURVE",
"395 139 LINE",
"371 100 OFFCURVE",
"322 77 OFFCURVE",
"267 77 CURVE SMOOTH"
);
},
{
closed = 1;
nodes = (
"397 535 OFFCURVE",
"455 594 OFFCURVE",
"455 682 CURVE",
"363 682 LINE",
"363 639 OFFCURVE",
"340 617 OFFCURVE",
"299 617 CURVE SMOOTH",
"258 617 OFFCURVE",
"235 639 OFFCURVE",
"235 682 CURVE",
"143 682 LINE",
"143 594 OFFCURVE",
"201 535 OFFCURVE",
"299 535 CURVE SMOOTH"
);
},
{
closed = 1;
nodes = (
"341 686 LINE",
"408 812 LINE",
"307 812 LINE",
"255 686 LINE"
);
}
);
width = 577;
}
);
leftKerningGroup = a;
note = abreveacute;
rightKerningGroup = a;
unicode = 1EAF;
},
{
glyphname = abrevedotbelow;
lastChange = "2015-11-30 00:46:21 +0000";
layers = (
{
layerId = "8C3E11F2-14C8-42F3-9A0B-AF341C1B554F";
name = Regular;
paths = (
{
closed = 1;
nodes = (
"317 -15 OFFCURVE",
"365 10 OFFCURVE",
"403 47 CURVE",
"403 0 LINE",
"522 0 LINE",
"522 293 LINE SMOOTH",
"522 414 OFFCURVE",
"450 495 OFFCURVE",
"277 495 CURVE SMOOTH",
"214 495 OFFCURVE",
"139 481 OFFCURVE",
"99 463 CURVE",
"99 364 LINE",
"143 384 OFFCURVE",
"203 396 OFFCURVE",
"262 396 CURVE SMOOTH",
"355 396 OFFCURVE",
"395 367 OFFCURVE",
"395 299 CURVE SMOOTH",
"395 286 LINE",
"354 309 OFFCURVE",
"300 323 OFFCURVE",
"238 323 CURVE SMOOTH",
"112 323 OFFCURVE",
"40 259 OFFCURVE",
"40 153 CURVE SMOOTH",
"40 49 OFFCURVE",
"123 -15 OFFCURVE",
"236 -15 CURVE SMOOTH"
);
},
{
closed = 1;
nodes = (
"325 -179 OFFCURVE",
"355 -150 OFFCURVE",
"355 -113 CURVE SMOOTH",
"355 -76 OFFCURVE",
"325 -46 OFFCURVE",
"289 -46 CURVE SMOOTH",
"253 -46 OFFCURVE",
"222 -76 OFFCURVE",
"222 -113 CURVE SMOOTH",
"222 -150 OFFCURVE",
"253 -179 OFFCURVE",
"289 -179 CURVE SMOOTH"
);
},
{
closed = 1;
nodes = (
"204 77 OFFCURVE",
"168 102 OFFCURVE",
"168 153 CURVE SMOOTH",
"168 206 OFFCURVE",
"204 231 OFFCURVE",
"269 231 CURVE SMOOTH",
"317 231 OFFCURVE",
"358 218 OFFCURVE",
"395 192 CURVE",
"395 139 LINE",
"371 100 OFFCURVE",
"322 77 OFFCURVE",
"267 77 CURVE SMOOTH"
);
},
{
closed = 1;
nodes = (
"399 535 OFFCURVE",
"459 596 OFFCURVE",
"459 686 CURVE",
"364 686 LINE",
"364 642 OFFCURVE",
"340 619 OFFCURVE",
"298 619 CURVE SMOOTH",
"256 619 OFFCURVE",
"232 642 OFFCURVE",
"232 686 CURVE",
"137 686 LINE",
"137 596 OFFCURVE",
"197 535 OFFCURVE",
"298 535 CURVE SMOOTH"
);
}
);
width = 577;
}
);
leftKerningGroup = a;
note = abrevedotbelow;
rightKerningGroup = a;
unicode = 1EB7;
},
{
glyphname = abrevegrave;
lastChange = "2015-11-30 00:46:21 +0000";
layers = (
{
layerId = "8C3E11F2-14C8-42F3-9A0B-AF341C1B554F";
name = Regular;
paths = (
{
closed = 1;
nodes = (
"317 -15 OFFCURVE",
"365 10 OFFCURVE",
"403 47 CURVE",
"403 0 LINE",
"522 0 LINE",
"522 293 LINE SMOOTH",
"522 414 OFFCURVE",
"450 495 OFFCURVE",
"277 495 CURVE SMOOTH",
"214 495 OFFCURVE",
"139 481 OFFCURVE",
"99 463 CURVE",
"99 364 LINE",
"143 384 OFFCURVE",
"203 396 OFFCURVE",
"262 396 CURVE SMOOTH",
"355 396 OFFCURVE",
"395 367 OFFCURVE",
"395 299 CURVE SMOOTH",
"395 286 LINE",
"354 309 OFFCURVE",
"300 323 OFFCURVE",
"238 323 CURVE SMOOTH",
"112 323 OFFCURVE",
"40 259 OFFCURVE",
"40 153 CURVE SMOOTH",
"40 49 OFFCURVE",
"123 -15 OFFCURVE",
"236 -15 CURVE SMOOTH"
);
},
{
closed = 1;
nodes = (
"204 77 OFFCURVE",
"168 102 OFFCURVE",
"168 153 CURVE SMOOTH",
"168 206 OFFCURVE",
"204 231 OFFCURVE",
"269 231 CURVE SMOOTH",
"317 231 OFFCURVE",
"358 218 OFFCURVE",
"395 192 CURVE",
"395 139 LINE",
"371 100 OFFCURVE",
"322 77 OFFCURVE",
"267 77 CURVE SMOOTH"
);
},
{
closed = 1;
nodes = (
"392 535 OFFCURVE",
"450 594 OFFCURVE",
"450 682 CURVE",
"358 682 LINE",
"358 639 OFFCURVE",
"335 617 OFFCURVE",
"294 617 CURVE SMOOTH",
"253 617 OFFCURVE",
"230 639 OFFCURVE",
"230 682 CURVE",
"138 682 LINE",
"138 594 OFFCURVE",
"196 535 OFFCURVE",
"294 535 CURVE SMOOTH"
);
},
{
closed = 1;
nodes = (
"338 686 LINE",
"286 812 LINE",
"185 812 LINE",
"252 686 LINE"
);
}
);
width = 577;
}
);
leftKerningGroup = a;
note = abrevegrave;
rightKerningGroup = a;
unicode = 1EB1;
},
{
glyphname = abrevehookabove;
lastChange = "2015-11-30 00:46:20 +0000";
layers = (
{
layerId = "8C3E11F2-14C8-42F3-9A0B-AF341C1B554F";
name = Regular;
paths = (
{
closed = 1;
nodes = (
"317 -15 OFFCURVE",
"365 10 OFFCURVE",
"403 47 CURVE",
"403 0 LINE",
"522 0 LINE",
"522 293 LINE SMOOTH",
"522 414 OFFCURVE",
"450 495 OFFCURVE",
"277 495 CURVE SMOOTH",
"214 495 OFFCURVE",
"139 481 OFFCURVE",
"99 463 CURVE",
"99 364 LINE",
"143 384 OFFCURVE",
"203 396 OFFCURVE",
"262 396 CURVE SMOOTH",
"355 396 OFFCURVE",
"395 367 OFFCURVE",
"395 299 CURVE SMOOTH",
"395 286 LINE",
"354 309 OFFCURVE",
"300 323 OFFCURVE",
"238 323 CURVE SMOOTH",
"112 323 OFFCURVE",
"40 259 OFFCURVE",
"40 153 CURVE SMOOTH",
"40 49 OFFCURVE",
"123 -15 OFFCURVE",
"236 -15 CURVE SMOOTH"
);
},
{
closed = 1;
nodes = (
"204 77 OFFCURVE",
"168 102 OFFCURVE",
"168 153 CURVE SMOOTH",
"168 206 OFFCURVE",
"204 231 OFFCURVE",
"269 231 CURVE SMOOTH",
"317 231 OFFCURVE",
"358 218 OFFCURVE",
"395 192 CURVE",
"395 139 LINE",
"371 100 OFFCURVE",
"322 77 OFFCURVE",
"267 77 CURVE SMOOTH"
);
},
{
closed = 1;
nodes = (
"394 530 OFFCURVE",
"452 589 OFFCURVE",
"452 677 CURVE",
"362 677 LINE",
"362 634 OFFCURVE",
"337 610 OFFCURVE",
"296 610 CURVE SMOOTH",
"255 610 OFFCURVE",
"230 634 OFFCURVE",
"230 677 CURVE",
"140 677 LINE",
"140 589 OFFCURVE",
"198 530 OFFCURVE",
"296 530 CURVE SMOOTH"
);
},
{
closed = 1;
nodes = (
"337 670 LINE",
"337 694 LINE",
"377 701 OFFCURVE",
"401 725 OFFCURVE",
"401 759 CURVE SMOOTH",
"401 801 OFFCURVE",
"364 829 OFFCURVE",
"304 829 CURVE SMOOTH",
"280 829 OFFCURVE",
"250 824 OFFCURVE",
"232 818 CURVE",
"232 769 LINE",
"242 774 OFFCURVE",
"259 777 OFFCURVE",
"273 777 CURVE SMOOTH",
"301 777 OFFCURVE",
"315 772 OFFCURVE",
"315 751 CURVE SMOOTH",
"315 727 OFFCURVE",
"296 720 OFFCURVE",
"258 720 CURVE",
"258 670 LINE"
);
}
);
width = 577;
}
);
leftKerningGroup = a;
note = abrevehookabove;
rightKerningGroup = a;
unicode = 1EB3;
},
{
glyphname = abrevetilde;
lastChange = "2015-11-30 00:46:20 +0000";
layers = (
{
layerId = "8C3E11F2-14C8-42F3-9A0B-AF341C1B554F";
name = Regular;
paths = (
{
closed = 1;
nodes = (
"317 -15 OFFCURVE",
"365 10 OFFCURVE",
"403 47 CURVE",
"403 0 LINE",
"522 0 LINE",
"522 293 LINE SMOOTH",
"522 414 OFFCURVE",
"450 495 OFFCURVE",
"277 495 CURVE SMOOTH",
"214 495 OFFCURVE",
"139 481 OFFCURVE",
"99 463 CURVE",
"99 364 LINE",
"143 384 OFFCURVE",
"203 396 OFFCURVE",
"262 396 CURVE SMOOTH",
"355 396 OFFCURVE",
"395 367 OFFCURVE",
"395 299 CURVE SMOOTH",
"395 286 LINE",
"354 309 OFFCURVE",
"300 323 OFFCURVE",
"238 323 CURVE SMOOTH",
"112 323 OFFCURVE",
"40 259 OFFCURVE",
"40 153 CURVE SMOOTH",
"40 49 OFFCURVE",
"123 -15 OFFCURVE",
"236 -15 CURVE SMOOTH"
);
},
{
closed = 1;
nodes = (
"204 77 OFFCURVE",
"168 102 OFFCURVE",
"168 153 CURVE SMOOTH",
"168 206 OFFCURVE",
"204 231 OFFCURVE",
"269 231 CURVE SMOOTH",
"317 231 OFFCURVE",
"358 218 OFFCURVE",
"395 192 CURVE",
"395 139 LINE",
"371 100 OFFCURVE",
"322 77 OFFCURVE",
"267 77 CURVE SMOOTH"
);
},
{
closed = 1;
nodes = (
"412 535 OFFCURVE",
"470 594 OFFCURVE",
"470 682 CURVE",
"378 682 LINE",
"378 639 OFFCURVE",
"355 617 OFFCURVE",
"314 617 CURVE SMOOTH",
"273 617 OFFCURVE",
"250 639 OFFCURVE",
"250 682 CURVE",
"158 682 LINE",
"158 594 OFFCURVE",
"216 535 OFFCURVE",
"314 535 CURVE SMOOTH"
);
},
{
closed = 1;
nodes = (
"427 718 OFFCURVE",
"453 728 OFFCURVE",
"470 752 CURVE",
"470 842 LINE",
"448 811 OFFCURVE",
"423 800 OFFCURVE",
"392 800 CURVE SMOOTH",
"344 800 OFFCURVE",
"288 843 OFFCURVE",
"238 843 CURVE SMOOTH",
"203 843 OFFCURVE",
"177 833 OFFCURVE",
"160 808 CURVE",
"160 719 LINE",
"183 750 OFFCURVE",
"207 761 OFFCURVE",
"238 761 CURVE SMOOTH",
"285 761 OFFCURVE",
"338 718 OFFCURVE",
"392 718 CURVE SMOOTH"
);
}
);
width = 577;
}
);
leftKerningGroup = a;
note = abrevetilde;
rightKerningGroup = a;
unicode = 1EB5;
},
{
glyphname = acaron;
lastChange = "2015-11-30 00:46:19 +0000";
layers = (
{
layerId = "8C3E11F2-14C8-42F3-9A0B-AF341C1B554F";
name = Regular;
paths = (
{
closed = 1;
nodes = (
"317 -15 OFFCURVE",
"365 10 OFFCURVE",
"403 47 CURVE",
"403 0 LINE",
"522 0 LINE",
"522 293 LINE SMOOTH",
"522 414 OFFCURVE",
"450 495 OFFCURVE",
"277 495 CURVE SMOOTH",
"214 495 OFFCURVE",
"139 481 OFFCURVE",
"99 463 CURVE",
"99 364 LINE",
"143 384 OFFCURVE",
"203 396 OFFCURVE",
"262 396 CURVE SMOOTH",
"355 396 OFFCURVE",
"395 367 OFFCURVE",
"395 299 CURVE SMOOTH",
"395 286 LINE",
"354 309 OFFCURVE",
"300 323 OFFCURVE",
"238 323 CURVE SMOOTH",
"112 323 OFFCURVE",
"40 259 OFFCURVE",
"40 153 CURVE SMOOTH",
"40 49 OFFCURVE",
"123 -15 OFFCURVE",
"236 -15 CURVE SMOOTH"
);
},
{
closed = 1;
nodes = (
"204 77 OFFCURVE",
"168 102 OFFCURVE",
"168 153 CURVE SMOOTH",
"168 206 OFFCURVE",
"204 231 OFFCURVE",
"269 231 CURVE SMOOTH",
"317 231 OFFCURVE",
"358 218 OFFCURVE",
"395 192 CURVE",
"395 139 LINE",
"371 100 OFFCURVE",
"322 77 OFFCURVE",
"267 77 CURVE SMOOTH"
);
},
{
closed = 1;
nodes = (
"367 535 LINE",
"513 706 LINE",
"387 706 LINE",
"311 606 LINE",
"235 706 LINE",
"108 706 LINE",
"255 535 LINE"
);
}
);
width = 577;
}
);
leftKerningGroup = a;
note = acaron;
rightKerningGroup = a;
unicode = 01CE;
},
{
glyphname = acircumflex;
lastChange = "2015-11-30 00:46:21 +0000";
layers = (
{
layerId = "8C3E11F2-14C8-42F3-9A0B-AF341C1B554F";
name = Regular;
paths = (
{
closed = 1;
nodes = (
"317 -15 OFFCURVE",
"365 10 OFFCURVE",
"403 47 CURVE",
"403 0 LINE",
"522 0 LINE",
"522 293 LINE SMOOTH",
"522 414 OFFCURVE",
"450 495 OFFCURVE",
"277 495 CURVE SMOOTH",
"214 495 OFFCURVE",
"139 481 OFFCURVE",
"99 463 CURVE",
"99 364 LINE",
"143 384 OFFCURVE",
"203 396 OFFCURVE",
"262 396 CURVE SMOOTH",
"355 396 OFFCURVE",
"395 367 OFFCURVE",
"395 299 CURVE SMOOTH",
"395 286 LINE",
"354 309 OFFCURVE",
"300 323 OFFCURVE",
"238 323 CURVE SMOOTH",
"112 323 OFFCURVE",
"40 259 OFFCURVE",
"40 153 CURVE SMOOTH",
"40 49 OFFCURVE",
"123 -15 OFFCURVE",
"236 -15 CURVE SMOOTH"
);
},
{
closed = 1;
nodes = (
"204 77 OFFCURVE",
"168 102 OFFCURVE",
"168 153 CURVE SMOOTH",
"168 206 OFFCURVE",
"204 231 OFFCURVE",
"269 231 CURVE SMOOTH",
"317 231 OFFCURVE",
"358 218 OFFCURVE",
"395 192 CURVE",
"395 139 LINE",
"371 100 OFFCURVE",
"322 77 OFFCURVE",
"267 77 CURVE SMOOTH"
);
},
{
closed = 1;
nodes = (
"221 535 LINE",
"297 634 LINE",
"373 535 LINE",
"499 535 LINE",
"353 706 LINE",
"241 706 LINE",
"94 535 LINE"
);
}
);
width = 577;
}
);
leftKerningGroup = a;
note = acircumflex;
rightKerningGroup = a;
unicode = 00E2;
},
{
glyphname = acircumflexacute;
lastChange = "2015-11-30 00:46:19 +0000";
layers = (
{
layerId = "8C3E11F2-14C8-42F3-9A0B-AF341C1B554F";
name = Regular;
paths = (
{
closed = 1;
nodes = (
"317 -15 OFFCURVE",
"365 10 OFFCURVE",
"403 47 CURVE",
"403 0 LINE",
"522 0 LINE",
"522 293 LINE SMOOTH",
"522 414 OFFCURVE",
"450 495 OFFCURVE",
"277 495 CURVE SMOOTH",
"214 495 OFFCURVE",
"139 481 OFFCURVE",
"99 463 CURVE",
"99 364 LINE",
"143 384 OFFCURVE",
"203 396 OFFCURVE",
"262 396 CURVE SMOOTH",
"355 396 OFFCURVE",
"395 367 OFFCURVE",
"395 299 CURVE SMOOTH",
"395 286 LINE",
"354 309 OFFCURVE",
"300 323 OFFCURVE",
"238 323 CURVE SMOOTH",
"112 323 OFFCURVE",
"40 259 OFFCURVE",
"40 153 CURVE SMOOTH",
"40 49 OFFCURVE",
"123 -15 OFFCURVE",
"236 -15 CURVE SMOOTH"
);
},
{
closed = 1;
nodes = (
"204 77 OFFCURVE",
"168 102 OFFCURVE",
"168 153 CURVE SMOOTH",
"168 206 OFFCURVE",
"204 231 OFFCURVE",
"269 231 CURVE SMOOTH",
"317 231 OFFCURVE",
"358 218 OFFCURVE",
"395 192 CURVE",
"395 139 LINE",
"371 100 OFFCURVE",
"322 77 OFFCURVE",
"267 77 CURVE SMOOTH"
);
},
{
closed = 1;
nodes = (
"235 535 LINE",
"307 619 LINE",
"379 535 LINE",
"498 535 LINE",
"360 687 LINE",
"254 687 LINE",
"115 535 LINE"
);
},
{
closed = 1;
nodes = (
"544 634 LINE",
"621 762 LINE",
"504 762 LINE",
"443 634 LINE"
);
}
);
width = 577;
}
);
leftKerningGroup = a;
note = acircumflexacute;
rightKerningGroup = a;
unicode = 1EA5;
},
{
glyphname = acircumflexdotbelow;
lastChange = "2015-11-30 00:46:20 +0000";
layers = (
{
layerId = "8C3E11F2-14C8-42F3-9A0B-AF341C1B554F";
name = Regular;
paths = (
{
closed = 1;
nodes = (
"317 -15 OFFCURVE",
"365 10 OFFCURVE",
"403 47 CURVE",
"403 0 LINE",
"522 0 LINE",
"522 293 LINE SMOOTH",
"522 414 OFFCURVE",
"450 495 OFFCURVE",
"277 495 CURVE SMOOTH",
"214 495 OFFCURVE",
"139 481 OFFCURVE",
"99 463 CURVE",
"99 364 LINE",
"143 384 OFFCURVE",
"203 396 OFFCURVE",
"262 396 CURVE SMOOTH",
"355 396 OFFCURVE",
"395 367 OFFCURVE",
"395 299 CURVE SMOOTH",
"395 286 LINE",
"354 309 OFFCURVE",
"300 323 OFFCURVE",
"238 323 CURVE SMOOTH",
"112 323 OFFCURVE",
"40 259 OFFCURVE",
"40 153 CURVE SMOOTH",
"40 49 OFFCURVE",
"123 -15 OFFCURVE",
"236 -15 CURVE SMOOTH"
);
},
{
closed = 1;
nodes = (
"318 -179 OFFCURVE",
"348 -150 OFFCURVE",
"348 -113 CURVE SMOOTH",
"348 -76 OFFCURVE",
"318 -46 OFFCURVE",
"282 -46 CURVE SMOOTH",
"246 -46 OFFCURVE",
"215 -76 OFFCURVE",
"215 -113 CURVE SMOOTH",
"215 -150 OFFCURVE",
"246 -179 OFFCURVE",
"282 -179 CURVE SMOOTH"
);
},
{
closed = 1;
nodes = (
"204 77 OFFCURVE",
"168 102 OFFCURVE",
"168 153 CURVE SMOOTH",
"168 206 OFFCURVE",
"204 231 OFFCURVE",
"269 231 CURVE SMOOTH",
"317 231 OFFCURVE",
"358 218 OFFCURVE",
"395 192 CURVE",
"395 139 LINE",
"371 100 OFFCURVE",
"322 77 OFFCURVE",
"267 77 CURVE SMOOTH"
);
},
{
closed = 1;
nodes = (
"216 535 LINE",
"292 634 LINE",
"368 535 LINE",
"494 535 LINE",
"348 706 LINE",
"236 706 LINE",
"89 535 LINE"
);
}
);
width = 577;
}
);
leftKerningGroup = a;
note = acircumflexdotbelow;
rightKerningGroup = a;
unicode = 1EAD;
},
{
glyphname = acircumflexgrave;
lastChange = "2015-11-30 00:46:19 +0000";
layers = (
{
layerId = "8C3E11F2-14C8-42F3-9A0B-AF341C1B554F";
name = Regular;
paths = (
{
closed = 1;
nodes = (
"317 -15 OFFCURVE",
"365 10 OFFCURVE",
"403 47 CURVE",
"403 0 LINE",
"522 0 LINE",
"522 293 LINE SMOOTH",
"522 414 OFFCURVE",
"450 495 OFFCURVE",
"277 495 CURVE SMOOTH",
"214 495 OFFCURVE",
"139 481 OFFCURVE",
"99 463 CURVE",
"99 364 LINE",
"143 384 OFFCURVE",
"203 396 OFFCURVE",
"262 396 CURVE SMOOTH",
"355 396 OFFCURVE",
"395 367 OFFCURVE",
"395 299 CURVE SMOOTH",
"395 286 LINE",
"354 309 OFFCURVE",
"300 323 OFFCURVE",
"238 323 CURVE SMOOTH",
"112 323 OFFCURVE",
"40 259 OFFCURVE",
"40 153 CURVE SMOOTH",
"40 49 OFFCURVE",
"123 -15 OFFCURVE",
"236 -15 CURVE SMOOTH"
);
},
{
closed = 1;
nodes = (
"204 77 OFFCURVE",
"168 102 OFFCURVE",
"168 153 CURVE SMOOTH",
"168 206 OFFCURVE",
"204 231 OFFCURVE",
"269 231 CURVE SMOOTH",
"317 231 OFFCURVE",
"358 218 OFFCURVE",
"395 192 CURVE",
"395 139 LINE",
"371 100 OFFCURVE",
"322 77 OFFCURVE",
"267 77 CURVE SMOOTH"
);
},
{
closed = 1;
nodes = (
"163 634 LINE",
"102 762 LINE",
"-15 762 LINE",
"62 634 LINE"
);
},
{
closed = 1;
nodes = (
"227 535 LINE",
"299 619 LINE",
"371 535 LINE",
"491 535 LINE",
"352 687 LINE",
"246 687 LINE",
"108 535 LINE"
);
}
);
width = 577;
}
);
leftKerningGroup = a;
note = acircumflexgrave;
rightKerningGroup = a;
unicode = 1EA7;
},
{
glyphname = acircumflexhookabove;
lastChange = "2015-11-30 00:46:20 +0000";
layers = (
{
layerId = "8C3E11F2-14C8-42F3-9A0B-AF341C1B554F";
name = Regular;
paths = (
{
closed = 1;
nodes = (
"317 -15 OFFCURVE",
"365 10 OFFCURVE",
"403 47 CURVE",
"403 0 LINE",
"522 0 LINE",
"522 293 LINE SMOOTH",
"522 414 OFFCURVE",
"450 495 OFFCURVE",
"277 495 CURVE SMOOTH",
"214 495 OFFCURVE",
"139 481 OFFCURVE",
"99 463 CURVE",
"99 364 LINE",
"143 384 OFFCURVE",
"203 396 OFFCURVE",
"262 396 CURVE SMOOTH",
"355 396 OFFCURVE",
"395 367 OFFCURVE",
"395 299 CURVE SMOOTH",
"395 286 LINE",
"354 309 OFFCURVE",
"300 323 OFFCURVE",
"238 323 CURVE SMOOTH",
"112 323 OFFCURVE",
"40 259 OFFCURVE",
"40 153 CURVE SMOOTH",
"40 49 OFFCURVE",
"123 -15 OFFCURVE",
"236 -15 CURVE SMOOTH"
);
},
{
closed = 1;
nodes = (
"204 77 OFFCURVE",
"168 102 OFFCURVE",
"168 153 CURVE SMOOTH",
"168 206 OFFCURVE",
"204 231 OFFCURVE",
"269 231 CURVE SMOOTH",
"317 231 OFFCURVE",
"358 218 OFFCURVE",
"395 192 CURVE",
"395 139 LINE",
"371 100 OFFCURVE",
"322 77 OFFCURVE",
"267 77 CURVE SMOOTH"
);
},
{
closed = 1;
nodes = (
"222 535 LINE",
"294 619 LINE",
"366 535 LINE",
"485 535 LINE",
"347 687 LINE",
"241 687 LINE",
"102 535 LINE"
);
},
{
closed = 1;
nodes = (
"509 623 LINE",
"509 647 LINE",
"549 654 OFFCURVE",
"573 678 OFFCURVE",
"573 712 CURVE SMOOTH",
"573 754 OFFCURVE",
"536 782 OFFCURVE",
"476 782 CURVE SMOOTH",
"452 782 OFFCURVE",
"422 777 OFFCURVE",
"404 771 CURVE",
"404 722 LINE",
"414 727 OFFCURVE",
"431 730 OFFCURVE",
"445 730 CURVE SMOOTH",
"473 730 OFFCURVE",
"487 725 OFFCURVE",
"487 704 CURVE SMOOTH",
"487 680 OFFCURVE",
"468 673 OFFCURVE",
"430 673 CURVE",
"430 623 LINE"
);
}
);
width = 577;
}
);
leftKerningGroup = a;
note = acircumflexhookabove;
rightKerningGroup = a;
unicode = 1EA9;
},
{
glyphname = acircumflextilde;
lastChange = "2015-11-30 00:46:19 +0000";
layers = (
{
layerId = "8C3E11F2-14C8-42F3-9A0B-AF341C1B554F";
name = Regular;
paths = (
{
closed = 1;
nodes = (
"317 -15 OFFCURVE",
"365 10 OFFCURVE",
"403 47 CURVE",
"403 0 LINE",
"522 0 LINE",
"522 293 LINE SMOOTH",
"522 414 OFFCURVE",
"450 495 OFFCURVE",
"277 495 CURVE SMOOTH",
"214 495 OFFCURVE",
"139 481 OFFCURVE",
"99 463 CURVE",
"99 364 LINE",
"143 384 OFFCURVE",
"203 396 OFFCURVE",
"262 396 CURVE SMOOTH",
"355 396 OFFCURVE",
"395 367 OFFCURVE",
"395 299 CURVE SMOOTH",
"395 286 LINE",
"354 309 OFFCURVE",
"300 323 OFFCURVE",
"238 323 CURVE SMOOTH",
"112 323 OFFCURVE",
"40 259 OFFCURVE",
"40 153 CURVE SMOOTH",
"40 49 OFFCURVE",
"123 -15 OFFCURVE",
"236 -15 CURVE SMOOTH"
);
},
{
closed = 1;
nodes = (
"204 77 OFFCURVE",
"168 102 OFFCURVE",
"168 153 CURVE SMOOTH",
"168 206 OFFCURVE",
"204 231 OFFCURVE",
"269 231 CURVE SMOOTH",
"317 231 OFFCURVE",
"358 218 OFFCURVE",
"395 192 CURVE",
"395 139 LINE",
"371 100 OFFCURVE",
"322 77 OFFCURVE",
"267 77 CURVE SMOOTH"
);
},
{
closed = 1;
nodes = (
"227 535 LINE",
"299 619 LINE",
"371 535 LINE",
"490 535 LINE",
"352 687 LINE",
"246 687 LINE",
"107 535 LINE"
);
},
{
closed = 1;
nodes = (
"414 699 OFFCURVE",
"440 709 OFFCURVE",
"457 733 CURVE",
"457 823 LINE",
"435 792 OFFCURVE",
"410 781 OFFCURVE",
"379 781 CURVE SMOOTH",
"331 781 OFFCURVE",
"275 824 OFFCURVE",
"225 824 CURVE SMOOTH",
"190 824 OFFCURVE",
"164 814 OFFCURVE",
"147 789 CURVE",
"147 700 LINE",
"170 731 OFFCURVE",
"194 742 OFFCURVE",
"225 742 CURVE SMOOTH",
"272 742 OFFCURVE",
"325 699 OFFCURVE",
"379 699 CURVE SMOOTH"
);
}
);
width = 577;
}
);
leftKerningGroup = a;
note = acircumflextilde;
rightKerningGroup = a;
unicode = 1EAB;
},
{
glyphname = adieresis;
lastChange = "2015-11-30 00:46:19 +0000";
layers = (
{
layerId = "8C3E11F2-14C8-42F3-9A0B-AF341C1B554F";
name = Regular;
paths = (
{
closed = 1;
nodes = (
"317 -15 OFFCURVE",
"365 10 OFFCURVE",
"403 47 CURVE",
"403 0 LINE",
"522 0 LINE",
"522 293 LINE SMOOTH",
"522 414 OFFCURVE",
"450 495 OFFCURVE",
"277 495 CURVE SMOOTH",
"214 495 OFFCURVE",
"139 481 OFFCURVE",
"99 463 CURVE",
"99 364 LINE",
"143 384 OFFCURVE",
"203 396 OFFCURVE",
"262 396 CURVE SMOOTH",
"355 396 OFFCURVE",
"395 367 OFFCURVE",
"395 299 CURVE SMOOTH",
"395 286 LINE",
"354 309 OFFCURVE",
"300 323 OFFCURVE",
"238 323 CURVE SMOOTH",
"112 323 OFFCURVE",
"40 259 OFFCURVE",
"40 153 CURVE SMOOTH",
"40 49 OFFCURVE",
"123 -15 OFFCURVE",
"236 -15 CURVE SMOOTH"
);
},
{
closed = 1;
nodes = (
"204 77 OFFCURVE",
"168 102 OFFCURVE",
"168 153 CURVE SMOOTH",
"168 206 OFFCURVE",
"204 231 OFFCURVE",
"269 231 CURVE SMOOTH",
"317 231 OFFCURVE",
"358 218 OFFCURVE",
"395 192 CURVE",
"395 139 LINE",
"371 100 OFFCURVE",
"322 77 OFFCURVE",
"267 77 CURVE SMOOTH"
);
},
{
closed = 1;
nodes = (
"209 545 OFFCURVE",
"239 574 OFFCURVE",
"239 611 CURVE SMOOTH",
"239 648 OFFCURVE",
"209 678 OFFCURVE",
"173 678 CURVE SMOOTH",
"137 678 OFFCURVE",
"106 648 OFFCURVE",
"106 611 CURVE SMOOTH",
"106 574 OFFCURVE",
"137 545 OFFCURVE",
"173 545 CURVE SMOOTH"
);
},
{
closed = 1;
nodes = (
"446 545 OFFCURVE",
"476 574 OFFCURVE",
"476 611 CURVE SMOOTH",
"476 648 OFFCURVE",
"446 678 OFFCURVE",
"410 678 CURVE SMOOTH",
"374 678 OFFCURVE",
"343 648 OFFCURVE",
"343 611 CURVE SMOOTH",
"343 574 OFFCURVE",
"374 545 OFFCURVE",
"410 545 CURVE SMOOTH"
);
}
);
width = 577;
}
);
leftKerningGroup = a;
note = adieresis;
rightKerningGroup = a;
unicode = 00E4;
},
{
glyphname = adotbelow;
lastChange = "2015-11-30 00:46:20 +0000";
layers = (
{
layerId = "8C3E11F2-14C8-42F3-9A0B-AF341C1B554F";
name = Regular;
paths = (
{
closed = 1;
nodes = (
"317 -15 OFFCURVE",
"365 10 OFFCURVE",
"403 47 CURVE",
"403 0 LINE",
"522 0 LINE",
"522 293 LINE SMOOTH",
"522 414 OFFCURVE",
"450 495 OFFCURVE",
"277 495 CURVE SMOOTH",
"214 495 OFFCURVE",
"139 481 OFFCURVE",
"99 463 CURVE",
"99 364 LINE",
"143 384 OFFCURVE",
"203 396 OFFCURVE",
"262 396 CURVE SMOOTH",
"355 396 OFFCURVE",
"395 367 OFFCURVE",
"395 299 CURVE SMOOTH",
"395 286 LINE",
"354 309 OFFCURVE",
"300 323 OFFCURVE",
"238 323 CURVE SMOOTH",
"112 323 OFFCURVE",
"40 259 OFFCURVE",
"40 153 CURVE SMOOTH",
"40 49 OFFCURVE",
"123 -15 OFFCURVE",
"236 -15 CURVE SMOOTH"
);
},
{
closed = 1;
nodes = (
"321 -179 OFFCURVE",
"351 -150 OFFCURVE",
"351 -113 CURVE SMOOTH",
"351 -76 OFFCURVE",
"321 -46 OFFCURVE",
"285 -46 CURVE SMOOTH",
"249 -46 OFFCURVE",
"218 -76 OFFCURVE",
"218 -113 CURVE SMOOTH",
"218 -150 OFFCURVE",
"249 -179 OFFCURVE",
"285 -179 CURVE SMOOTH"
);
},
{
closed = 1;
nodes = (
"204 77 OFFCURVE",
"168 102 OFFCURVE",
"168 153 CURVE SMOOTH",
"168 206 OFFCURVE",
"204 231 OFFCURVE",
"269 231 CURVE SMOOTH",
"317 231 OFFCURVE",
"358 218 OFFCURVE",
"395 192 CURVE",
"395 139 LINE",
"371 100 OFFCURVE",
"322 77 OFFCURVE",
"267 77 CURVE SMOOTH"
);
}
);
width = 577;
}
);
leftKerningGroup = a;
note = adotbelow;
rightKerningGroup = a;
unicode = 1EA1;
},
{
glyphname = agrave;
lastChange = "2015-11-30 00:46:20 +0000";
layers = (
{
layerId = "8C3E11F2-14C8-42F3-9A0B-AF341C1B554F";
name = Regular;
paths = (
{
closed = 1;
nodes = (
"317 -15 OFFCURVE",
"365 10 OFFCURVE",
"403 47 CURVE",
"403 0 LINE",
"522 0 LINE",
"522 293 LINE SMOOTH",
"522 414 OFFCURVE",
"450 495 OFFCURVE",
"277 495 CURVE SMOOTH",
"214 495 OFFCURVE",
"139 481 OFFCURVE",
"99 463 CURVE",
"99 364 LINE",
"143 384 OFFCURVE",
"203 396 OFFCURVE",
"262 396 CURVE SMOOTH",
"355 396 OFFCURVE",
"395 367 OFFCURVE",
"395 299 CURVE SMOOTH",
"395 286 LINE",
"354 309 OFFCURVE",
"300 323 OFFCURVE",
"238 323 CURVE SMOOTH",
"112 323 OFFCURVE",
"40 259 OFFCURVE",
"40 153 CURVE SMOOTH",
"40 49 OFFCURVE",
"123 -15 OFFCURVE",
"236 -15 CURVE SMOOTH"
);
},
{
closed = 1;
nodes = (
"204 77 OFFCURVE",
"168 102 OFFCURVE",
"168 153 CURVE SMOOTH",
"168 206 OFFCURVE",
"204 231 OFFCURVE",
"269 231 CURVE SMOOTH",
"317 231 OFFCURVE",
"358 218 OFFCURVE",
"395 192 CURVE",
"395 139 LINE",
"371 100 OFFCURVE",
"322 77 OFFCURVE",
"267 77 CURVE SMOOTH"
);
},
{
closed = 1;
nodes = (
"378 535 LINE",
"309 709 LINE",
"176 709 LINE",
"262 535 LINE"
);
}
);
width = 577;
}
);
leftKerningGroup = a;
note = agrave;
rightKerningGroup = a;
unicode = 00E0;
},
